<svg version="1.1" viewBox="0.0 0.0 432.0 240.0" fill="none" stroke="none" stroke-linecap="square" stroke-miterlimit="10" xmlns:xlink="http://www.w3.org/1999/xlink" xmlns="http://www.w3.org/2000/svg"><clipPath id="p.0"><path d="m0 0l432.0 0l0 240.0l-432.0 0l0 -240.0z" clip-rule="nonzero"/></clipPath><g clip-path="url(#p.0)"><path fill="#000000" fill-opacity="0.0" d="m0 0l432.0 0l0 240.0l-432.0 0z" fill-rule="evenodd"/><path fill="#eeeeee" d="m-0.004230446 -0.016103543l431.9788 0l0 239.976l-431.9788 0z" fill-rule="evenodd"/><path stroke="#000000" stroke-width="2.015748031496063" stroke-linejoin="round" stroke-linecap="butt" d="m-0.004230446 -0.016103543l431.9788 0l0 239.976l-431.9788 0z" fill-rule="evenodd"/><path fill="#000000" d="m177.47362 121.292816l-3.578125 0l0 -1.453125l3.578125 0q1.03125 0 1.671875 -0.328125q0.640625 -0.328125 0.9375 -0.90625q0.3125 -0.59375 0.3125 -1.34375q0 -0.6875 -0.3125 -1.296875q-0.296875 -0.609375 -0.9375 -0.96875q-0.640625 -0.375 -1.671875 -0.375l-3.15625 0l0 11.90625l-1.78125 0l0 -13.359375l4.9375 0q1.515625 0 2.5625 0.53125q1.046875 0.515625 1.578125 1.4375q0.546875 0.921875 0.546875 2.109375q0 1.28125 -0.546875 2.1875q-0.53125 0.90625 -1.578125 1.390625q-1.046875 0.46875 -2.5625 0.46875zm6.098175 0.375l0 -0.203125q0 -1.078125 0.3125 -2.0q0.3125 -0.921875 0.890625 -1.609375q0.59375 -0.6875 1.421875 -1.0625q0.84375 -0.375 1.875 -0.375q1.046875 0 1.890625 0.375q0.84375 0.375 1.4375 1.0625q0.59375 0.6875 0.90625 1.609375q0.3125 0.921875 0.3125 2.0l0 0.203125q0 1.078125 -0.3125 2.0q-0.3125 0.90625 -0.90625 1.59375q-0.59375 0.6875 -1.421875 1.078125q-0.828125 0.375 -1.875 0.375q-1.046875 0 -1.890625 -0.375q-0.828125 -0.390625 -1.421875 -1.078125q-0.59375 -0.6875 -0.90625 -1.59375q-0.3125 -0.921875 -0.3125 -2.0zm1.703125 -0.203125l0 0.203125q0 0.75 0.171875 1.40625q0.171875 0.65625 0.515625 1.15625q0.359375 0.5 0.890625 0.796875q0.53125 0.28125 1.25 0.28125q0.6875 0 1.21875 -0.28125q0.53125 -0.296875 0.875 -0.796875q0.34375 -0.5 0.515625 -1.15625q0.1875 -0.65625 0.1875 -1.40625l0 -0.203125q0 -0.734375 -0.1875 -1.390625q-0.171875 -0.65625 -0.53125 -1.15625q-0.34375 -0.515625 -0.875 -0.8125q-0.515625 -0.296875 -1.234375 -0.296875q-0.6875 0 -1.21875 0.296875q-0.53125 0.296875 -0.890625 0.8125q-0.34375 0.5 -0.515625 1.15625q-0.171875 0.65625 -0.171875 1.390625zm11.157593 -2.953125l0 11.82814l-1.703125 0l0 -13.750015l1.5625 0l0.140625 1.921875zm6.703125 2.96875l0 0.1875q0 1.09375 -0.265625 2.015625q-0.25 0.921875 -0.75 1.609375q-0.484375 0.671875 -1.203125 1.046875q-0.71875 0.375 -1.640625 0.375q-0.953125 0 -1.671875 -0.3125q-0.71875 -0.3125 -1.234375 -0.90625q-0.5 -0.609375 -0.796875 -1.4375q-0.296875 -0.828125 -0.40625 -1.875l0 -1.03125q0.109375 -1.109375 0.40625 -1.96875q0.3125 -0.875 0.8125 -1.5q0.5 -0.625 1.203125 -0.9375q0.71875 -0.328125 1.65625 -0.328125q0.9375 0 1.65625 0.359375q0.734375 0.359375 1.21875 1.03125q0.5 0.671875 0.75 1.609375q0.265625 0.921875 0.265625 2.0625zm-1.71875 0.1875l0 -0.1875q0 -0.75 -0.15625 -1.40625q-0.15625 -0.65625 -0.484375 -1.15625q-0.3125 -0.5 -0.828125 -0.78125q-0.5 -0.296875 -1.1875 -0.296875q-0.65625 0 -1.125 0.234375q-0.46875 0.21875 -0.796875 0.59375q-0.328125 0.359375 -0.546875 0.84375q-0.203125 0.46875 -0.296875 0.96875l0 2.375q0.171875 0.640625 0.5 1.203125q0.34375 0.5625 0.890625 0.90625q0.546875 0.34375 1.390625 0.34375q0.6875 0 1.1875 -0.28125q0.5 -0.296875 0.8125 -0.796875q0.328125 -0.5 0.484375 -1.15625q0.15625 -0.65625 0.15625 -1.40625zm9.961136 2.5625l0 -7.640625l1.703125 0l0 9.9375l-1.625 0l-0.078125 -2.296875zm0.3125 -2.09375l0.703125 -0.015625q0 0.984375 -0.203125 1.828125q-0.203125 0.84375 -0.671875 1.46875q-0.453125 0.609375 -1.203125 0.953125q-0.734375 0.34375 -1.796875 0.34375q-0.71875 0 -1.328125 -0.203125q-0.59375 -0.21875 -1.03125 -0.65625q-0.4375 -0.453125 -0.671875 -1.15625q-0.234375 -0.703125 -0.234375 -1.703125l0 -6.40625l1.703125 0l0 6.4375q0 0.65625 0.15625 1.09375q0.15625 0.4375 0.40625 0.703125q0.265625 0.25 0.59375 0.359375q0.328125 0.09375 0.671875 0.09375q1.078125 0 1.703125 -0.421875q0.640625 -0.421875 0.921875 -1.125q0.28125 -0.71875 0.28125 -1.59375zm5.815277 -9.703125l0 14.09375l-1.703125 0l0 -14.09375l1.703125 0zm8.5863495 12.390625l0 -5.109375q0 -0.578125 -0.234375 -1.015625q-0.234375 -0.4375 -0.703125 -0.671875q-0.46875 -0.25 -1.15625 -0.25q-0.640625 0 -1.125 0.21875q-0.484375 0.21875 -0.765625 0.578125q-0.265625 0.359375 -0.265625 0.78125l-1.6875 0q0 -0.53125 0.265625 -1.046875q0.28125 -0.53125 0.796875 -0.953125q0.515625 -0.4375 1.25 -0.6875q0.734375 -0.25 1.625 -0.25q1.078125 0 1.90625 0.375q0.84375 0.359375 1.3125 1.09375q0.46875 0.734375 0.46875 1.84375l0 4.625q0 0.5 0.078125 1.0625q0.09375 0.5625 0.28125 0.96875l0 0.140625l-1.78125 0q-0.125 -0.296875 -0.203125 -0.78125q-0.0625 -0.5 -0.0625 -0.921875zm0.28125 -4.3125l0.03125 1.1875l-1.71875 0q-0.734375 0 -1.3125 0.125q-0.5625 0.109375 -0.953125 0.34375q-0.375 0.21875 -0.578125 0.5625q-0.203125 0.34375 -0.203125 0.8125q0 0.453125 0.203125 0.84375q0.21875 0.390625 0.640625 0.625q0.4375 0.21875 1.0625 0.21875q0.78125 0 1.375 -0.328125q0.59375 -0.34375 0.9375 -0.8125q0.359375 -0.484375 0.390625 -0.9375l0.734375 0.828125q-0.078125 0.375 -0.359375 0.84375q-0.28125 0.46875 -0.75 0.90625q-0.46875 0.421875 -1.125 0.703125q-0.640625 0.28125 -1.453125 0.28125q-1.015625 0 -1.78125 -0.390625q-0.75 -0.40625 -1.171875 -1.0625q-0.40625 -0.671875 -0.40625 -1.5q0 -0.796875 0.3125 -1.40625q0.3125 -0.609375 0.890625 -1.015625q0.59375 -0.40625 1.421875 -0.609375q0.828125 -0.21875 1.84375 -0.21875l1.96875 0zm8.240097 -3.921875l0 1.3125l-5.375 0l0 -1.3125l5.375 0zm-3.546875 -2.40625l1.6875 0l0 9.890625q0 0.5 0.15625 0.765625q0.15625 0.25 0.40625 0.328125q0.25 0.078125 0.53125 0.078125q0.21875 0 0.453125 -0.03125q0.234375 -0.046875 0.34375 -0.078125l0.015625 1.390625q-0.203125 0.0625 -0.53125 0.125q-0.328125 0.0625 -0.78125 0.0625q-0.625 0 -1.15625 -0.25q-0.515625 -0.25 -0.828125 -0.828125q-0.296875 -0.59375 -0.296875 -1.578125l0 -9.875zm7.3837433 2.40625l0 9.9375l-1.703125 0l0 -9.9375l1.703125 0zm-1.84375 -2.625q0 -0.421875 0.25 -0.703125q0.265625 -0.28125 0.75 -0.28125q0.5 0 0.75 0.28125q0.265625 0.28125 0.265625 0.703125q0 0.390625 -0.265625 0.671875q-0.25 0.28125 -0.75 0.28125q-0.484375 0 -0.75 -0.28125q-0.25 -0.28125 -0.25 -0.671875zm4.1175995 7.703125l0 -0.203125q0 -1.078125 0.3125 -2.0q0.3125 -0.921875 0.890625 -1.609375q0.59375 -0.6875 1.421875 -1.0625q0.84375 -0.375 1.875 -0.375q1.046875 0 1.890625 0.375q0.84375 0.375 1.4375 1.0625q0.59375 0.6875 0.90625 1.609375q0.3125 0.921875 0.3125 2.0l0 0.203125q0 1.078125 -0.3125 2.0q-0.3125 0.90625 -0.90625 1.59375q-0.59375 0.6875 -1.421875 1.078125q-0.828125 0.375 -1.875 0.375q-1.046875 0 -1.890625 -0.375q-0.828125 -0.390625 -1.421875 -1.078125q-0.59375 -0.6875 -0.90625 -1.59375q-0.3125 -0.921875 -0.3125 -2.0zm1.703125 -0.203125l0 0.203125q0 0.75 0.171875 1.40625q0.171875 0.65625 0.515625 1.15625q0.359375 0.5 0.890625 0.796875q0.53125 0.28125 1.25 0.28125q0.6875 0 1.21875 -0.28125q0.53125 -0.296875 0.875 -0.796875q0.34375 -0.5 0.515625 -1.15625q0.1875 -0.65625 0.1875 -1.40625l0 -0.203125q0 -0.734375 -0.1875 -1.390625q-0.171875 -0.65625 -0.53125 -1.15625q-0.34375 -0.515625 -0.875 -0.8125q-0.515625 -0.296875 -1.234375 -0.296875q-0.6875 0 -1.21875 0.296875q-0.53125 0.296875 -0.890625 0.8125q-0.34375 0.5 -0.515625 1.15625q-0.171875 0.65625 -0.171875 1.390625zm11.157593 -2.75l0 7.8125l-1.6875 0l0 -9.9375l1.609375 0l0.078125 2.125zm-0.390625 2.46875l-0.71875 -0.03125q0.015625 -1.015625 0.3125 -1.875q0.296875 -0.875 0.828125 -1.515625q0.53125 -0.640625 1.265625 -0.984375q0.734375 -0.359375 1.640625 -0.359375q0.734375 0 1.3125 0.203125q0.59375 0.1875 1.015625 0.625q0.421875 0.421875 0.640625 1.109375q0.21875 0.6875 0.21875 1.671875l0 6.5l-1.71875 0l0 -6.53125q0 -0.78125 -0.234375 -1.25q-0.21875 -0.46875 -0.65625 -0.6875q-0.4375 -0.21875 -1.078125 -0.21875q-0.640625 0 -1.15625 0.265625q-0.515625 0.265625 -0.890625 0.734375q-0.375 0.46875 -0.578125 1.078125q-0.203125 0.59375 -0.203125 1.265625z" fill-rule="nonzero"/><path fill="#d9ead3" fill-opacity="0.75" d="m-0.004230446 -0.016103543l112.428246 0l0 239.976l-112.428246 0z" fill-rule="evenodd"/><path stroke="#000000" stroke-width="2.015748031496063" stroke-linejoin="round" stroke-linecap="butt" d="m-0.004230446 -0.016103543l112.428246 0l0 239.976l-112.428246 0z" fill-rule="evenodd"/><path fill="#000000" d="m29.791687 113.167816l0 13.359375l-1.78125 0l0 -13.359375l1.78125 0zm5.59375 6.0l0 1.453125l-5.984375 0l0 -1.453125l5.984375 0zm0.90625 -6.0l0 1.453125l-6.890625 0l0 -1.453125l6.890625 0zm7.4055634 11.65625l0 -5.109375q0 -0.578125 -0.234375 -1.015625q-0.234375 -0.4375 -0.703125 -0.671875q-0.46875 -0.25 -1.15625 -0.25q-0.640625 0 -1.125 0.21875q-0.484375 0.21875 -0.765625 0.578125q-0.265625 0.359375 -0.265625 0.78125l-1.6875 0q0 -0.53125 0.265625 -1.046875q0.28125 -0.53125 0.796875 -0.953125q0.515625 -0.4375 1.25 -0.6875q0.734375 -0.25 1.625 -0.25q1.078125 0 1.90625 0.375q0.84375 0.359375 1.3125 1.09375q0.46875 0.734375 0.46875 1.84375l0 4.625q0 0.5 0.078125 1.0625q0.09375 0.5625 0.28125 0.96875l0 0.140625l-1.78125 0q-0.125 -0.296875 -0.203125 -0.78125q-0.0625 -0.5 -0.0625 -0.921875zm0.28125 -4.3125l0.03125 1.1875l-1.71875 0q-0.734375 0 -1.3125 0.125q-0.5625 0.109375 -0.953125 0.34375q-0.375 0.21875 -0.578125 0.5625q-0.203125 0.34375 -0.203125 0.8125q0 0.453125 0.203125 0.84375q0.21875 0.390625 0.640625 0.625q0.4375 0.21875 1.0625 0.21875q0.78125 0 1.375 -0.328125q0.59375 -0.34375 0.9375 -0.8125q0.359375 -0.484375 0.390625 -0.9375l0.734375 0.828125q-0.078125 0.375 -0.359375 0.84375q-0.28125 0.46875 -0.75 0.90625q-0.46875 0.421875 -1.125 0.703125q-0.640625 0.28125 -1.453125 0.28125q-1.015625 0 -1.78125 -0.390625q-0.75 -0.40625 -1.171875 -1.0625q-0.40625 -0.671875 -0.40625 -1.5q0 -0.796875 0.3125 -1.40625q0.3125 -0.609375 0.890625 -1.015625q0.59375 -0.40625 1.421875 -0.609375q0.828125 -0.21875 1.84375 -0.21875l1.96875 0zm5.771347 -2.359375l0 8.375l-1.6875 0l0 -9.9375l1.65625 0l0.03125 1.5625zm3.109375 -1.609375l-0.015625 1.578125q-0.203125 -0.046875 -0.390625 -0.0625q-0.1875 -0.015625 -0.421875 -0.015625q-0.59375 0 -1.046875 0.1875q-0.453125 0.1875 -0.765625 0.515625q-0.3125 0.328125 -0.484375 0.78125q-0.171875 0.453125 -0.234375 1.0l-0.46875 0.265625q0 -0.890625 0.171875 -1.671875q0.171875 -0.796875 0.546875 -1.40625q0.390625 -0.609375 0.96875 -0.953125q0.578125 -0.34375 1.390625 -0.34375q0.1875 0 0.421875 0.046875q0.234375 0.03125 0.328125 0.078125zm3.2602692 2.03125l0 7.953125l-1.703125 0l0 -9.9375l1.609375 0l0.09375 1.984375zm-0.34375 2.609375l-0.796875 -0.03125q0.015625 -1.015625 0.265625 -1.875q0.265625 -0.875 0.765625 -1.515625q0.5 -0.640625 1.25 -0.984375q0.75 -0.359375 1.75 -0.359375q0.703125 0 1.28125 0.203125q0.59375 0.1875 1.015625 0.609375q0.4375 0.421875 0.671875 1.09375q0.25 0.65625 0.25 1.578125l0 6.625l-1.703125 0l0 -6.53125q0 -0.78125 -0.265625 -1.25q-0.265625 -0.46875 -0.75 -0.6875q-0.46875 -0.21875 -1.109375 -0.21875q-0.75 0 -1.265625 0.265625q-0.5 0.265625 -0.796875 0.734375q-0.296875 0.46875 -0.4375 1.078125q-0.125 0.59375 -0.125 1.265625zm6.421875 -0.9375l-1.125 0.359375q0 -0.828125 0.265625 -1.578125q0.265625 -0.75 0.765625 -1.328125q0.5 -0.59375 1.234375 -0.9375q0.734375 -0.34375 1.671875 -0.34375q0.796875 0 1.421875 0.21875q0.625 0.203125 1.046875 0.640625q0.421875 0.4375 0.640625 1.109375q0.21875 0.671875 0.21875 1.609375l0 6.53125l-1.703125 0l0 -6.546875q0 -0.828125 -0.265625 -1.296875q-0.25 -0.46875 -0.734375 -0.65625q-0.46875 -0.1875 -1.125 -0.1875q-0.546875 0 -0.984375 0.203125q-0.4375 0.1875 -0.734375 0.53125q-0.28125 0.328125 -0.4375 0.765625q-0.15625 0.421875 -0.15625 0.90625zm12.843353 6.46875q-1.046875 0 -1.890625 -0.34375q-0.828125 -0.359375 -1.4375 -1.0q-0.59375 -0.65625 -0.921875 -1.53125q-0.3125 -0.875 -0.3125 -1.921875l0 -0.390625q0 -1.21875 0.34375 -2.15625q0.359375 -0.953125 0.96875 -1.609375q0.625 -0.671875 1.40625 -1.0q0.78125 -0.34375 1.609375 -0.34375q1.078125 0 1.84375 0.375q0.78125 0.359375 1.265625 1.015625q0.5 0.65625 0.734375 1.546875q0.25 0.875 0.25 1.921875l0 0.765625l-7.421875 0l0 -1.390625l5.71875 0l0 -0.125q-0.03125 -0.65625 -0.265625 -1.28125q-0.234375 -0.625 -0.75 -1.03125q-0.5 -0.40625 -1.375 -0.40625q-0.578125 0 -1.0625 0.25q-0.484375 0.234375 -0.828125 0.71875q-0.34375 0.46875 -0.546875 1.15625q-0.1875 0.6875 -0.1875 1.59375l0 0.390625q0 0.703125 0.1875 1.328125q0.203125 0.609375 0.578125 1.078125q0.390625 0.46875 0.9375 0.734375q0.546875 0.265625 1.234375 0.265625q0.90625 0 1.53125 -0.359375q0.625 -0.375 1.09375 -0.984375l1.03125 0.8125q-0.328125 0.484375 -0.828125 0.9375q-0.484375 0.4375 -1.21875 0.71875q-0.71875 0.265625 -1.6875 0.265625zm7.5299835 -8.5625l0 8.375l-1.6875 0l0 -9.9375l1.65625 0l0.03125 1.5625zm3.109375 -1.609375l-0.015625 1.578125q-0.203125 -0.046875 -0.390625 -0.0625q-0.1875 -0.015625 -0.421875 -0.015625q-0.59375 0 -1.046875 0.1875q-0.453125 0.1875 -0.765625 0.515625q-0.3125 0.328125 -0.484375 0.78125q-0.171875 0.453125 -0.234375 1.0l-0.46875 0.265625q0 -0.890625 0.171875 -1.671875q0.171875 -0.796875 0.546875 -1.40625q0.390625 -0.609375 0.96875 -0.953125q0.578125 -0.34375 1.390625 -0.34375q0.1875 0 0.421875 0.046875q0.234375 0.03125 0.328125 0.078125z" fill-rule="nonzero"/><path fill="#f4cccc" fill-opacity="0.5" d="m112.42402 -0.016103543l9.277763 0l0 239.976l-9.277763 0z" fill-rule="evenodd"/><path stroke="#000000" stroke-width="2.015748031496063" stroke-linejoin="round" stroke-linecap="butt" d="m112.42402 -0.016103543l9.277763 0l0 239.976l-9.277763 0z" fill-rule="evenodd"/><path fill="#c9daf8" fill-opacity="0.7" d="m-0.004230446 192.01062l112.428246 0l0 47.963715l-112.428246 0z" fill-rule="evenodd"/><path stroke="#000000" stroke-width="2.015748031496063" stroke-linejoin="round" stroke-linecap="butt" d="m-0.004230446 192.01062l112.428246 0l0 47.963715l-112.428246 0z" fill-rule="evenodd"/><path fill="#c9daf8" fill-opacity="0.5" d="m112.42402 47.979095l9.277763 0l0 191.9808l-9.277763 0z" fill-rule="evenodd"/><path stroke="#000000" stroke-width="2.015748031496063" stroke-linejoin="round" stroke-linecap="butt" d="m112.42402 47.979095l9.277763 0l0 191.9808l-9.277763 0z" fill-rule="evenodd"/></g></svg>