<?xml version="1.0" encoding="utf-8" standalone="no"?>
<!DOCTYPE svg PUBLIC "-//W3C//DTD SVG 1.1//EN"
  "http://www.w3.org/Graphics/SVG/1.1/DTD/svg11.dtd">
<svg xmlns:xlink="http://www.w3.org/1999/xlink" width="593.3pt" height="396.449313pt" viewBox="0 0 593.3 396.449313" xmlns="http://www.w3.org/2000/svg" version="1.1">
 <metadata>
  <rdf:RDF xmlns:dc="http://purl.org/dc/elements/1.1/" xmlns:cc="http://creativecommons.org/ns#" xmlns:rdf="http://www.w3.org/1999/02/22-rdf-syntax-ns#">
   <cc:Work>
    <dc:type rdf:resource="http://purl.org/dc/dcmitype/StillImage"/>
    <dc:date>2025-12-17T21:01:43.477636</dc:date>
    <dc:format>image/svg+xml</dc:format>
    <dc:creator>
     <cc:Agent>
      <dc:title>Matplotlib v3.5.2, https://matplotlib.org/</dc:title>
     </cc:Agent>
    </dc:creator>
   </cc:Work>
  </rdf:RDF>
 </metadata>
 <defs>
  <style type="text/css">*{stroke-linejoin: round; stroke-linecap: butt}</style>
 </defs>
 <g id="figure_1">
  <g id="patch_1">
   <path d="M -0 396.449313 
L 593.3 396.449313 
L 593.3 0 
L -0 0 
z
"/>
  </g>
  <g id="axes_1">
   <g id="patch_2">
    <path d="M 28.1 373.104 
L 586.1 373.104 
L 586.1 7.2 
L 28.1 7.2 
z
"/>
   </g>
   <g id="matplotlib.axis_1">
    <g id="xtick_1">
     <g id="line2d_1">
      <defs>
       <path id="m7cbc7eeaf3" d="M 0 0 
L 0 3.5 
" style="stroke: #ffffff; stroke-width: 0.8"/>
      </defs>
      <g>
       <use xlink:href="#m7cbc7eeaf3" x="53.463636" y="373.104" style="fill: #ffffff; stroke: #ffffff; stroke-width: 0.8"/>
      </g>
     </g>
     <g id="text_1">
      <text style="fill: #ffffff; font: 10px 'Arial'; text-anchor: middle" x="53.463636" y="387.261813" transform="rotate(-0, 53.463636, 387.261813)">0.0</text>
     </g>
    </g>
    <g id="xtick_2">
     <g id="line2d_2">
      <g>
       <use xlink:href="#m7cbc7eeaf3" x="154.918182" y="373.104" style="fill: #ffffff; stroke: #ffffff; stroke-width: 0.8"/>
      </g>
     </g>
     <g id="text_2">
      <text style="fill: #ffffff; font: 10px 'Arial'; text-anchor: middle" x="154.918182" y="387.261813" transform="rotate(-0, 154.918182, 387.261813)">0.2</text>
     </g>
    </g>
    <g id="xtick_3">
     <g id="line2d_3">
      <g>
       <use xlink:href="#m7cbc7eeaf3" x="256.372727" y="373.104" style="fill: #ffffff; stroke: #ffffff; stroke-width: 0.8"/>
      </g>
     </g>
     <g id="text_3">
      <text style="fill: #ffffff; font: 10px 'Arial'; text-anchor: middle" x="256.372727" y="387.261813" transform="rotate(-0, 256.372727, 387.261813)">0.4</text>
     </g>
    </g>
    <g id="xtick_4">
     <g id="line2d_4">
      <g>
       <use xlink:href="#m7cbc7eeaf3" x="357.827273" y="373.104" style="fill: #ffffff; stroke: #ffffff; stroke-width: 0.8"/>
      </g>
     </g>
     <g id="text_4">
      <text style="fill: #ffffff; font: 10px 'Arial'; text-anchor: middle" x="357.827273" y="387.261813" transform="rotate(-0, 357.827273, 387.261813)">0.6</text>
     </g>
    </g>
    <g id="xtick_5">
     <g id="line2d_5">
      <g>
       <use xlink:href="#m7cbc7eeaf3" x="459.281818" y="373.104" style="fill: #ffffff; stroke: #ffffff; stroke-width: 0.8"/>
      </g>
     </g>
     <g id="text_5">
      <text style="fill: #ffffff; font: 10px 'Arial'; text-anchor: middle" x="459.281818" y="387.261813" transform="rotate(-0, 459.281818, 387.261813)">0.8</text>
     </g>
    </g>
    <g id="xtick_6">
     <g id="line2d_6">
      <g>
       <use xlink:href="#m7cbc7eeaf3" x="560.736364" y="373.104" style="fill: #ffffff; stroke: #ffffff; stroke-width: 0.8"/>
      </g>
     </g>
     <g id="text_6">
      <text style="fill: #ffffff; font: 10px 'Arial'; text-anchor: middle" x="560.736364" y="387.261813" transform="rotate(-0, 560.736364, 387.261813)">1.0</text>
     </g>
    </g>
   </g>
   <g id="matplotlib.axis_2">
    <g id="ytick_1">
     <g id="line2d_7">
      <defs>
       <path id="mf5cc0f9457" d="M 0 0 
L -3.5 0 
" style="stroke: #ffffff; stroke-width: 0.8"/>
      </defs>
      <g>
       <use xlink:href="#mf5cc0f9457" x="28.1" y="356.472" style="fill: #ffffff; stroke: #ffffff; stroke-width: 0.8"/>
      </g>
     </g>
     <g id="text_7">
      <text style="fill: #ffffff; font: 10px 'Arial'; text-anchor: end" x="21.1" y="360.050906" transform="rotate(-0, 21.1, 360.050906)">0.0</text>
     </g>
    </g>
    <g id="ytick_2">
     <g id="line2d_8">
      <g>
       <use xlink:href="#mf5cc0f9457" x="28.1" y="289.944" style="fill: #ffffff; stroke: #ffffff; stroke-width: 0.8"/>
      </g>
     </g>
     <g id="text_8">
      <text style="fill: #ffffff; font: 10px 'Arial'; text-anchor: end" x="21.1" y="293.522906" transform="rotate(-0, 21.1, 293.522906)">0.2</text>
     </g>
    </g>
    <g id="ytick_3">
     <g id="line2d_9">
      <g>
       <use xlink:href="#mf5cc0f9457" x="28.1" y="223.416" style="fill: #ffffff; stroke: #ffffff; stroke-width: 0.8"/>
      </g>
     </g>
     <g id="text_9">
      <text style="fill: #ffffff; font: 10px 'Arial'; text-anchor: end" x="21.1" y="226.994906" transform="rotate(-0, 21.1, 226.994906)">0.4</text>
     </g>
    </g>
    <g id="ytick_4">
     <g id="line2d_10">
      <g>
       <use xlink:href="#mf5cc0f9457" x="28.1" y="156.888" style="fill: #ffffff; stroke: #ffffff; stroke-width: 0.8"/>
      </g>
     </g>
     <g id="text_10">
      <text style="fill: #ffffff; font: 10px 'Arial'; text-anchor: end" x="21.1" y="160.466906" transform="rotate(-0, 21.1, 160.466906)">0.6</text>
     </g>
    </g>
    <g id="ytick_5">
     <g id="line2d_11">
      <g>
       <use xlink:href="#mf5cc0f9457" x="28.1" y="90.36" style="fill: #ffffff; stroke: #ffffff; stroke-width: 0.8"/>
      </g>
     </g>
     <g id="text_11">
      <text style="fill: #ffffff; font: 10px 'Arial'; text-anchor: end" x="21.1" y="93.938906" transform="rotate(-0, 21.1, 93.938906)">0.8</text>
     </g>
    </g>
    <g id="ytick_6">
     <g id="line2d_12">
      <g>
       <use xlink:href="#mf5cc0f9457" x="28.1" y="23.832" style="fill: #ffffff; stroke: #ffffff; stroke-width: 0.8"/>
      </g>
     </g>
     <g id="text_12">
      <text style="fill: #ffffff; font: 10px 'Arial'; text-anchor: end" x="21.1" y="27.410906" transform="rotate(-0, 21.1, 27.410906)">1.0</text>
     </g>
    </g>
   </g>
   <g id="line2d_13">
    <path d="M 53.463636 356.472 
L 138.85624 355.800065 
L 203.917271 355.075305 
L 254.746201 354.298169 
L 295.409346 353.466141 
L 328.95644 352.564695 
L 356.404063 351.612371 
L 379.785371 350.57953 
L 399.100364 349.507862 
L 415.365622 348.392044 
L 429.597723 347.197185 
L 441.796666 345.954827 
L 451.962452 344.716241 
L 461.11166 343.395964 
L 469.244289 342.012466 
L 476.360339 340.595653 
L 482.459811 339.188809 
L 488.559282 337.559949 
L 493.642175 335.992387 
L 498.725068 334.18746 
L 502.791383 332.534051 
L 506.857697 330.652745 
L 510.924012 328.492935 
L 513.973747 326.650919 
L 517.023483 324.578846 
L 520.073219 322.230744 
L 523.122955 319.547521 
L 526.172691 316.451922 
L 528.205848 314.109611 
L 530.239005 311.499916 
L 532.272163 308.574281 
L 534.30532 305.271636 
L 536.338477 301.514087 
L 538.371634 297.200696 
L 540.404791 292.198277 
L 542.437949 286.327397 
L 544.471106 279.340401 
L 546.504263 270.885581 
L 547.520842 265.95518 
L 548.53742 260.446108 
L 549.553999 254.250136 
L 550.570578 247.230254 
L 551.587156 239.210417 
L 552.603735 229.960582 
L 553.620313 219.174282 
L 554.636892 206.434013 
L 555.653471 191.155944 
L 556.670049 172.497922 
L 557.686628 149.198834 
L 558.703206 119.281067 
L 559.719785 79.457418 
L 560.736364 23.832 
L 560.736364 23.832 
" clip-path="url(#p7306043a10)" style="fill: none; stroke: #ffffff; stroke-width: 3; stroke-linecap: square"/>
   </g>
   <g id="line2d_14">
    <path d="M 28.1 339.84 
L 586.1 339.84 
" clip-path="url(#p7306043a10)" style="fill: none; stroke-dasharray: 11.1,4.8; stroke-dashoffset: 0; stroke: #ffffff; stroke-width: 3"/>
   </g>
   <g id="patch_3">
    <path d="M 28.1 373.104 
L 28.1 7.2 
" style="fill: none; stroke: #ffffff; stroke-width: 0.8; stroke-linejoin: miter; stroke-linecap: square"/>
   </g>
   <g id="patch_4">
    <path d="M 586.1 373.104 
L 586.1 7.2 
" style="fill: none; stroke: #ffffff; stroke-width: 0.8; stroke-linejoin: miter; stroke-linecap: square"/>
   </g>
   <g id="patch_5">
    <path d="M 28.1 373.104 
L 586.1 373.104 
" style="fill: none; stroke: #ffffff; stroke-width: 0.8; stroke-linejoin: miter; stroke-linecap: square"/>
   </g>
   <g id="patch_6">
    <path d="M 28.1 7.2 
L 586.1 7.2 
" style="fill: none; stroke: #ffffff; stroke-width: 0.8; stroke-linejoin: miter; stroke-linecap: square"/>
   </g>
   <g id="line2d_15">
    <path d="M 479.572727 339.84 
" clip-path="url(#p7306043a10)" style="fill: none; stroke: #8dd3c7; stroke-width: 1.5; stroke-linecap: square"/>
    <defs>
     <path id="mcbb0514b2e" d="M 0 4 
C 1.060812 4 2.078319 3.578535 2.828427 2.828427 
C 3.578535 2.078319 4 1.060812 4 0 
C 4 -1.060812 3.578535 -2.078319 2.828427 -2.828427 
C 2.078319 -3.578535 1.060812 -4 0 -4 
C -1.060812 -4 -2.078319 -3.578535 -2.828427 -2.828427 
C -3.578535 -2.078319 -4 -1.060812 -4 0 
C -4 1.060812 -3.578535 2.078319 -2.828427 2.828427 
C -2.078319 3.578535 -1.060812 4 0 4 
z
" style="stroke: #ffffff; stroke-width: 2"/>
    </defs>
    <g clip-path="url(#p7306043a10)">
     <use xlink:href="#mcbb0514b2e" x="479.572727" y="339.84" style="stroke: #ffffff; stroke-width: 2"/>
    </g>
   </g>
  </g>
 </g>
 <defs>
  <clipPath id="p7306043a10">
   <rect x="28.1" y="7.2" width="558" height="365.904"/>
  </clipPath>
 </defs>
</svg>
