<?xml version="1.0" encoding="utf-8" standalone="no"?>
<!DOCTYPE svg PUBLIC "-//W3C//DTD SVG 1.1//EN"
  "http://www.w3.org/Graphics/SVG/1.1/DTD/svg11.dtd">
<svg xmlns:xlink="http://www.w3.org/1999/xlink" width="713.0775pt" height="425.876719pt" viewBox="0 0 713.0775 425.876719" xmlns="http://www.w3.org/2000/svg" version="1.1">
 <metadata>
  <rdf:RDF xmlns:dc="http://purl.org/dc/elements/1.1/" xmlns:cc="http://creativecommons.org/ns#" xmlns:rdf="http://www.w3.org/1999/02/22-rdf-syntax-ns#">
   <cc:Work>
    <dc:type rdf:resource="http://purl.org/dc/dcmitype/StillImage"/>
    <dc:date>2025-12-17T21:04:56.684251</dc:date>
    <dc:format>image/svg+xml</dc:format>
    <dc:creator>
     <cc:Agent>
      <dc:title>Matplotlib v3.5.2, https://matplotlib.org/</dc:title>
     </cc:Agent>
    </dc:creator>
   </cc:Work>
  </rdf:RDF>
 </metadata>
 <defs>
  <style type="text/css">*{stroke-linejoin: round; stroke-linecap: butt}</style>
 </defs>
 <g id="figure_1">
  <g id="patch_1">
   <path d="M 0 425.876719 
L 713.0775 425.876719 
L 713.0775 0 
L 0 0 
L 0 425.876719 
z
" style="fill: none; opacity: 0"/>
  </g>
  <g id="axes_1">
   <g id="patch_2">
    <path d="M 46.92 383.898906 
L 698.9275 383.898906 
L 698.9275 10.778906 
L 46.92 10.778906 
L 46.92 383.898906 
z
" style="fill: none; opacity: 0"/>
   </g>
   <g id="patch_3">
    <path d="M 594.6063 383.898906 
L 698.9275 383.898906 
L 698.9275 10.778906 
L 594.6063 10.778906 
z
" clip-path="url(#pe05728240f)" style="fill: url(#h337e1e5075); stroke: #ffffff; stroke-width: 2; stroke-linejoin: miter"/>
   </g>
   <g id="matplotlib.axis_1">
    <g id="xtick_1">
     <g id="line2d_1">
      <path d="M 46.92 383.898906 
L 46.92 10.778906 
" clip-path="url(#pe05728240f)" style="fill: none; stroke: #ffffff; stroke-opacity: 0.35; stroke-linecap: square"/>
     </g>
     <g id="line2d_2">
      <defs>
       <path id="m3c43d7e765" d="M 0 0 
L 0 3.5 
" style="stroke: #ffffff; stroke-width: 0.8"/>
      </defs>
      <g>
       <use xlink:href="#m3c43d7e765" x="46.92" y="383.898906" style="fill: #ffffff; stroke: #ffffff; stroke-width: 0.8"/>
      </g>
     </g>
     <g id="text_1">
      <text style="fill: #ffffff; font: 10px 'Arial'; text-anchor: middle" x="46.92" y="398.056719" transform="rotate(-0, 46.92, 398.056719)">0.0</text>
     </g>
    </g>
    <g id="xtick_2">
     <g id="line2d_3">
      <path d="M 177.3215 383.898906 
L 177.3215 10.778906 
" clip-path="url(#pe05728240f)" style="fill: none; stroke: #ffffff; stroke-opacity: 0.35; stroke-linecap: square"/>
     </g>
     <g id="line2d_4">
      <g>
       <use xlink:href="#m3c43d7e765" x="177.3215" y="383.898906" style="fill: #ffffff; stroke: #ffffff; stroke-width: 0.8"/>
      </g>
     </g>
     <g id="text_2">
      <text style="fill: #ffffff; font: 10px 'Arial'; text-anchor: middle" x="177.3215" y="398.056719" transform="rotate(-0, 177.3215, 398.056719)">0.2</text>
     </g>
    </g>
    <g id="xtick_3">
     <g id="line2d_5">
      <path d="M 307.723 383.898906 
L 307.723 10.778906 
" clip-path="url(#pe05728240f)" style="fill: none; stroke: #ffffff; stroke-opacity: 0.35; stroke-linecap: square"/>
     </g>
     <g id="line2d_6">
      <g>
       <use xlink:href="#m3c43d7e765" x="307.723" y="383.898906" style="fill: #ffffff; stroke: #ffffff; stroke-width: 0.8"/>
      </g>
     </g>
     <g id="text_3">
      <text style="fill: #ffffff; font: 10px 'Arial'; text-anchor: middle" x="307.723" y="398.056719" transform="rotate(-0, 307.723, 398.056719)">0.4</text>
     </g>
    </g>
    <g id="xtick_4">
     <g id="line2d_7">
      <path d="M 438.1245 383.898906 
L 438.1245 10.778906 
" clip-path="url(#pe05728240f)" style="fill: none; stroke: #ffffff; stroke-opacity: 0.35; stroke-linecap: square"/>
     </g>
     <g id="line2d_8">
      <g>
       <use xlink:href="#m3c43d7e765" x="438.1245" y="383.898906" style="fill: #ffffff; stroke: #ffffff; stroke-width: 0.8"/>
      </g>
     </g>
     <g id="text_4">
      <text style="fill: #ffffff; font: 10px 'Arial'; text-anchor: middle" x="438.1245" y="398.056719" transform="rotate(-0, 438.1245, 398.056719)">0.6</text>
     </g>
    </g>
    <g id="xtick_5">
     <g id="line2d_9">
      <path d="M 568.526 383.898906 
L 568.526 10.778906 
" clip-path="url(#pe05728240f)" style="fill: none; stroke: #ffffff; stroke-opacity: 0.35; stroke-linecap: square"/>
     </g>
     <g id="line2d_10">
      <g>
       <use xlink:href="#m3c43d7e765" x="568.526" y="383.898906" style="fill: #ffffff; stroke: #ffffff; stroke-width: 0.8"/>
      </g>
     </g>
     <g id="text_5">
      <text style="fill: #ffffff; font: 10px 'Arial'; text-anchor: middle" x="568.526" y="398.056719" transform="rotate(-0, 568.526, 398.056719)">0.8</text>
     </g>
    </g>
    <g id="xtick_6">
     <g id="line2d_11">
      <path d="M 698.9275 383.898906 
L 698.9275 10.778906 
" clip-path="url(#pe05728240f)" style="fill: none; stroke: #ffffff; stroke-opacity: 0.35; stroke-linecap: square"/>
     </g>
     <g id="line2d_12">
      <g>
       <use xlink:href="#m3c43d7e765" x="698.9275" y="383.898906" style="fill: #ffffff; stroke: #ffffff; stroke-width: 0.8"/>
      </g>
     </g>
     <g id="text_6">
      <text style="fill: #ffffff; font: 10px 'Arial'; text-anchor: middle" x="698.9275" y="398.056719" transform="rotate(-0, 698.9275, 398.056719)">1.0</text>
     </g>
    </g>
    <g id="text_7">
     <text style="fill: #ffffff; font: 16px 'Arial'; text-anchor: middle" x="372.92375" y="415.496719" transform="rotate(-0, 372.92375, 415.496719)">Innocent</text>
    </g>
   </g>
   <g id="matplotlib.axis_2">
    <g id="ytick_1">
     <g id="line2d_13">
      <path d="M 46.92 383.898906 
L 698.9275 383.898906 
" clip-path="url(#pe05728240f)" style="fill: none; stroke: #ffffff; stroke-opacity: 0.35; stroke-linecap: square"/>
     </g>
     <g id="line2d_14">
      <defs>
       <path id="m62e0a27c36" d="M 0 0 
L -3.5 0 
" style="stroke: #ffffff; stroke-width: 0.8"/>
      </defs>
      <g>
       <use xlink:href="#m62e0a27c36" x="46.92" y="383.898906" style="fill: #ffffff; stroke: #ffffff; stroke-width: 0.8"/>
      </g>
     </g>
     <g id="text_8">
      <text style="fill: #ffffff; font: 10px 'Arial'; text-anchor: end" x="39.92" y="387.477812" transform="rotate(-0, 39.92, 387.477812)">0.0</text>
     </g>
    </g>
    <g id="ytick_2">
     <g id="line2d_15">
      <path d="M 46.92 309.274906 
L 698.9275 309.274906 
" clip-path="url(#pe05728240f)" style="fill: none; stroke: #ffffff; stroke-opacity: 0.35; stroke-linecap: square"/>
     </g>
     <g id="line2d_16">
      <g>
       <use xlink:href="#m62e0a27c36" x="46.92" y="309.274906" style="fill: #ffffff; stroke: #ffffff; stroke-width: 0.8"/>
      </g>
     </g>
     <g id="text_9">
      <text style="fill: #ffffff; font: 10px 'Arial'; text-anchor: end" x="39.92" y="312.853812" transform="rotate(-0, 39.92, 312.853812)">0.2</text>
     </g>
    </g>
    <g id="ytick_3">
     <g id="line2d_17">
      <path d="M 46.92 234.650906 
L 698.9275 234.650906 
" clip-path="url(#pe05728240f)" style="fill: none; stroke: #ffffff; stroke-opacity: 0.35; stroke-linecap: square"/>
     </g>
     <g id="line2d_18">
      <g>
       <use xlink:href="#m62e0a27c36" x="46.92" y="234.650906" style="fill: #ffffff; stroke: #ffffff; stroke-width: 0.8"/>
      </g>
     </g>
     <g id="text_10">
      <text style="fill: #ffffff; font: 10px 'Arial'; text-anchor: end" x="39.92" y="238.229812" transform="rotate(-0, 39.92, 238.229812)">0.4</text>
     </g>
    </g>
    <g id="ytick_4">
     <g id="line2d_19">
      <path d="M 46.92 160.026906 
L 698.9275 160.026906 
" clip-path="url(#pe05728240f)" style="fill: none; stroke: #ffffff; stroke-opacity: 0.35; stroke-linecap: square"/>
     </g>
     <g id="line2d_20">
      <g>
       <use xlink:href="#m62e0a27c36" x="46.92" y="160.026906" style="fill: #ffffff; stroke: #ffffff; stroke-width: 0.8"/>
      </g>
     </g>
     <g id="text_11">
      <text style="fill: #ffffff; font: 10px 'Arial'; text-anchor: end" x="39.92" y="163.605812" transform="rotate(-0, 39.92, 163.605812)">0.6</text>
     </g>
    </g>
    <g id="ytick_5">
     <g id="line2d_21">
      <path d="M 46.92 85.402906 
L 698.9275 85.402906 
" clip-path="url(#pe05728240f)" style="fill: none; stroke: #ffffff; stroke-opacity: 0.35; stroke-linecap: square"/>
     </g>
     <g id="line2d_22">
      <g>
       <use xlink:href="#m62e0a27c36" x="46.92" y="85.402906" style="fill: #ffffff; stroke: #ffffff; stroke-width: 0.8"/>
      </g>
     </g>
     <g id="text_12">
      <text style="fill: #ffffff; font: 10px 'Arial'; text-anchor: end" x="39.92" y="88.981812" transform="rotate(-0, 39.92, 88.981812)">0.8</text>
     </g>
    </g>
    <g id="ytick_6">
     <g id="line2d_23">
      <path d="M 46.92 10.778906 
L 698.9275 10.778906 
" clip-path="url(#pe05728240f)" style="fill: none; stroke: #ffffff; stroke-opacity: 0.35; stroke-linecap: square"/>
     </g>
     <g id="line2d_24">
      <g>
       <use xlink:href="#m62e0a27c36" x="46.92" y="10.778906" style="fill: #ffffff; stroke: #ffffff; stroke-width: 0.8"/>
      </g>
     </g>
     <g id="text_13">
      <text style="fill: #ffffff; font: 10px 'Arial'; text-anchor: end" x="39.92" y="14.357812" transform="rotate(-0, 39.92, 14.357812)">1.0</text>
     </g>
    </g>
    <g id="text_14">
     <text style="fill: #ffffff; font: 16px 'Arial'; text-anchor: middle" x="18.6525" y="197.338906" transform="rotate(-90, 18.6525, 197.338906)">Probability</text>
    </g>
   </g>
   <g id="line2d_25">
    <path d="M 46.92 383.898906 
L 150.143632 383.198403 
L 231.154584 382.435121 
L 295.179369 381.618662 
L 347.444499 380.735707 
L 389.256603 379.81922 
L 424.535566 378.83377 
L 454.588016 377.77575 
L 479.413953 376.689594 
L 501.626633 375.493562 
L 519.919429 374.293627 
L 535.598968 373.059472 
L 549.971879 371.709581 
L 563.038161 370.246067 
L 573.491187 368.86668 
L 582.637585 367.467198 
L 591.783983 365.842618 
L 599.623753 364.226744 
L 606.156894 362.685389 
L 612.690035 360.927065 
L 619.223176 358.902491 
L 624.449689 357.047874 
L 629.676202 354.937625 
L 633.596087 353.153654 
L 637.515972 351.163999 
L 641.435857 348.930914 
L 645.355741 346.406813 
L 649.275626 343.530842 
L 651.888883 341.37994 
L 654.502139 339.00866 
L 657.115396 336.381306 
L 659.728652 333.454029 
L 662.341909 330.172364 
L 664.955165 326.46781 
L 667.568422 322.252993 
L 670.181678 317.414693 
L 672.794935 311.803513 
L 675.408191 305.218187 
L 676.71482 301.477348 
L 678.021448 297.380923 
L 679.328076 292.87568 
L 680.634704 287.897209 
L 681.941333 282.366812 
L 683.247961 276.187324 
L 684.554589 269.237345 
L 685.861217 261.363191 
L 687.167846 252.367395 
L 688.474474 241.991919 
L 689.781102 229.893 
L 691.08773 215.602328 
L 692.394359 198.465023 
L 693.700987 177.536448 
L 695.007615 151.402022 
L 696.314243 117.843469 
L 697.620872 73.173555 
L 698.9275 10.778906 
L 698.9275 10.778906 
" clip-path="url(#pe05728240f)" style="fill: none; stroke: #ffffff; stroke-width: 3; stroke-linecap: square"/>
   </g>
   <g id="line2d_26">
    <path d="M 46.92 365.242906 
L 698.9275 365.242906 
" clip-path="url(#pe05728240f)" style="fill: none; stroke-dasharray: 11.1,4.8; stroke-dashoffset: 0; stroke: #ffffff; stroke-width: 3"/>
   </g>
   <g id="patch_4">
    <path d="M 46.92 383.898906 
L 46.92 10.778906 
" style="fill: none; stroke: #ffffff; stroke-width: 0.8; stroke-linejoin: miter; stroke-linecap: square"/>
   </g>
   <g id="patch_5">
    <path d="M 698.9275 383.898906 
L 698.9275 10.778906 
" style="fill: none; stroke: #ffffff; stroke-width: 0.8; stroke-linejoin: miter; stroke-linecap: square"/>
   </g>
   <g id="patch_6">
    <path d="M 46.92 383.898906 
L 698.9275 383.898906 
" style="fill: none; stroke: #ffffff; stroke-width: 0.8; stroke-linejoin: miter; stroke-linecap: square"/>
   </g>
   <g id="patch_7">
    <path d="M 46.92 10.778906 
L 698.9275 10.778906 
" style="fill: none; stroke: #ffffff; stroke-width: 0.8; stroke-linejoin: miter; stroke-linecap: square"/>
   </g>
   <g id="line2d_27">
    <path d="M 594.6063 365.242906 
" clip-path="url(#pe05728240f)" style="fill: none; stroke: #8dd3c7; stroke-width: 1.5; stroke-linecap: square"/>
    <defs>
     <path id="m5f0caf6b4f" d="M 0 4 
C 1.060812 4 2.078319 3.578535 2.828427 2.828427 
C 3.578535 2.078319 4 1.060812 4 0 
C 4 -1.060812 3.578535 -2.078319 2.828427 -2.828427 
C 2.078319 -3.578535 1.060812 -4 0 -4 
C -1.060812 -4 -2.078319 -3.578535 -2.828427 -2.828427 
C -3.578535 -2.078319 -4 -1.060812 -4 0 
C -4 1.060812 -3.578535 2.078319 -2.828427 2.828427 
C -2.078319 3.578535 -1.060812 4 0 4 
z
" style="stroke: #ffffff; stroke-width: 2"/>
    </defs>
    <g clip-path="url(#pe05728240f)">
     <use xlink:href="#m5f0caf6b4f" x="594.6063" y="365.242906" style="fill: #ffffff; stroke: #ffffff; stroke-width: 2"/>
    </g>
   </g>
  </g>
 </g>
 <defs>
  <clipPath id="pe05728240f">
   <rect x="46.92" y="10.778906" width="652.0075" height="373.12"/>
  </clipPath>
 </defs>
 <defs>
  <pattern id="h337e1e5075" patternUnits="userSpaceOnUse" x="0" y="0" width="72" height="72">
   <rect x="0" y="0" width="73" height="73" fill="none"/>
   <path d="M -36 36 
L 36 -36 
M -32 40 
L 40 -32 
M -28 44 
L 44 -28 
M -24 48 
L 48 -24 
M -20 52 
L 52 -20 
M -16 56 
L 56 -16 
M -12 60 
L 60 -12 
M -8 64 
L 64 -8 
M -4 68 
L 68 -4 
M 0 72 
L 72 0 
M 4 76 
L 76 4 
M 8 80 
L 80 8 
M 12 84 
L 84 12 
M 16 88 
L 88 16 
M 20 92 
L 92 20 
M 24 96 
L 96 24 
M 28 100 
L 100 28 
M 32 104 
L 104 32 
M 36 108 
L 108 36 
" style="fill: #ffffff; stroke: #ffffff; stroke-width: 1.0; stroke-linecap: butt; stroke-linejoin: miter"/>
  </pattern>
 </defs>
</svg>
