<svg xmlns="http://www.w3.org/2000/svg" fill="none" stroke-linecap="square" stroke-miterlimit="10" viewBox="0 0 800 468.48">
  <clipPath id="a">
    <path d="M0 0h800v468.48H0V0z"/>
  </clipPath>
  <g clip-path="url(#a)">
    <path fill="none" d="M0 0h800v468.48H0z"/>
    <path fill="#e8710a" fill-rule="evenodd" d="M68.392 68.657c-91.178 91.395-91.178 239.475 0 330.865l79.756-79.75c-47.313-47.313-47.424-123.94-.323-171.363L68.392 68.657z"/>
    <path fill="#f9ab00" fill-rule="evenodd" d="M233.967.194c-60.243 0-120.155 23.163-165.575 68.463l79.433 79.752c23.707-23.707 54.775-35.563 85.838-35.563 31.068 0 62.136 11.856 85.843 35.563l57.77-99.042-3.341-2.695C332.132 15.502 282.94.194 233.967.194zM147.825 320.094l-79.433 79.751c45.333 44.918 104.981 67.863 164.952 67.863 48.674 0 97.565-15.118 139.188-45.877l3.77-3.124h1.297l-58.093-98.613c-23.707 23.712-54.775 35.563-85.843 35.563-31.063 0-62.131-11.851-85.838-35.563zM565.663-.05c-60.004 0-120.007 22.904-165.755 68.707-91.178 91.395-91.178 239.475 0 330.865l79.75-79.75c-47.418-47.42-47.418-124.263 0-171.686 23.712-23.708 54.776-35.563 85.844-35.563 31.068 0 62.13 11.855 85.843 35.563l80.074-79.429C685.67 22.854 625.667-.05 565.663-.05z"/>
    <path fill="#e8710a" fill-rule="evenodd" d="M731.419 68.657 651.99 148.41c47.418 47.423 47.418 124.267 0 171.685-23.712 23.712-54.775 35.563-85.843 35.563-31.064 0-62.131-11.851-85.843-35.563l-80.397 79.751c45.775 45.78 105.77 68.68 165.769 68.68 59.925 0 119.86-22.848 165.636-68.569 91.5-91.394 91.607-239.692.106-331.299z"/>
  </g>
</svg>
