<?xml version="1.0" encoding="utf-8" standalone="no"?>
<!DOCTYPE svg PUBLIC "-//W3C//DTD SVG 1.1//EN"
  "http://www.w3.org/Graphics/SVG/1.1/DTD/svg11.dtd">
<svg xmlns:xlink="http://www.w3.org/1999/xlink" width="576.8pt" height="424.8pt" viewBox="0 0 576.8 424.8" xmlns="http://www.w3.org/2000/svg" version="1.1">
 <metadata>
  <rdf:RDF xmlns:dc="http://purl.org/dc/elements/1.1/" xmlns:cc="http://creativecommons.org/ns#" xmlns:rdf="http://www.w3.org/1999/02/22-rdf-syntax-ns#">
   <cc:Work>
    <dc:type rdf:resource="http://purl.org/dc/dcmitype/StillImage"/>
    <dc:date>2026-01-07T00:26:59.723548</dc:date>
    <dc:format>image/svg+xml</dc:format>
    <dc:creator>
     <cc:Agent>
      <dc:title>Matplotlib v3.5.2, https://matplotlib.org/</dc:title>
     </cc:Agent>
    </dc:creator>
   </cc:Work>
  </rdf:RDF>
 </metadata>
 <defs>
  <style type="text/css">*{stroke-linejoin: round; stroke-linecap: butt}</style>
 </defs>
 <g id="figure_1">
  <g id="patch_1">
   <path d="M 0 424.8 
L 576.8 424.8 
L 576.8 0 
L 0 0 
L 0 424.8 
z
" style="fill: none; opacity: 0"/>
  </g>
  <g id="axes_1">
   <g id="patch_2">
    <path d="M 22.4 402.4 
L 554.4 402.4 
L 554.4 22.4 
L 22.4 22.4 
L 22.4 402.4 
z
" clip-path="url(#p4fd127c6a9)" style="fill: none; opacity: 0.8; stroke: #ffffff; stroke-width: 2; stroke-linejoin: miter"/>
   </g>
   <g id="patch_3">
    <path d="M 212.4 364.4 
C 252.710871 364.4 291.37614 348.384321 319.880231 319.880231 
C 348.384321 291.37614 364.4 252.710871 364.4 212.4 
C 364.4 172.089129 348.384321 133.42386 319.880231 104.919769 
C 291.37614 76.415679 252.710871 60.4 212.4 60.4 
C 172.089129 60.4 133.42386 76.415679 104.919769 104.919769 
C 76.415679 133.42386 60.4 172.089129 60.4 212.4 
C 60.4 252.710871 76.415679 291.37614 104.919769 319.880231 
C 133.42386 348.384321 172.089129 364.4 212.4 364.4 
z
" clip-path="url(#p4fd127c6a9)" style="fill: #12a4d9; opacity: 0.5; stroke: #ffffff; stroke-width: 2; stroke-linejoin: miter"/>
   </g>
   <g id="patch_4">
    <path d="M 364.4 364.4 
C 404.710871 364.4 443.37614 348.384321 471.880231 319.880231 
C 500.384321 291.37614 516.4 252.710871 516.4 212.4 
C 516.4 172.089129 500.384321 133.42386 471.880231 104.919769 
C 443.37614 76.415679 404.710871 60.4 364.4 60.4 
C 324.089129 60.4 285.42386 76.415679 256.919769 104.919769 
C 228.415679 133.42386 212.4 172.089129 212.4 212.4 
C 212.4 252.710871 228.415679 291.37614 256.919769 319.880231 
C 285.42386 348.384321 324.089129 364.4 364.4 364.4 
z
" clip-path="url(#p4fd127c6a9)" style="fill: #b83a4b; opacity: 0.5; stroke: #ffffff; stroke-width: 2; stroke-linejoin: miter"/>
   </g>
   <g id="text_1">
    <!-- $A$ -->
    <g style="fill: #ffffff" transform="translate(159.21 218.087344)">
     <text>
      <tspan style="font: oblique 22px 'DejaVu Sans'" x="0" y="-0.96875">A</tspan>
     </text>
    </g>
   </g>
   <g id="text_2">
    <!-- $B$ -->
    <g style="fill: #ffffff" transform="translate(402.41 218.087344)">
     <text>
      <tspan style="font: oblique 22px 'DejaVu Sans'" x="0" y="-0.96875">B</tspan>
     </text>
    </g>
   </g>
   <g id="text_3">
    <!-- $A \cap B$ -->
    <g style="fill: #ffffff" transform="translate(260.9 218.087344)">
     <text>
      <tspan style="font: oblique 22px 'DejaVu Sans'" x="0 39.724609" y="-0.96875">AB</tspan>
      <tspan style="font: 22px 'DejaVu Sans'" x="19.335938" y="-0.96875">∩</tspan>
     </text>
    </g>
   </g>
   <g id="text_4">
    <!-- $\Omega$ -->
    <g style="fill: #ffffff" transform="translate(45.2 364.4)">
     <text>
      <tspan style="font: 20px 'DejaVu Sans'" x="0" y="-0.25">Ω</tspan>
     </text>
    </g>
   </g>
  </g>
 </g>
 <defs>
  <clipPath id="p4fd127c6a9">
   <rect x="7.2" y="7.2" width="562.4" height="410.4"/>
  </clipPath>
 </defs>
</svg>
