<svg xmlns="http://www.w3.org/2000/svg" width="816" height="1056">
<circle cx="411" cy="457" r="20" fill="#FFFFFF" fill-opacity="0.67"/>
<circle cx="486" cy="590" r="8" fill="#FFFFFF" fill-opacity="0.9"/>
<circle cx="262" cy="788" r="14" fill="#FFFFFF" fill-opacity="0.32"/>
<circle cx="420" cy="817" r="15" fill="#FFFFFF" fill-opacity="0.97"/>
<circle cx="321" cy="802" r="16" fill="#FFFFFF" fill-opacity="0.74"/>
<circle cx="508" cy="277" r="10" fill="#FFFFFF" fill-opacity="0.66"/>
<circle cx="567" cy="812" r="17" fill="#FFFFFF" fill-opacity="0.73"/>
<circle cx="85" cy="758" r="6" fill="#FFFFFF" fill-opacity="0.36"/>
<circle cx="367" cy="782" r="10" fill="#FFFFFF" fill-opacity="0.8"/>
<circle cx="117" cy="773" r="6" fill="#FFFFFF" fill-opacity="0.51"/>
<circle cx="327" cy="614" r="7" fill="#FFFFFF" fill-opacity="0.91"/>
<circle cx="276" cy="582" r="7" fill="#FFFFFF" fill-opacity="0.65"/>
<circle cx="287" cy="229" r="18" fill="#FFFFFF" fill-opacity="0.66"/>
<circle cx="527" cy="424" r="20" fill="#FFFFFF" fill-opacity="0.9"/>
<circle cx="682" cy="455" r="7" fill="#FFFFFF" fill-opacity="0.85"/>
<circle cx="404" cy="186" r="6" fill="#FFFFFF" fill-opacity="0.66"/>
<circle cx="558" cy="566" r="17" fill="#FFFFFF" fill-opacity="0.32"/>
<circle cx="508" cy="213" r="15" fill="#FFFFFF" fill-opacity="0.77"/>
<circle cx="767" cy="645" r="16" fill="#FFFFFF" fill-opacity="0.33"/>
<circle cx="346" cy="624" r="10" fill="#FFFFFF" fill-opacity="0.87"/>
<circle cx="492" cy="284" r="5" fill="#FFFFFF" fill-opacity="0.96"/>
<circle cx="304" cy="487" r="9" fill="#FFFFFF" fill-opacity="0.82"/>
<circle cx="471" cy="464" r="12" fill="#FFFFFF" fill-opacity="0.51"/>
<circle cx="501" cy="400" r="9" fill="#FFFFFF" fill-opacity="0.98"/>
<circle cx="572" cy="666" r="11" fill="#FFFFFF" fill-opacity="0.26"/>
<circle cx="179" cy="446" r="10" fill="#FFFFFF" fill-opacity="0.97"/>
<circle cx="153" cy="335" r="20" fill="#FFFFFF" fill-opacity="0.33"/>
<circle cx="113" cy="572" r="14" fill="#FFFFFF" fill-opacity="0.64"/>
<circle cx="439" cy="629" r="6" fill="#FFFFFF" fill-opacity="0.83"/>
<circle cx="242" cy="420" r="6" fill="#FFFFFF" fill-opacity="0.81"/>
<circle cx="668" cy="420" r="18" fill="#FFFFFF" fill-opacity="0.31"/>
<circle cx="339" cy="220" r="6" fill="#FFFFFF" fill-opacity="0.28"/>
<circle cx="477" cy="225" r="15" fill="#FFFFFF" fill-opacity="0.83"/>
<circle cx="502" cy="469" r="6" fill="#FFFFFF" fill-opacity="0.44"/>
<circle cx="79" cy="599" r="5" fill="#FFFFFF" fill-opacity="0.64"/>
<circle cx="207" cy="421" r="19" fill="#FFFFFF" fill-opacity="0.26"/>
<circle cx="708" cy="485" r="16" fill="#FFFFFF" fill-opacity="0.45"/>
<circle cx="389" cy="845" r="15" fill="#FFFFFF" fill-opacity="0.69"/>
<circle cx="68" cy="537" r="13" fill="#FFFFFF" fill-opacity="0.88"/>
<circle cx="419" cy="244" r="8" fill="#FFFFFF" fill-opacity="0.87"/>
<circle cx="629" cy="587" r="18" fill="#FFFFFF" fill-opacity="0.57"/>
<circle cx="507" cy="626" r="9" fill="#FFFFFF" fill-opacity="0.3"/>
<circle cx="704" cy="749" r="5" fill="#FFFFFF" fill-opacity="0.82"/>
<circle cx="319" cy="159" r="7" fill="#FFFFFF" fill-opacity="0.21"/>
<circle cx="717" cy="542" r="15" fill="#FFFFFF" fill-opacity="0.3"/>
<circle cx="709" cy="569" r="5" fill="#FFFFFF" fill-opacity="0.87"/>
<circle cx="384" cy="253" r="10" fill="#FFFFFF" fill-opacity="0.22"/>
<circle cx="432" cy="251" r="6" fill="#FFFFFF" fill-opacity="0.38"/>
<circle cx="246" cy="437" r="9" fill="#FFFFFF" fill-opacity="0.87"/>
<circle cx="577" cy="582" r="7" fill="#FFFFFF" fill-opacity="0.79"/>
<circle cx="342" cy="742" r="20" fill="#FFFFFF" fill-opacity="0.22"/>
<circle cx="435" cy="188" r="12" fill="#FFFFFF" fill-opacity="0.46"/>
<circle cx="607" cy="628" r="12" fill="#FFFFFF" fill-opacity="0.78"/>
<circle cx="645" cy="647" r="7" fill="#FFFFFF" fill-opacity="0.44"/>
<circle cx="621" cy="402" r="19" fill="#FFFFFF" fill-opacity="0.96"/>
<circle cx="620" cy="804" r="13" fill="#FFFFFF" fill-opacity="0.82"/>
<circle cx="560" cy="620" r="8" fill="#FFFFFF" fill-opacity="0.69"/>
<circle cx="352" cy="603" r="7" fill="#FFFFFF" fill-opacity="0.77"/>
<circle cx="486" cy="356" r="5" fill="#FFFFFF" fill-opacity="0.24"/>
<circle cx="83" cy="571" r="9" fill="#FFFFFF" fill-opacity="0.88"/>
<circle cx="210" cy="282" r="9" fill="#FFFFFF" fill-opacity="0.62"/>
<circle cx="58" cy="743" r="7" fill="#FFFFFF" fill-opacity="0.86"/>
<circle cx="233" cy="591" r="18" fill="#FFFFFF" fill-opacity="0.3"/>
<circle cx="633" cy="438" r="11" fill="#FFFFFF" fill-opacity="0.82"/>
<circle cx="579" cy="402" r="7" fill="#FFFFFF" fill-opacity="0.71"/>
<circle cx="424" cy="424" r="7" fill="#FFFFFF" fill-opacity="0.48"/>
<circle cx="194" cy="882" r="7" fill="#FFFFFF" fill-opacity="0.92"/>
<circle cx="252" cy="719" r="7" fill="#FFFFFF" fill-opacity="0.57"/>
<circle cx="667" cy="473" r="15" fill="#FFFFFF" fill-opacity="0.59"/>
<circle cx="63" cy="779" r="5" fill="#FFFFFF" fill-opacity="0.95"/>
<circle cx="584" cy="735" r="15" fill="#FFFFFF" fill-opacity="0.76"/>
<circle cx="455" cy="854" r="12" fill="#FFFFFF" fill-opacity="0.35"/>
<circle cx="107" cy="747" r="9" fill="#FFFFFF" fill-opacity="0.38"/>
<circle cx="581" cy="177" r="11" fill="#FFFFFF" fill-opacity="0.47"/>
<circle cx="193" cy="634" r="7" fill="#FFFFFF" fill-opacity="0.52"/>
<circle cx="195" cy="613" r="10" fill="#FFFFFF" fill-opacity="0.34"/>
<circle cx="479" cy="424" r="9" fill="#FFFFFF" fill-opacity="0.39"/>
<circle cx="150" cy="583" r="7" fill="#FFFFFF" fill-opacity="0.95"/>
<circle cx="111" cy="483" r="10" fill="#FFFFFF" fill-opacity="0.36"/>
<circle cx="166" cy="767" r="5" fill="#FFFFFF" fill-opacity="0.83"/>
<circle cx="469" cy="390" r="13" fill="#FFFFFF" fill-opacity="0.44"/>
<circle cx="139" cy="549" r="8" fill="#FFFFFF" fill-opacity="0.22"/>
<circle cx="551" cy="832" r="7" fill="#FFFFFF" fill-opacity="0.69"/>
<circle cx="222" cy="897" r="20" fill="#FFFFFF" fill-opacity="0.31"/>
<circle cx="104" cy="783" r="8" fill="#FFFFFF" fill-opacity="0.92"/>
<circle cx="482" cy="852" r="9" fill="#FFFFFF" fill-opacity="0.42"/>
<circle cx="779" cy="587" r="11" fill="#FFFFFF" fill-opacity="0.75"/>
<circle cx="233" cy="474" r="16" fill="#FFFFFF" fill-opacity="0.35"/>
<circle cx="341" cy="420" r="17" fill="#FFFFFF" fill-opacity="0.56"/>
<circle cx="720" cy="723" r="6" fill="#FFFFFF" fill-opacity="0.85"/>
<circle cx="282" cy="733" r="12" fill="#FFFFFF" fill-opacity="0.88"/>
<circle cx="116" cy="619" r="15" fill="#FFFFFF" fill-opacity="0.3"/>
<circle cx="324" cy="563" r="12" fill="#FFFFFF" fill-opacity="0.51"/>
<circle cx="82" cy="509" r="6" fill="#FFFFFF" fill-opacity="0.22"/>
<circle cx="384" cy="614" r="11" fill="#FFFFFF" fill-opacity="0.58"/>
<circle cx="197" cy="558" r="16" fill="#FFFFFF" fill-opacity="0.99"/>
<circle cx="67" cy="499" r="5" fill="#FFFFFF" fill-opacity="0.62"/>
<circle cx="496" cy="789" r="5" fill="#FFFFFF" fill-opacity="0.77"/>
<circle cx="564" cy="416" r="12" fill="#FFFFFF" fill-opacity="0.44"/>
<circle cx="623" cy="650" r="5" fill="#FFFFFF" fill-opacity="0.3"/>
<circle cx="245" cy="745" r="18" fill="#FFFFFF" fill-opacity="0.46"/>
<circle cx="482" cy="822" r="16" fill="#FFFFFF" fill-opacity="0.49"/>
<circle cx="519" cy="849" r="9" fill="#FFFFFF" fill-opacity="0.69"/>
<circle cx="415" cy="567" r="7" fill="#FFFFFF" fill-opacity="0.49"/>
<circle cx="304" cy="579" r="11" fill="#FFFFFF" fill-opacity="0.78"/>
<circle cx="172" cy="737" r="6" fill="#FFFFFF" fill-opacity="0.52"/>
<circle cx="364" cy="199" r="14" fill="#FFFFFF" fill-opacity="0.6"/>
<circle cx="460" cy="613" r="18" fill="#FFFFFF" fill-opacity="0.93"/>
<circle cx="565" cy="709" r="6" fill="#FFFFFF" fill-opacity="0.5"/>
<circle cx="259" cy="460" r="13" fill="#FFFFFF" fill-opacity="0.63"/>
<circle cx="200" cy="648" r="7" fill="#FFFFFF" fill-opacity="0.36"/>
<circle cx="674" cy="769" r="16" fill="#FFFFFF" fill-opacity="0.71"/>
<circle cx="757" cy="565" r="10" fill="#FFFFFF" fill-opacity="0.68"/>
<circle cx="391" cy="574" r="16" fill="#FFFFFF" fill-opacity="0.58"/>
<circle cx="754" cy="530" r="18" fill="#FFFFFF" fill-opacity="0.81"/>
<circle cx="480" cy="444" r="7" fill="#FFFFFF" fill-opacity="0.85"/>
<circle cx="98" cy="431" r="20" fill="#FFFFFF" fill-opacity="0.26"/>
<circle cx="150" cy="397" r="15" fill="#FFFFFF" fill-opacity="0.39"/>
<circle cx="591" cy="699" r="10" fill="#FFFFFF" fill-opacity="0.6"/>
<circle cx="581" cy="550" r="11" fill="#FFFFFF" fill-opacity="0.27"/>
<circle cx="150" cy="426" r="13" fill="#FFFFFF" fill-opacity="0.24"/>
<circle cx="212" cy="366" r="7" fill="#FFFFFF" fill-opacity="0.87"/>
<circle cx="534" cy="286" r="5" fill="#FFFFFF" fill-opacity="0.73"/>
<circle cx="588" cy="485" r="8" fill="#FFFFFF" fill-opacity="0.94"/>
<circle cx="501" cy="843" r="7" fill="#FFFFFF" fill-opacity="0.54"/>
<circle cx="138" cy="733" r="8" fill="#FFFFFF" fill-opacity="0.51"/>
<circle cx="175" cy="901" r="15" fill="#FFFFFF" fill-opacity="0.76"/>
<circle cx="464" cy="427" r="6" fill="#FFFFFF" fill-opacity="0.6"/>
<circle cx="161" cy="709" r="15" fill="#FFFFFF" fill-opacity="0.79"/>
<circle cx="366" cy="167" r="17" fill="#FFFFFF" fill-opacity="0.58"/>
<circle cx="170" cy="383" r="8" fill="#FFFFFF" fill-opacity="0.45"/>
<circle cx="508" cy="759" r="17" fill="#FFFFFF" fill-opacity="0.37"/>
<circle cx="263" cy="612" r="11" fill="#FFFFFF" fill-opacity="0.27"/>
<circle cx="584" cy="627" r="11" fill="#FFFFFF" fill-opacity="0.91"/>
<circle cx="208" cy="759" r="12" fill="#FFFFFF" fill-opacity="0.71"/>
<circle cx="387" cy="212" r="7" fill="#FFFFFF" fill-opacity="0.85"/>
<circle cx="228" cy="451" r="5" fill="#FFFFFF" fill-opacity="0.28"/>
<circle cx="370" cy="809" r="15" fill="#FFFFFF" fill-opacity="0.63"/>
<circle cx="613" cy="450" r="7" fill="#FFFFFF" fill-opacity="0.84"/>
<circle cx="189" cy="322" r="14" fill="#FFFFFF" fill-opacity="0.52"/>
<circle cx="245" cy="867" r="6" fill="#FFFFFF" fill-opacity="0.96"/>
<circle cx="282" cy="187" r="20" fill="#FFFFFF" fill-opacity="0.75"/>
<circle cx="380" cy="414" r="12" fill="#FFFFFF" fill-opacity="0.25"/>
<circle cx="714" cy="461" r="5" fill="#FFFFFF" fill-opacity="0.31"/>
<circle cx="302" cy="863" r="5" fill="#FFFFFF" fill-opacity="0.72"/>
<circle cx="377" cy="509" r="17" fill="#FFFFFF" fill-opacity="0.57"/>
<circle cx="303" cy="455" r="13" fill="#FFFFFF" fill-opacity="0.27"/>
<circle cx="301" cy="611" r="11" fill="#FFFFFF" fill-opacity="0.77"/>
<circle cx="231" cy="265" r="16" fill="#FFFFFF" fill-opacity="0.31"/>
<circle cx="556" cy="744" r="14" fill="#FFFFFF" fill-opacity="0.32"/>
<circle cx="308" cy="642" r="6" fill="#FFFFFF" fill-opacity="0.69"/>
<circle cx="540" cy="465" r="17" fill="#FFFFFF" fill-opacity="0.95"/>
<circle cx="279" cy="649" r="5" fill="#FFFFFF" fill-opacity="0.69"/>
<circle cx="241" cy="560" r="14" fill="#FFFFFF" fill-opacity="0.75"/>
<circle cx="405" cy="235" r="5" fill="#FFFFFF" fill-opacity="0.91"/>
<circle cx="234" cy="772" r="5" fill="#FFFFFF" fill-opacity="0.81"/>
<circle cx="94" cy="500" r="6" fill="#FFFFFF" fill-opacity="0.54"/>
<circle cx="714" cy="696" r="18" fill="#FFFFFF" fill-opacity="1.0"/>
<circle cx="413" cy="769" r="12" fill="#FFFFFF" fill-opacity="0.29"/>
<circle cx="446" cy="797" r="14" fill="#FFFFFF" fill-opacity="0.74"/>
<circle cx="93" cy="616" r="6" fill="#FFFFFF" fill-opacity="0.8"/>
<circle cx="212" cy="723" r="19" fill="#FFFFFF" fill-opacity="0.29"/>
<circle cx="467" cy="291" r="12" fill="#FFFFFF" fill-opacity="0.43"/>
<circle cx="145" cy="631" r="13" fill="#FFFFFF" fill-opacity="0.55"/>
<circle cx="67" cy="880" r="20" fill="#FFFFFF" fill-opacity="0.74"/>
<circle cx="67" cy="829" r="19" fill="#FFFFFF" fill-opacity="0.91"/>
<circle cx="123" cy="525" r="18" fill="#FFFFFF" fill-opacity="0.73"/>
<circle cx="171" cy="607" r="5" fill="#FFFFFF" fill-opacity="1.0"/>
<circle cx="388" cy="754" r="15" fill="#FFFFFF" fill-opacity="0.56"/>
<circle cx="358" cy="552" r="19" fill="#FFFFFF" fill-opacity="0.77"/>
<circle cx="140" cy="790" r="19" fill="#FFFFFF" fill-opacity="0.34"/>
<circle cx="776" cy="569" r="6" fill="#FFFFFF" fill-opacity="0.41"/>
<circle cx="213" cy="635" r="9" fill="#FFFFFF" fill-opacity="0.73"/>
<circle cx="621" cy="696" r="12" fill="#FFFFFF" fill-opacity="0.94"/>
<circle cx="267" cy="414" r="8" fill="#FFFFFF" fill-opacity="0.24"/>
<circle cx="627" cy="621" r="9" fill="#FFFFFF" fill-opacity="0.46"/>
<circle cx="183" cy="780" r="7" fill="#FFFFFF" fill-opacity="0.77"/>
<circle cx="92" cy="471" r="6" fill="#FFFFFF" fill-opacity="0.21"/>
<circle cx="299" cy="786" r="8" fill="#FFFFFF" fill-opacity="0.71"/>
<circle cx="304" cy="671" r="5" fill="#FFFFFF" fill-opacity="0.71"/>
<circle cx="538" cy="841" r="5" fill="#FFFFFF" fill-opacity="0.31"/>
<circle cx="50" cy="565" r="6" fill="#FFFFFF" fill-opacity="0.96"/>
<circle cx="705" cy="433" r="9" fill="#FFFFFF" fill-opacity="0.93"/>
<circle cx="209" cy="619" r="5" fill="#FFFFFF" fill-opacity="0.74"/>
<circle cx="136" cy="571" r="5" fill="#FFFFFF" fill-opacity="0.89"/>
<circle cx="180" cy="295" r="8" fill="#FFFFFF" fill-opacity="0.54"/>
<circle cx="244" cy="619" r="7" fill="#FFFFFF" fill-opacity="0.5"/>
<circle cx="247" cy="233" r="5" fill="#FFFFFF" fill-opacity="0.78"/>
<circle cx="699" cy="463" r="7" fill="#FFFFFF" fill-opacity="0.59"/>
<circle cx="457" cy="445" r="9" fill="#FFFFFF" fill-opacity="0.55"/>
<circle cx="476" cy="339" r="11" fill="#FFFFFF" fill-opacity="0.29"/>
<circle cx="751" cy="698" r="9" fill="#FFFFFF" fill-opacity="0.56"/>
<circle cx="282" cy="872" r="13" fill="#FFFFFF" fill-opacity="0.49"/>
<circle cx="684" cy="728" r="11" fill="#FFFFFF" fill-opacity="0.8"/>
<circle cx="53" cy="549" r="6" fill="#FFFFFF" fill-opacity="0.67"/>
<circle cx="230" cy="795" r="16" fill="#FFFFFF" fill-opacity="0.65"/>
<circle cx="649" cy="622" r="7" fill="#FFFFFF" fill-opacity="0.32"/>
<circle cx="354" cy="231" r="9" fill="#FFFFFF" fill-opacity="0.83"/>
<circle cx="233" cy="396" r="11" fill="#FFFFFF" fill-opacity="0.96"/>
<circle cx="465" cy="247" r="9" fill="#FFFFFF" fill-opacity="0.32"/>
<circle cx="188" cy="392" r="5" fill="#FFFFFF" fill-opacity="0.66"/>
<circle cx="790" cy="547" r="10" fill="#FFFFFF" fill-opacity="0.27"/>
<circle cx="180" cy="475" r="8" fill="#FFFFFF" fill-opacity="0.91"/>
<circle cx="549" cy="637" r="12" fill="#FFFFFF" fill-opacity="0.92"/>
<circle cx="298" cy="692" r="14" fill="#FFFFFF" fill-opacity="0.21"/>
<circle cx="317" cy="211" r="14" fill="#FFFFFF" fill-opacity="0.57"/>
<circle cx="251" cy="636" r="5" fill="#FFFFFF" fill-opacity="0.98"/>
<circle cx="557" cy="205" r="18" fill="#FFFFFF" fill-opacity="0.83"/>
<circle cx="418" cy="617" r="9" fill="#FFFFFF" fill-opacity="0.52"/>
<circle cx="528" cy="822" r="12" fill="#FFFFFF" fill-opacity="0.89"/>
<circle cx="521" cy="585" r="12" fill="#FFFFFF" fill-opacity="0.99"/>
<circle cx="532" cy="541" r="11" fill="#FFFFFF" fill-opacity="0.81"/>
<circle cx="653" cy="634" r="5" fill="#FFFFFF" fill-opacity="0.8"/>
<circle cx="129" cy="886" r="12" fill="#FFFFFF" fill-opacity="0.62"/>
<circle cx="180" cy="358" r="13" fill="#FFFFFF" fill-opacity="0.68"/>
<circle cx="429" cy="850" r="8" fill="#FFFFFF" fill-opacity="0.31"/>
<circle cx="740" cy="477" r="13" fill="#FFFFFF" fill-opacity="0.75"/>
<circle cx="167" cy="568" r="7" fill="#FFFFFF" fill-opacity="0.69"/>
<circle cx="628" cy="487" r="6" fill="#FFFFFF" fill-opacity="0.54"/>
<circle cx="292" cy="412" r="7" fill="#FFFFFF" fill-opacity="0.45"/>
<circle cx="684" cy="495" r="6" fill="#FFFFFF" fill-opacity="1.0"/>
<circle cx="637" cy="781" r="15" fill="#FFFFFF" fill-opacity="0.63"/>
<circle cx="436" cy="402" r="11" fill="#FFFFFF" fill-opacity="0.49"/>
<circle cx="405" cy="266" r="12" fill="#FFFFFF" fill-opacity="0.76"/>
<circle cx="746" cy="591" r="18" fill="#FFFFFF" fill-opacity="0.63"/>
<circle cx="441" cy="221" r="11" fill="#FFFFFF" fill-opacity="0.9"/>
<circle cx="441" cy="573" r="7" fill="#FFFFFF" fill-opacity="0.25"/>
<circle cx="391" cy="182" r="5" fill="#FFFFFF" fill-opacity="0.29"/>
<circle cx="724" cy="664" r="13" fill="#FFFFFF" fill-opacity="0.39"/>
<circle cx="301" cy="763" r="5" fill="#FFFFFF" fill-opacity="0.31"/>
<circle cx="367" cy="453" r="6" fill="#FFFFFF" fill-opacity="0.62"/>
<circle cx="577" cy="601" r="12" fill="#FFFFFF" fill-opacity="0.35"/>
<circle cx="609" cy="670" r="9" fill="#FFFFFF" fill-opacity="0.94"/>
<circle cx="345" cy="451" r="14" fill="#FFFFFF" fill-opacity="0.36"/>
<circle cx="439" cy="433" r="6" fill="#FFFFFF" fill-opacity="0.94"/>
<circle cx="744" cy="647" r="6" fill="#FFFFFF" fill-opacity="0.3"/>
<circle cx="503" cy="553" r="10" fill="#FFFFFF" fill-opacity="0.5"/>
<circle cx="318" cy="405" r="8" fill="#FFFFFF" fill-opacity="0.77"/>
<circle cx="506" cy="880" r="20" fill="#FFFFFF" fill-opacity="0.39"/>
<circle cx="131" cy="599" r="7" fill="#FFFFFF" fill-opacity="0.54"/>
<circle cx="596" cy="587" r="11" fill="#FFFFFF" fill-opacity="0.38"/>
<circle cx="409" cy="489" r="7" fill="#FFFFFF" fill-opacity="0.49"/>
<circle cx="58" cy="483" r="6" fill="#FFFFFF" fill-opacity="0.69"/>
<circle cx="439" cy="769" r="8" fill="#FFFFFF" fill-opacity="0.36"/>
<circle cx="699" cy="451" r="5" fill="#FFFFFF" fill-opacity="0.79"/>
<circle cx="187" cy="746" r="8" fill="#FFFFFF" fill-opacity="0.64"/>
<circle cx="105" cy="726" r="5" fill="#FFFFFF" fill-opacity="0.8"/>
<circle cx="441" cy="828" r="7" fill="#FFFFFF" fill-opacity="0.49"/>
<circle cx="599" cy="830" r="19" fill="#FFFFFF" fill-opacity="0.7"/>
<circle cx="395" cy="229" r="6" fill="#FFFFFF" fill-opacity="0.25"/>
<circle cx="456" cy="414" r="6" fill="#FFFFFF" fill-opacity="0.51"/>
<circle cx="38" cy="765" r="6" fill="#FFFFFF" fill-opacity="0.65"/>
<circle cx="414" cy="395" r="12" fill="#FFFFFF" fill-opacity="0.76"/>
<circle cx="610" cy="470" r="6" fill="#FFFFFF" fill-opacity="0.84"/>
<circle cx="395" cy="801" r="11" fill="#FFFFFF" fill-opacity="0.92"/>
<circle cx="266" cy="645" r="6" fill="#FFFFFF" fill-opacity="0.8"/>
<circle cx="81" cy="793" r="10" fill="#FFFFFF" fill-opacity="0.61"/>
<circle cx="45" cy="853" r="6" fill="#FFFFFF" fill-opacity="0.71"/>
<circle cx="315" cy="740" r="7" fill="#FFFFFF" fill-opacity="0.91"/>
<circle cx="361" cy="474" r="7" fill="#FFFFFF" fill-opacity="0.86"/>
<circle cx="597" cy="430" r="5" fill="#FFFFFF" fill-opacity="0.35"/>
<circle cx="266" cy="567" r="11" fill="#FFFFFF" fill-opacity="0.47"/>
<circle cx="602" cy="439" r="5" fill="#FFFFFF" fill-opacity="0.21"/>
<circle cx="644" cy="665" r="7" fill="#FFFFFF" fill-opacity="0.77"/>
<circle cx="471" cy="573" r="8" fill="#FFFFFF" fill-opacity="0.59"/>
<circle cx="522" cy="610" r="12" fill="#FFFFFF" fill-opacity="0.72"/>
<circle cx="369" cy="595" r="8" fill="#FFFFFF" fill-opacity="0.36"/>
<circle cx="196" cy="269" r="8" fill="#FFFFFF" fill-opacity="0.43"/>
<circle cx="180" cy="414" r="5" fill="#FFFFFF" fill-opacity="0.95"/>
<circle cx="561" cy="391" r="13" fill="#FFFFFF" fill-opacity="0.84"/>
<circle cx="720" cy="595" r="5" fill="#FFFFFF" fill-opacity="0.62"/>
<circle cx="470" cy="784" r="8" fill="#FFFFFF" fill-opacity="0.84"/>
<circle cx="343" cy="855" r="11" fill="#FFFFFF" fill-opacity="0.7"/>
<circle cx="466" cy="203" r="6" fill="#FFFFFF" fill-opacity="0.38"/>
<circle cx="129" cy="422" r="6" fill="#FFFFFF" fill-opacity="0.63"/>
<circle cx="79" cy="742" r="7" fill="#FFFFFF" fill-opacity="0.21"/>
<circle cx="97" cy="539" r="7" fill="#FFFFFF" fill-opacity="0.85"/>
<circle cx="605" cy="554" r="11" fill="#FFFFFF" fill-opacity="1.0"/>
<circle cx="311" cy="847" r="6" fill="#FFFFFF" fill-opacity="0.29"/>
<circle cx="529" cy="730" r="8" fill="#FFFFFF" fill-opacity="0.86"/>
<circle cx="276" cy="445" r="8" fill="#FFFFFF" fill-opacity="0.58"/>
<circle cx="120" cy="717" r="5" fill="#FFFFFF" fill-opacity="0.95"/>
<circle cx="734" cy="625" r="13" fill="#FFFFFF" fill-opacity="0.28"/>
<circle cx="294" cy="560" r="10" fill="#FFFFFF" fill-opacity="0.96"/>
<circle cx="449" cy="553" r="5" fill="#FFFFFF" fill-opacity="0.87"/>
<circle cx="303" cy="402" r="5" fill="#FFFFFF" fill-opacity="0.37"/>
<circle cx="295" cy="851" r="7" fill="#FFFFFF" fill-opacity="0.21"/>
<circle cx="258" cy="884" r="5" fill="#FFFFFF" fill-opacity="0.8"/>
<circle cx="283" cy="603" r="7" fill="#FFFFFF" fill-opacity="0.93"/>
<circle cx="126" cy="903" r="5" fill="#FFFFFF" fill-opacity="0.97"/>
<circle cx="448" cy="264" r="13" fill="#FFFFFF" fill-opacity="0.7"/>
<circle cx="290" cy="633" r="7" fill="#FFFFFF" fill-opacity="0.97"/>
<circle cx="474" cy="366" r="6" fill="#FFFFFF" fill-opacity="0.33"/>
<circle cx="339" cy="579" r="5" fill="#FFFFFF" fill-opacity="0.91"/>
<circle cx="174" cy="557" r="5" fill="#FFFFFF" fill-opacity="0.38"/>
<circle cx="594" cy="400" r="8" fill="#FFFFFF" fill-opacity="0.97"/>
<circle cx="37" cy="801" r="5" fill="#FFFFFF" fill-opacity="0.96"/>
<circle cx="578" cy="845" r="5" fill="#FFFFFF" fill-opacity="0.62"/>
<circle cx="276" cy="494" r="11" fill="#FFFFFF" fill-opacity="0.26"/>
<circle cx="47" cy="784" r="10" fill="#FFFFFF" fill-opacity="0.65"/>
<circle cx="735" cy="719" r="5" fill="#FFFFFF" fill-opacity="0.79"/>
<circle cx="146" cy="605" r="5" fill="#FFFFFF" fill-opacity="0.61"/>
<circle cx="322" cy="438" r="7" fill="#FFFFFF" fill-opacity="0.35"/>
<circle cx="457" cy="562" r="6" fill="#FFFFFF" fill-opacity="0.32"/>
<circle cx="325" cy="236" r="10" fill="#FFFFFF" fill-opacity="0.32"/>
<circle cx="494" cy="568" r="6" fill="#FFFFFF" fill-opacity="0.37"/>
<circle cx="587" cy="656" r="7" fill="#FFFFFF" fill-opacity="0.65"/>
<circle cx="106" cy="464" r="5" fill="#FFFFFF" fill-opacity="0.95"/>
<circle cx="327" cy="774" r="10" fill="#FFFFFF" fill-opacity="0.56"/>
<circle cx="624" cy="463" r="6" fill="#FFFFFF" fill-opacity="0.92"/>
<circle cx="325" cy="177" r="11" fill="#FFFFFF" fill-opacity="0.62"/>
<circle cx="327" cy="835" r="10" fill="#FFFFFF" fill-opacity="0.56"/>
<circle cx="239" cy="640" r="6" fill="#FFFFFF" fill-opacity="0.3"/>
<circle cx="576" cy="453" r="9" fill="#FFFFFF" fill-opacity="0.93"/>
<circle cx="517" cy="792" r="14" fill="#FFFFFF" fill-opacity="0.37"/>
<circle cx="270" cy="704" r="6" fill="#FFFFFF" fill-opacity="0.56"/>
<circle cx="440" cy="449" r="5" fill="#FFFFFF" fill-opacity="0.85"/>
<circle cx="519" cy="238" r="12" fill="#FFFFFF" fill-opacity="0.63"/>
<circle cx="413" cy="196" r="6" fill="#FFFFFF" fill-opacity="0.93"/>
<circle cx="471" cy="541" r="10" fill="#FFFFFF" fill-opacity="0.94"/>
<circle cx="471" cy="801" r="7" fill="#FFFFFF" fill-opacity="0.7"/>
<circle cx="155" cy="457" r="15" fill="#FFFFFF" fill-opacity="0.52"/>
<circle cx="352" cy="839" r="5" fill="#FFFFFF" fill-opacity="0.5"/>
<circle cx="509" cy="813" r="7" fill="#FFFFFF" fill-opacity="0.4"/>
<circle cx="596" cy="415" r="5" fill="#FFFFFF" fill-opacity="0.51"/>
<circle cx="254" cy="396" r="7" fill="#FFFFFF" fill-opacity="0.52"/>
<circle cx="687" cy="525" r="8" fill="#FFFFFF" fill-opacity="0.57"/>
<circle cx="550" cy="856" r="6" fill="#FFFFFF" fill-opacity="0.92"/>
<circle cx="642" cy="481" r="9" fill="#FFFFFF" fill-opacity="0.2"/>
<circle cx="49" cy="501" r="9" fill="#FFFFFF" fill-opacity="0.78"/>
<circle cx="266" cy="720" r="7" fill="#FFFFFF" fill-opacity="0.84"/>
<circle cx="386" cy="552" r="5" fill="#FFFFFF" fill-opacity="0.45"/>
<circle cx="69" cy="510" r="6" fill="#FFFFFF" fill-opacity="0.37"/>
<circle cx="417" cy="596" r="5" fill="#FFFFFF" fill-opacity="0.3"/>
<circle cx="500" cy="453" r="6" fill="#FFFFFF" fill-opacity="0.68"/>
<circle cx="309" cy="595" r="5" fill="#FFFFFF" fill-opacity="0.65"/>
<circle cx="195" cy="585" r="11" fill="#FFFFFF" fill-opacity="0.57"/>
<circle cx="54" cy="802" r="7" fill="#FFFFFF" fill-opacity="0.86"/>
<circle cx="367" cy="637" r="14" fill="#FFFFFF" fill-opacity="0.31"/>
<circle cx="98" cy="888" r="6" fill="#FFFFFF" fill-opacity="0.81"/>
<circle cx="514" cy="391" r="5" fill="#FFFFFF" fill-opacity="0.91"/>
<circle cx="34" cy="836" r="11" fill="#FFFFFF" fill-opacity="0.95"/>
<circle cx="278" cy="765" r="10" fill="#FFFFFF" fill-opacity="0.25"/>
<circle cx="756" cy="675" r="12" fill="#FFFFFF" fill-opacity="0.83"/>
<circle cx="232" cy="235" r="7" fill="#FFFFFF" fill-opacity="0.99"/>
<circle cx="64" cy="591" r="11" fill="#FFFFFF" fill-opacity="0.66"/>
<circle cx="397" cy="639" r="5" fill="#FFFFFF" fill-opacity="0.96"/>
<circle cx="346" cy="782" r="7" fill="#FFFFFF" fill-opacity="0.73"/>
<circle cx="487" cy="261" r="13" fill="#FFFFFF" fill-opacity="0.7"/>
<circle cx="543" cy="266" r="13" fill="#FFFFFF" fill-opacity="0.35"/>
<circle cx="662" cy="516" r="9" fill="#FFFFFF" fill-opacity="0.9"/>
<circle cx="762" cy="497" r="15" fill="#FFFFFF" fill-opacity="0.22"/>
<circle cx="729" cy="510" r="9" fill="#FFFFFF" fill-opacity="0.24"/>
<circle cx="310" cy="427" r="7" fill="#FFFFFF" fill-opacity="0.25"/>
<circle cx="341" cy="486" r="7" fill="#FFFFFF" fill-opacity="0.67"/>
<circle cx="253" cy="215" r="7" fill="#FFFFFF" fill-opacity="0.59"/>
<circle cx="779" cy="620" r="9" fill="#FFFFFF" fill-opacity="0.75"/>
<circle cx="419" cy="227" r="8" fill="#FFFFFF" fill-opacity="1.0"/>
<circle cx="564" cy="688" r="6" fill="#FFFFFF" fill-opacity="0.72"/>
<circle cx="143" cy="369" r="8" fill="#FFFFFF" fill-opacity="0.33"/>
<circle cx="519" cy="303" r="8" fill="#FFFFFF" fill-opacity="0.43"/>
<circle cx="133" cy="761" r="7" fill="#FFFFFF" fill-opacity="0.45"/>
<circle cx="535" cy="565" r="5" fill="#FFFFFF" fill-opacity="0.65"/>
<circle cx="352" cy="825" r="9" fill="#FFFFFF" fill-opacity="0.68"/>
<circle cx="207" cy="300" r="9" fill="#FFFFFF" fill-opacity="0.48"/>
<circle cx="575" cy="645" r="8" fill="#FFFFFF" fill-opacity="0.21"/>
<circle cx="388" cy="475" r="7" fill="#FFFFFF" fill-opacity="0.55"/>
<circle cx="168" cy="410" r="6" fill="#FFFFFF" fill-opacity="0.96"/>
<circle cx="503" cy="340" r="15" fill="#FFFFFF" fill-opacity="0.81"/>
<circle cx="571" cy="477" r="6" fill="#FFFFFF" fill-opacity="0.89"/>
<circle cx="73" cy="461" r="5" fill="#FFFFFF" fill-opacity="0.74"/>
<circle cx="515" cy="257" r="5" fill="#FFFFFF" fill-opacity="0.86"/>
<circle cx="544" cy="603" r="11" fill="#FFFFFF" fill-opacity="0.3"/>
<circle cx="288" cy="801" r="8" fill="#FFFFFF" fill-opacity="0.34"/>
<circle cx="77" cy="774" r="6" fill="#FFFFFF" fill-opacity="0.22"/>
<circle cx="320" cy="470" r="9" fill="#FFFFFF" fill-opacity="0.44"/>
<circle cx="612" cy="485" r="5" fill="#FFFFFF" fill-opacity="0.63"/>
<circle cx="774" cy="549" r="6" fill="#FFFFFF" fill-opacity="0.3"/>
<circle cx="344" cy="797" r="5" fill="#FFFFFF" fill-opacity="0.94"/>
<circle cx="516" cy="475" r="5" fill="#FFFFFF" fill-opacity="0.86"/>
<circle cx="442" cy="243" r="6" fill="#FFFFFF" fill-opacity="0.64"/>
<circle cx="426" cy="784" r="7" fill="#FFFFFF" fill-opacity="0.47"/>
<circle cx="436" cy="601" r="5" fill="#FFFFFF" fill-opacity="0.57"/>
<circle cx="136" cy="712" r="10" fill="#FFFFFF" fill-opacity="0.76"/>
<circle cx="417" cy="580" r="5" fill="#FFFFFF" fill-opacity="0.37"/>
<circle cx="182" cy="717" r="7" fill="#FFFFFF" fill-opacity="0.82"/>
<circle cx="408" cy="425" r="5" fill="#FFFFFF" fill-opacity="0.68"/>
<circle cx="386" cy="784" r="7" fill="#FFFFFF" fill-opacity="0.7"/>
<circle cx="708" cy="731" r="7" fill="#FFFFFF" fill-opacity="0.92"/>
<circle cx="448" cy="817" r="5" fill="#FFFFFF" fill-opacity="0.61"/>
<circle cx="501" cy="308" r="10" fill="#FFFFFF" fill-opacity="0.34"/>
<circle cx="401" cy="407" r="5" fill="#FFFFFF" fill-opacity="0.61"/>
<circle cx="604" cy="573" r="5" fill="#FFFFFF" fill-opacity="0.56"/>
<circle cx="65" cy="760" r="5" fill="#FFFFFF" fill-opacity="0.67"/>
<circle cx="203" cy="781" r="10" fill="#FFFFFF" fill-opacity="0.33"/>
<circle cx="648" cy="763" r="5" fill="#FFFFFF" fill-opacity="0.43"/>
<circle cx="613" cy="608" r="6" fill="#FFFFFF" fill-opacity="0.49"/>
<circle cx="547" cy="713" r="11" fill="#FFFFFF" fill-opacity="0.31"/>
<circle cx="445" cy="468" r="12" fill="#FFFFFF" fill-opacity="0.98"/>
<circle cx="390" cy="437" r="8" fill="#FFFFFF" fill-opacity="0.24"/>
<circle cx="356" cy="586" r="7" fill="#FFFFFF" fill-opacity="0.95"/>
<circle cx="116" cy="595" r="6" fill="#FFFFFF" fill-opacity="0.74"/>
<circle cx="178" cy="642" r="6" fill="#FFFFFF" fill-opacity="0.57"/>
<circle cx="546" cy="800" r="6" fill="#FFFFFF" fill-opacity="0.45"/>
<circle cx="553" cy="234" r="10" fill="#FFFFFF" fill-opacity="0.46"/>
<circle cx="311" cy="661" r="7" fill="#FFFFFF" fill-opacity="0.43"/>
<circle cx="310" cy="771" r="7" fill="#FFFFFF" fill-opacity="0.96"/>
<circle cx="539" cy="401" r="5" fill="#FFFFFF" fill-opacity="0.55"/>
<circle cx="255" cy="253" r="5" fill="#FFFFFF" fill-opacity="0.35"/>
<circle cx="703" cy="507" r="5" fill="#FFFFFF" fill-opacity="0.84"/>
<circle cx="157" cy="603" r="5" fill="#FFFFFF" fill-opacity="0.61"/>
<circle cx="294" cy="751" r="7" fill="#FFFFFF" fill-opacity="0.52"/>
<circle cx="200" cy="462" r="11" fill="#FFFFFF" fill-opacity="0.37"/>
<circle cx="740" cy="560" r="7" fill="#FFFFFF" fill-opacity="0.97"/>
<circle cx="370" cy="223" r="6" fill="#FFFFFF" fill-opacity="0.99"/>
<circle cx="485" cy="301" r="6" fill="#FFFFFF" fill-opacity="0.3"/>
<circle cx="318" cy="864" r="11" fill="#FFFFFF" fill-opacity="0.83"/>
<circle cx="325" cy="587" r="5" fill="#FFFFFF" fill-opacity="0.52"/>
<circle cx="392" cy="195" r="5" fill="#FFFFFF" fill-opacity="0.96"/>
<circle cx="78" cy="482" r="8" fill="#FFFFFF" fill-opacity="0.64"/>
<circle cx="325" cy="630" r="9" fill="#FFFFFF" fill-opacity="0.22"/>
<circle cx="243" cy="409" r="5" fill="#FFFFFF" fill-opacity="0.29"/>
<circle cx="171" cy="753" r="5" fill="#FFFFFF" fill-opacity="0.98"/>
<circle cx="365" cy="836" r="6" fill="#FFFFFF" fill-opacity="0.69"/>
<circle cx="381" cy="233" r="5" fill="#FFFFFF" fill-opacity="0.74"/>
<circle cx="208" cy="485" r="9" fill="#FFFFFF" fill-opacity="0.36"/>
<circle cx="442" cy="205" r="5" fill="#FFFFFF" fill-opacity="0.34"/>
<circle cx="273" cy="685" r="7" fill="#FFFFFF" fill-opacity="0.39"/>
<circle cx="57" cy="514" r="5" fill="#FFFFFF" fill-opacity="0.86"/>
<circle cx="25" cy="814" r="11" fill="#FFFFFF" fill-opacity="0.69"/>
<circle cx="93" cy="589" r="6" fill="#FFFFFF" fill-opacity="0.42"/>
<circle cx="280" cy="400" r="9" fill="#FFFFFF" fill-opacity="0.53"/>
<circle cx="738" cy="684" r="6" fill="#FFFFFF" fill-opacity="0.24"/>
<circle cx="505" cy="250" r="5" fill="#FFFFFF" fill-opacity="0.58"/>
<circle cx="587" cy="572" r="6" fill="#FFFFFF" fill-opacity="0.7"/>
<circle cx="397" cy="820" r="5" fill="#FFFFFF" fill-opacity="0.56"/>
<circle cx="257" cy="492" r="6" fill="#FFFFFF" fill-opacity="0.95"/>
<circle cx="421" cy="555" r="6" fill="#FFFFFF" fill-opacity="0.98"/>
<circle cx="76" cy="520" r="5" fill="#FFFFFF" fill-opacity="0.75"/>
<circle cx="260" cy="228" r="6" fill="#FFFFFF" fill-opacity="0.79"/>
<circle cx="263" cy="866" r="6" fill="#FFFFFF" fill-opacity="0.8"/>
<circle cx="170" cy="591" r="10" fill="#FFFFFF" fill-opacity="0.74"/>
<circle cx="462" cy="363" r="6" fill="#FFFFFF" fill-opacity="0.39"/>
<circle cx="200" cy="351" r="5" fill="#FFFFFF" fill-opacity="0.92"/>
<circle cx="578" cy="194" r="5" fill="#FFFFFF" fill-opacity="0.9"/>
<circle cx="261" cy="204" r="6" fill="#FFFFFF" fill-opacity="0.73"/>
<circle cx="127" cy="446" r="8" fill="#FFFFFF" fill-opacity="0.52"/>
<circle cx="46" cy="530" r="5" fill="#FFFFFF" fill-opacity="0.95"/>
<circle cx="340" cy="155" r="8" fill="#FFFFFF" fill-opacity="0.33"/>
<circle cx="510" cy="829" r="5" fill="#FFFFFF" fill-opacity="0.35"/>
<circle cx="317" cy="759" r="5" fill="#FFFFFF" fill-opacity="0.32"/>
<circle cx="553" cy="441" r="10" fill="#FFFFFF" fill-opacity="0.45"/>
<circle cx="645" cy="497" r="7" fill="#FFFFFF" fill-opacity="0.53"/>
<circle cx="285" cy="712" r="7" fill="#FFFFFF" fill-opacity="0.53"/>
<circle cx="398" cy="501" r="5" fill="#FFFFFF" fill-opacity="0.71"/>
<circle cx="767" cy="606" r="6" fill="#FFFFFF" fill-opacity="0.83"/>
<circle cx="180" cy="620" r="5" fill="#FFFFFF" fill-opacity="0.95"/>
<circle cx="493" cy="426" r="5" fill="#FFFFFF" fill-opacity="0.42"/>
<circle cx="212" cy="390" r="7" fill="#FFFFFF" fill-opacity="0.26"/>
<circle cx="489" cy="539" r="5" fill="#FFFFFF" fill-opacity="0.37"/>
<circle cx="82" cy="728" r="6" fill="#FFFFFF" fill-opacity="0.87"/>
<circle cx="640" cy="677" r="5" fill="#FFFFFF" fill-opacity="0.97"/>
<circle cx="411" cy="752" r="5" fill="#FFFFFF" fill-opacity="0.21"/>
<circle cx="536" cy="759" r="9" fill="#FFFFFF" fill-opacity="0.68"/>
<circle cx="95" cy="771" r="5" fill="#FFFFFF" fill-opacity="0.8"/>
<circle cx="725" cy="448" r="7" fill="#FFFFFF" fill-opacity="0.58"/>
<circle cx="477" cy="879" r="8" fill="#FFFFFF" fill-opacity="0.55"/>
<circle cx="64" cy="558" r="8" fill="#FFFFFF" fill-opacity="0.28"/>
<circle cx="560" cy="591" r="7" fill="#FFFFFF" fill-opacity="0.21"/>
<circle cx="480" cy="766" r="10" fill="#FFFFFF" fill-opacity="0.84"/>
<circle cx="453" cy="763" r="5" fill="#FFFFFF" fill-opacity="0.38"/>
<circle cx="533" cy="870" r="6" fill="#FFFFFF" fill-opacity="0.24"/>
<circle cx="269" cy="248" r="7" fill="#FFFFFF" fill-opacity="0.4"/>
<circle cx="290" cy="666" r="6" fill="#FFFFFF" fill-opacity="0.53"/>
<circle cx="337" cy="203" r="6" fill="#FFFFFF" fill-opacity="0.56"/>
<circle cx="784" cy="527" r="7" fill="#FFFFFF" fill-opacity="0.61"/>
<circle cx="596" cy="642" r="5" fill="#FFFFFF" fill-opacity="0.53"/>
<circle cx="677" cy="507" r="6" fill="#FFFFFF" fill-opacity="0.75"/>
<circle cx="159" cy="747" r="7" fill="#FFFFFF" fill-opacity="0.96"/>
<circle cx="367" cy="762" r="7" fill="#FFFFFF" fill-opacity="0.25"/>
<circle cx="463" cy="274" r="5" fill="#FFFFFF" fill-opacity="0.58"/>
<circle cx="459" cy="814" r="6" fill="#FFFFFF" fill-opacity="0.83"/>
<circle cx="101" cy="513" r="6" fill="#FFFFFF" fill-opacity="0.84"/>
<circle cx="286" cy="427" r="8" fill="#FFFFFF" fill-opacity="0.7"/>
<circle cx="711" cy="585" r="6" fill="#FFFFFF" fill-opacity="0.29"/>
<circle cx="170" cy="782" r="6" fill="#FFFFFF" fill-opacity="0.98"/>
<circle cx="149" cy="725" r="5" fill="#FFFFFF" fill-opacity="0.51"/>
<circle cx="664" cy="450" r="6" fill="#FFFFFF" fill-opacity="0.3"/>
<circle cx="388" cy="631" r="6" fill="#FFFFFF" fill-opacity="0.58"/>
<circle cx="154" cy="557" r="5" fill="#FFFFFF" fill-opacity="0.49"/>
<circle cx="484" cy="321" r="5" fill="#FFFFFF" fill-opacity="0.7"/>
<circle cx="275" cy="628" r="8" fill="#FFFFFF" fill-opacity="0.26"/>
<circle cx="263" cy="586" r="5" fill="#FFFFFF" fill-opacity="0.57"/>
<circle cx="637" cy="461" r="5" fill="#FFFFFF" fill-opacity="1.0"/>
<circle cx="287" cy="473" r="9" fill="#FFFFFF" fill-opacity="0.84"/>
<circle cx="198" cy="385" r="5" fill="#FFFFFF" fill-opacity="0.29"/>
<circle cx="489" cy="606" r="6" fill="#FFFFFF" fill-opacity="0.89"/>
<circle cx="566" cy="467" r="5" fill="#FFFFFF" fill-opacity="0.7"/>
<circle cx="580" cy="436" r="6" fill="#FFFFFF" fill-opacity="0.58"/>
<circle cx="691" cy="445" r="5" fill="#FFFFFF" fill-opacity="0.53"/>
<circle cx="626" cy="675" r="8" fill="#FFFFFF" fill-opacity="0.43"/>
<circle cx="462" cy="833" r="6" fill="#FFFFFF" fill-opacity="0.5"/>
<circle cx="149" cy="894" r="6" fill="#FFFFFF" fill-opacity="0.22"/>
<circle cx="520" cy="450" r="5" fill="#FFFFFF" fill-opacity="0.85"/>
<circle cx="566" cy="720" r="5" fill="#FFFFFF" fill-opacity="0.79"/>
<circle cx="610" cy="714" r="6" fill="#FFFFFF" fill-opacity="0.21"/>
<circle cx="169" cy="310" r="8" fill="#FFFFFF" fill-opacity="0.64"/>
<circle cx="44" cy="864" r="5" fill="#FFFFFF" fill-opacity="0.25"/>
<circle cx="562" cy="849" r="7" fill="#FFFFFF" fill-opacity="0.59"/>
<circle cx="591" cy="454" r="6" fill="#FFFFFF" fill-opacity="0.36"/>
<circle cx="684" cy="748" r="7" fill="#FFFFFF" fill-opacity="0.33"/>
<circle cx="216" cy="456" r="6" fill="#FFFFFF" fill-opacity="0.56"/>
<circle cx="364" cy="248" r="7" fill="#FFFFFF" fill-opacity="0.88"/>
<circle cx="410" cy="209" r="5" fill="#FFFFFF" fill-opacity="0.85"/>
<circle cx="257" cy="597" r="5" fill="#FFFFFF" fill-opacity="0.59"/>
<circle cx="346" cy="640" r="6" fill="#FFFFFF" fill-opacity="0.68"/>
<circle cx="88" cy="895" r="5" fill="#FFFFFF" fill-opacity="0.87"/>
<circle cx="394" cy="596" r="6" fill="#FFFFFF" fill-opacity="0.21"/>
<circle cx="403" cy="605" r="6" fill="#FFFFFF" fill-opacity="0.79"/>
<circle cx="232" cy="617" r="5" fill="#FFFFFF" fill-opacity="0.57"/>
<circle cx="574" cy="699" r="5" fill="#FFFFFF" fill-opacity="0.31"/>
<circle cx="719" cy="522" r="5" fill="#FFFFFF" fill-opacity="0.3"/>
<circle cx="367" cy="747" r="5" fill="#FFFFFF" fill-opacity="0.96"/>
<circle cx="25" cy="795" r="8" fill="#FFFFFF" fill-opacity="0.77"/>
<circle cx="589" cy="423" r="5" fill="#FFFFFF" fill-opacity="0.42"/>
<circle cx="791" cy="605" r="5" fill="#FFFFFF" fill-opacity="0.44"/>
<circle cx="424" cy="274" r="7" fill="#FFFFFF" fill-opacity="0.6"/>
<circle cx="537" cy="390" r="5" fill="#FFFFFF" fill-opacity="0.71"/>
<circle cx="654" cy="455" r="5" fill="#FFFFFF" fill-opacity="0.56"/>
<circle cx="658" cy="502" r="5" fill="#FFFFFF" fill-opacity="0.73"/>
<circle cx="82" cy="611" r="6" fill="#FFFFFF" fill-opacity="0.61"/>
<circle cx="471" cy="411" r="5" fill="#FFFFFF" fill-opacity="0.6"/>
<circle cx="330" cy="481" r="5" fill="#FFFFFF" fill-opacity="0.22"/>
<circle cx="737" cy="459" r="5" fill="#FFFFFF" fill-opacity="0.66"/>
<circle cx="219" cy="619" r="5" fill="#FFFFFF" fill-opacity="0.39"/>
<circle cx="99" cy="605" r="6" fill="#FFFFFF" fill-opacity="0.32"/>
<circle cx="588" cy="674" r="6" fill="#FFFFFF" fill-opacity="0.4"/>
<circle cx="727" cy="576" r="6" fill="#FFFFFF" fill-opacity="0.33"/>
<circle cx="115" cy="897" r="5" fill="#FFFFFF" fill-opacity="0.34"/>
<circle cx="69" cy="853" r="5" fill="#FFFFFF" fill-opacity="0.8"/>
<circle cx="501" cy="584" r="7" fill="#FFFFFF" fill-opacity="0.21"/>
<circle cx="534" cy="223" r="6" fill="#FFFFFF" fill-opacity="0.49"/>
<circle cx="220" cy="379" r="5" fill="#FFFFFF" fill-opacity="0.9"/>
<circle cx="601" cy="463" r="5" fill="#FFFFFF" fill-opacity="0.88"/>
<circle cx="102" cy="551" r="5" fill="#FFFFFF" fill-opacity="0.59"/>
<circle cx="718" cy="644" r="5" fill="#FFFFFF" fill-opacity="0.25"/>
<circle cx="206" cy="602" r="5" fill="#FFFFFF" fill-opacity="0.37"/>
<circle cx="494" cy="617" r="6" fill="#FFFFFF" fill-opacity="0.45"/>
<circle cx="136" cy="587" r="6" fill="#FFFFFF" fill-opacity="0.27"/>
<circle cx="690" cy="711" r="6" fill="#FFFFFF" fill-opacity="0.74"/>
<circle cx="188" cy="377" r="7" fill="#FFFFFF" fill-opacity="0.33"/>
</svg>