<svg width="692" height="688" xmlns="http://www.w3.org/2000/svg" xmlns:xlink="http://www.w3.org/1999/xlink" xml:space="preserve" overflow="hidden"><g transform="translate(-1856 -893)"><g><path d="M656.274 290.094 644.412 303.633 584.228 306.642 564.668 269.974 522.54 339.109 505.991 348.136 466.873 275.05 433.77 278.373 397.661 260.635 370.58 234.748 367.521 236.582C367.046 236.083 366.585 235.57 366.103 235.081 345.863 214.756 316.038 201.505 287.881 200.514L265.258 147.247 243.476 142.661 236.673 151.134 208.084 136.717 199.432 160.347 168.965 147.247 81.7005 147.247 30.5444 143.361 0.0980431 132.087 0.0980431 43.3936 30.5444 54.6678 81.7005 23.0781 168.965 23.0781 197.178 49.7784 208.084 12.5473 230.278 0.135847 236.673 17.0605 265.258 23.0781 299.863 69.0849 332.963 97.669 370.58 75.1025 397.661 118.728 433.77 118.728 466.873 97.669 505.991 170.752 522.54 161.726 564.668 145.804 584.228 129.256 644.412 126.25 646.226 124.177C664.562 161.653 674.579 205.456 679.098 250.556Z" fill="#662E2E" fill-rule="evenodd" fill-opacity="1" transform="matrix(1 0 0 -1 1859 1552)"/><path d="M656.275 290.094 644.413 303.633 584.229 306.642 564.668 269.974 522.54 339.109 505.992 348.136 466.873 275.05 433.77 278.373 397.661 260.635 370.58 234.748 367.521 236.582C367.046 236.083 366.585 235.57 366.104 235.081 345.863 214.756 316.038 201.505 287.881 200.514L265.259 147.247 243.476 142.661 236.673 151.134 208.084 136.717 199.432 160.347 168.965 147.247 81.7006 147.247 30.5444 143.361 0.0980431 132.087 0.0980431 43.3936 30.5444 54.6678 81.7006 23.0781 168.965 23.0781 197.178 49.7784 208.084 12.5473 230.278 0.135847 236.673 17.0605 265.259 23.0781 299.863 69.0849 332.963 97.669 370.58 75.1025 397.661 118.728 433.77 118.728 466.873 97.669 505.992 170.752 522.54 161.726 564.668 145.804 584.229 129.256 644.413 126.25 646.226 124.177C664.562 161.653 674.579 205.456 679.099 250.556Z" stroke="#662E2E" stroke-width="2.91926" stroke-linecap="butt" stroke-linejoin="miter" stroke-miterlimit="8" stroke-opacity="1" fill="none" fill-rule="evenodd" transform="matrix(1 0 0 -1 1859.5 1552.5)"/><path d="M81.7064 5.82349 169.057 76.9972 195.963 80.6266 212.921 77.5119 228.452 85.4637 245.96 81.2729 265.443 76.9972 300.081 108.042 333.216 118.93 370.867 128.128 397.974 158.266 434.119 158.266 467.254 157 488.649 164.569 522.975 153.265 565.144 126.926 571.025 139.569C500.701 186.261 396.792 203.048 283.783 203.048L38.3848 203.048C17.1995 203.048 0.0248954 185.839 0.0248954 164.613L0.0248954 0.0477128 30.5037 4.34367Z" fill="#508BAD" fill-rule="evenodd" fill-opacity="1" transform="matrix(1 0 0 -1 1859 1101)"/><path d="M81.7065 5.82348 169.057 76.9971 195.963 80.6265 212.921 77.5118 228.452 85.4636 245.96 81.2728 265.443 76.9971 300.082 108.042 333.216 118.93 370.867 128.128 397.974 158.266 434.119 158.266 467.254 157 488.649 164.569 522.975 153.265 565.144 126.926 571.026 139.569C500.701 186.26 396.793 203.048 283.783 203.048L38.3848 203.048C17.1995 203.048 0.0248954 185.839 0.0248954 164.612L0.0248954 0.0477127 30.5038 4.34366Z" stroke="#508BAD" stroke-width="2.91926" stroke-linecap="butt" stroke-linejoin="miter" stroke-miterlimit="8" stroke-opacity="1" fill="none" fill-rule="evenodd" transform="matrix(1 0 0 -1 1859.5 1101.5)"/><path d="M295.064 228.324 277.333 247.086 217.079 250.104 197.495 177.75 155.316 247.086 120.982 202.771 99.579 182.841 66.439 186.174 30.2862 186.174 3.16933 142.423 1.2014 143.604C17.3234 125.966 27.6643 101.548 27.6643 72.5105 27.6643 43.6506 16.8503 19.6245 0.106823 1.94604L3.16933 0.104078 30.2862 26.0661 66.439 43.8555 99.579 40.5221 138.745 113.82 155.316 104.768 197.495 35.4313 217.079 72.2062 277.333 69.1887 289.213 55.6098 312.061 15.9608C314.181 37.1479 315.107 58.6129 315.107 79.8437 315.107 131.882 309.338 183.122 295.064 228.324" fill="#466271" fill-rule="evenodd" fill-opacity="1" transform="matrix(1 0 0 -1 2226 1317)"/><path d="M295.064 228.324 277.333 247.087 217.079 250.104 197.495 177.751 155.316 247.087 120.982 202.771 99.579 182.841 66.439 186.174 30.2862 186.174 3.16933 142.423 1.2014 143.604C17.3234 125.967 27.6643 101.548 27.6643 72.5106 27.6643 43.6506 16.8503 19.6245 0.106823 1.94604L3.16933 0.104078 30.2862 26.0661 66.439 43.8555 99.579 40.5222 138.745 113.821 155.316 104.768 197.495 35.4314 217.079 72.2063 277.333 69.1888 289.213 55.6099 312.061 15.9608C314.181 37.1479 315.107 58.6129 315.107 79.8438 315.107 131.882 309.338 183.122 295.064 228.324Z" stroke="#466271" stroke-width="2.91926" stroke-linecap="butt" stroke-linejoin="miter" stroke-miterlimit="8" stroke-opacity="1" fill="none" fill-rule="evenodd" transform="matrix(1 0 0 -1 2226.5 1317.5)"/><path d="M81.6829 15.3257 169.014 15.3257 199.506 28.4775 208.162 4.75293 236.772 19.2277 243.58 10.7214 265.38 15.3257 288.019 68.8043C286.893 68.7634 285.766 68.7077 284.649 68.7077L273.994 68.7077 273.994 178.147 265.38 157.798 245.901 133.444 228.397 180.105 212.869 123.533 195.914 131.735 169.014 122.177 81.6829 122.177 30.4913 118.276 0.0191184 106.959 0.0191184 0.104913 30.4913 11.424Z" fill="#466271" fill-rule="evenodd" fill-opacity="1" transform="matrix(1 0 0 -1 1859 1420)"/><path d="M81.6829 15.3256 169.014 15.3256 199.506 28.4774 208.162 4.75293 236.772 19.2277 243.58 10.7214 265.38 15.3256 288.019 68.8042C286.893 68.7633 285.766 68.7076 284.649 68.7076L273.994 68.7076 273.994 178.146 265.38 157.797 245.901 133.444 228.397 180.105 212.869 123.532 195.914 131.734 169.014 122.177 81.6829 122.177 30.4913 118.275 0.0191184 106.959 0.0191184 0.104913 30.4913 11.424Z" stroke="#466271" stroke-width="2.91926" stroke-linecap="butt" stroke-linejoin="miter" stroke-miterlimit="8" stroke-opacity="1" fill="none" fill-rule="evenodd" transform="matrix(1 0 0 -1 1859.5 1420.5)"/><path d="M81.6263 15.2189 168.889 15.2189 195.768 24.7378 212.71 16.5659 228.226 72.9162 245.715 26.4407 265.179 50.6946 273.787 70.9658 273.787 175.016 286.186 175.016C318.098 175.016 347.604 160.643 366.021 142.042 366.876 141.176 367.703 140.278 368.532 139.375L370.497 138.197 397.577 181.821 433.686 181.821 466.787 178.497 488.161 198.366 522.453 242.556 564.579 173.422 584.139 245.562 644.321 242.556 662.027 223.848C649.299 264.09 629.8 299.536 601.553 326.452 592.126 335.493 581.704 343.682 570.455 351.137L564.579 338.531 522.453 364.791 488.161 376.059 466.787 368.513 433.686 369.773 397.577 369.773 370.497 339.732 332.884 330.563 299.783 319.708 265.179 288.761 245.715 293.023 228.226 297.201 212.71 289.274 195.768 292.376 168.889 288.761 81.6263 217.81 30.475 216.332 0.0266727 212.052 0.0266727 0.0583736 30.475 11.3328Z" fill="#508BAD" fill-rule="evenodd" fill-opacity="1" transform="matrix(1 0 0 -1 1859 1313)"/><path d="M81.6263 15.2189 168.889 15.2189 195.768 24.7378 212.71 16.5659 228.226 72.9162 245.715 26.4407 265.179 50.6946 273.787 70.9658 273.787 175.016 286.186 175.016C318.098 175.016 347.604 160.643 366.021 142.042 366.876 141.176 367.703 140.278 368.532 139.375L370.497 138.197 397.577 181.821 433.686 181.821 466.787 178.497 488.161 198.366 522.453 242.556 564.579 173.422 584.139 245.562 644.321 242.556 662.027 223.848C649.299 264.09 629.8 299.536 601.553 326.452 592.126 335.493 581.704 343.682 570.455 351.137L564.579 338.531 522.453 364.791 488.161 376.059 466.787 368.513 433.686 369.773 397.577 369.773 370.497 339.732 332.884 330.563 299.783 319.708 265.179 288.761 245.715 293.023 228.226 297.201 212.71 289.274 195.768 292.376 168.889 288.761 81.6263 217.81 30.475 216.332 0.0266727 212.052 0.0266727 0.0583736 30.475 11.3328Z" stroke="#508BAD" stroke-width="2.91926" stroke-linecap="butt" stroke-linejoin="miter" stroke-miterlimit="8" stroke-opacity="1" fill="none" fill-rule="evenodd" transform="matrix(1 0 0 -1 1859.5 1313.5)"/><path d="M584.103 154.464 564.547 171.088 522.427 187.082 505.882 196.146 466.771 122.731 433.675 143.888 397.573 143.888 370.497 100.063 332.888 122.731 299.794 94.0179 265.197 47.8051 236.616 41.7602 230.223 24.7588 208.033 37.2265 197.129 74.6264 168.923 47.8051 81.6747 47.8051 30.5319 79.538 0.0886538 68.2127 0.0886538 38.6353C0.0886538 17.3753 17.2432 0.145512 38.4033 0.145512L285.386 0.145512C413.535 0.145512 533.232 21.7921 603.386 89.4488 621.051 106.374 635.066 126.726 646.089 149.362L644.275 151.442Z" fill="#482929" fill-rule="evenodd" fill-opacity="1" transform="matrix(1 0 0 -1 1859 1577)"/><path d="M584.104 154.464 564.547 171.087 522.427 187.081 505.882 196.146 466.771 122.731 433.675 143.888 397.573 143.888 370.497 100.063 332.888 122.731 299.795 94.0178 265.197 47.805 236.616 41.7601 230.223 24.7588 208.034 37.2265 197.129 74.6263 168.923 47.805 81.6747 47.805 30.5319 79.5379 0.0886539 68.2125 0.0886539 38.6352C0.0886539 17.3753 17.2432 0.145512 38.4033 0.145512L285.386 0.145512C413.535 0.145512 533.232 21.792 603.387 89.4486 621.051 106.374 635.066 126.726 646.089 149.362L644.276 151.441Z" stroke="#482929" stroke-width="2.91926" stroke-linecap="butt" stroke-linejoin="miter" stroke-miterlimit="8" stroke-opacity="1" fill="none" fill-rule="evenodd" transform="matrix(1 0 0 -1 1859.5 1577.5)"/></g></g></svg>