<?xml version="1.0" encoding="utf-8" standalone="no"?>
<!DOCTYPE svg PUBLIC "-//W3C//DTD SVG 1.1//EN"
  "http://www.w3.org/Graphics/SVG/1.1/DTD/svg11.dtd">
<svg xmlns:xlink="http://www.w3.org/1999/xlink" width="426.960312pt" height="420.985312pt" viewBox="0 0 426.960312 420.985312" xmlns="http://www.w3.org/2000/svg" version="1.1">
 <metadata>
  <rdf:RDF xmlns:dc="http://purl.org/dc/elements/1.1/" xmlns:cc="http://creativecommons.org/ns#" xmlns:rdf="http://www.w3.org/1999/02/22-rdf-syntax-ns#">
   <cc:Work>
    <dc:type rdf:resource="http://purl.org/dc/dcmitype/StillImage"/>
    <dc:date>2026-01-02T13:16:51.752629</dc:date>
    <dc:format>image/svg+xml</dc:format>
    <dc:creator>
     <cc:Agent>
      <dc:title>Matplotlib v3.5.2, https://matplotlib.org/</dc:title>
     </cc:Agent>
    </dc:creator>
   </cc:Work>
  </rdf:RDF>
 </metadata>
 <defs>
  <style type="text/css">*{stroke-linejoin: round; stroke-linecap: butt}</style>
 </defs>
 <g id="figure_1">
  <g id="patch_1">
   <path d="M 0 420.985312 
L 426.960312 420.985312 
L 426.960312 0 
L 0 0 
L 0 420.985312 
z
" style="fill: none; opacity: 0"/>
  </g>
  <g id="axes_1">
   <g id="patch_2">
    <path d="M 400.980625 210.492656 
C 400.980625 186.235448 396.202484 162.214111 386.919652 139.803373 
C 377.636821 117.392635 364.029826 97.028328 346.87739 79.875892 
C 329.724953 62.723455 309.360647 49.116461 286.949909 39.833629 
C 264.539171 30.550797 240.517833 25.772656 216.260625 25.772656 
C 192.003417 25.772656 167.982079 30.550797 145.571341 39.833629 
C 123.160603 49.116461 102.796297 62.723455 85.64386 79.875892 
C 68.491424 97.028328 54.884429 117.392635 45.601598 139.803373 
C 36.318766 162.214111 31.540625 186.235448 31.540625 210.492656 
C 31.540625 234.749864 36.318766 258.771202 45.601598 281.18194 
C 54.884429 303.592678 68.491424 323.956984 85.64386 341.109421 
C 102.796297 358.261857 123.160603 371.868852 145.571341 381.151683 
C 167.982079 390.434515 192.003417 395.212656 216.260625 395.212656 
C 240.517833 395.212656 264.539171 390.434515 286.949909 381.151683 
C 309.360647 371.868852 329.724953 358.261857 346.87739 341.109421 
C 364.029826 323.956984 377.636821 303.592678 386.919652 281.18194 
C 396.202484 258.771202 400.980625 234.749864 400.980625 210.492656 
M 216.260625 210.492656 
C 216.260625 210.492656 216.260625 210.492656 216.260625 210.492656 
C 216.260625 210.492656 216.260625 210.492656 216.260625 210.492656 
C 216.260625 210.492656 216.260625 210.492656 216.260625 210.492656 
C 216.260625 210.492656 216.260625 210.492656 216.260625 210.492656 
C 216.260625 210.492656 216.260625 210.492656 216.260625 210.492656 
C 216.260625 210.492656 216.260625 210.492656 216.260625 210.492656 
C 216.260625 210.492656 216.260625 210.492656 216.260625 210.492656 
C 216.260625 210.492656 216.260625 210.492656 216.260625 210.492656 
C 216.260625 210.492656 216.260625 210.492656 216.260625 210.492656 
C 216.260625 210.492656 216.260625 210.492656 216.260625 210.492656 
C 216.260625 210.492656 216.260625 210.492656 216.260625 210.492656 
C 216.260625 210.492656 216.260625 210.492656 216.260625 210.492656 
C 216.260625 210.492656 216.260625 210.492656 216.260625 210.492656 
C 216.260625 210.492656 216.260625 210.492656 216.260625 210.492656 
C 216.260625 210.492656 216.260625 210.492656 216.260625 210.492656 
C 216.260625 210.492656 216.260625 210.492656 216.260625 210.492656 
M 400.980625 210.492656 
L 400.980625 210.492656 
z
" style="fill: none; opacity: 0"/>
   </g>
   <g id="matplotlib.axis_1">
    <g id="xtick_1">
     <g id="line2d_1">
      <path d="M 216.260625 210.492656 
L 400.980625 210.492656 
" clip-path="url(#pd662ccfc88)" style="fill: none; stroke: #ffffff; stroke-width: 0.8; stroke-linecap: square"/>
     </g>
     <g id="text_1">
      <text style="fill: #ffffff; font: 10px 'Arial'; text-anchor: middle" x="414.980625" y="213.077812" transform="rotate(-0, 414.980625, 213.077812)">0°</text>
     </g>
    </g>
    <g id="xtick_2">
     <g id="line2d_2">
      <path d="M 216.260625 210.492656 
L 346.87739 79.875892 
" clip-path="url(#pd662ccfc88)" style="fill: none; stroke: #ffffff; stroke-width: 0.8; stroke-linecap: square"/>
     </g>
     <g id="text_2">
      <text style="fill: #ffffff; font: 10px 'Arial'; text-anchor: middle" x="356.776885" y="72.561553" transform="rotate(-0, 356.776885, 72.561553)">45°</text>
     </g>
    </g>
    <g id="xtick_3">
     <g id="line2d_3">
      <path d="M 216.260625 210.492656 
L 216.260625 25.772656 
" clip-path="url(#pd662ccfc88)" style="fill: none; stroke: #ffffff; stroke-width: 0.8; stroke-linecap: square"/>
     </g>
     <g id="text_3">
      <text style="fill: #ffffff; font: 10px 'Arial'; text-anchor: middle" x="216.260625" y="14.357812" transform="rotate(-0, 216.260625, 14.357812)">90°</text>
     </g>
    </g>
    <g id="xtick_4">
     <g id="line2d_4">
      <path d="M 216.260625 210.492656 
L 85.64386 79.875892 
" clip-path="url(#pd662ccfc88)" style="fill: none; stroke: #ffffff; stroke-width: 0.8; stroke-linecap: square"/>
     </g>
     <g id="text_4">
      <text style="fill: #ffffff; font: 10px 'Arial'; text-anchor: middle" x="75.744365" y="72.561553" transform="rotate(-0, 75.744365, 72.561553)">135°</text>
     </g>
    </g>
    <g id="xtick_5">
     <g id="line2d_5">
      <path d="M 216.260625 210.492656 
L 31.540625 210.492656 
" clip-path="url(#pd662ccfc88)" style="fill: none; stroke: #ffffff; stroke-width: 0.8; stroke-linecap: square"/>
     </g>
     <g id="text_5">
      <text style="fill: #ffffff; font: 10px 'Arial'; text-anchor: middle" x="17.540625" y="213.077812" transform="rotate(-0, 17.540625, 213.077812)">180°</text>
     </g>
    </g>
    <g id="xtick_6">
     <g id="line2d_6">
      <path d="M 216.260625 210.492656 
L 85.64386 341.109421 
" clip-path="url(#pd662ccfc88)" style="fill: none; stroke: #ffffff; stroke-width: 0.8; stroke-linecap: square"/>
     </g>
     <g id="text_6">
      <text style="fill: #ffffff; font: 10px 'Arial'; text-anchor: middle" x="75.744365" y="353.594072" transform="rotate(-0, 75.744365, 353.594072)">225°</text>
     </g>
    </g>
    <g id="xtick_7">
     <g id="line2d_7">
      <path d="M 216.260625 210.492656 
L 216.260625 395.212656 
" clip-path="url(#pd662ccfc88)" style="fill: none; stroke: #ffffff; stroke-width: 0.8; stroke-linecap: square"/>
     </g>
     <g id="text_7">
      <text style="fill: #ffffff; font: 10px 'Arial'; text-anchor: middle" x="216.260625" y="411.797812" transform="rotate(-0, 216.260625, 411.797812)">270°</text>
     </g>
    </g>
    <g id="xtick_8">
     <g id="line2d_8">
      <path d="M 216.260625 210.492656 
L 346.87739 341.109421 
" clip-path="url(#pd662ccfc88)" style="fill: none; stroke: #ffffff; stroke-width: 0.8; stroke-linecap: square"/>
     </g>
     <g id="text_8">
      <text style="fill: #ffffff; font: 10px 'Arial'; text-anchor: middle" x="356.776885" y="353.594072" transform="rotate(-0, 356.776885, 353.594072)">315°</text>
     </g>
    </g>
   </g>
   <g id="matplotlib.axis_2">
    <g id="ytick_1">
     <g id="line2d_9">
      <path d="M 260.462587 210.492656 
C 260.462587 204.688108 259.319218 198.940001 257.097913 193.577298 
C 254.876609 188.214594 251.620568 183.341585 247.516132 179.237149 
C 243.411697 175.132713 238.538687 171.876673 233.175984 169.655368 
C 227.81328 167.434064 222.065173 166.290694 216.260625 166.290694 
C 210.456077 166.290694 204.70797 167.434064 199.345266 169.655368 
C 193.982563 171.876673 189.109553 175.132713 185.005118 179.237149 
C 180.900682 183.341585 177.644641 188.214594 175.423337 193.577298 
C 173.202032 198.940001 172.058663 204.688108 172.058663 210.492656 
C 172.058663 216.297205 173.202032 222.045311 175.423337 227.408015 
C 177.644641 232.770718 180.900682 237.643728 185.005118 241.748163 
C 189.109553 245.852599 193.982563 249.10864 199.345266 251.329944 
C 204.70797 253.551249 210.456077 254.694618 216.260625 254.694618 
C 222.065173 254.694618 227.81328 253.551249 233.175984 251.329944 
C 238.538687 249.10864 243.411697 245.852599 247.516132 241.748163 
C 251.620568 237.643728 254.876609 232.770718 257.097913 227.408015 
C 259.319218 222.045311 260.462587 216.297205 260.462587 210.492656 
" clip-path="url(#pd662ccfc88)" style="fill: none; stroke: #ffffff; stroke-width: 0.8; stroke-linecap: square"/>
     </g>
     <g id="text_9">
      <text style="fill: #ffffff; font: 10px 'Arial'; text-anchor: start" x="257.097913" y="191.589798" transform="rotate(-0, 257.097913, 191.589798)">0.5</text>
     </g>
    </g>
    <g id="ytick_2">
     <g id="line2d_10">
      <path d="M 304.664549 210.492656 
C 304.664549 198.883559 302.37781 187.387346 297.935201 176.661939 
C 293.492592 165.936532 286.980511 156.190513 278.771639 147.981642 
C 270.562768 139.772771 260.816749 133.260689 250.091342 128.81808 
C 239.365935 124.375471 227.869722 122.088732 216.260625 122.088732 
C 204.651528 122.088732 193.155315 124.375471 182.429908 128.81808 
C 171.704501 133.260689 161.958482 139.772771 153.749611 147.981642 
C 145.540739 156.190513 139.028658 165.936532 134.586049 176.661939 
C 130.14344 187.387346 127.856701 198.883559 127.856701 210.492656 
C 127.856701 222.101753 130.14344 233.597966 134.586049 244.323373 
C 139.028658 255.048781 145.540739 264.794799 153.749611 273.003671 
C 161.958482 281.212542 171.704501 287.724624 182.429908 292.167233 
C 193.155315 296.609842 204.651528 298.896581 216.260625 298.896581 
C 227.869722 298.896581 239.365935 296.609842 250.091342 292.167233 
C 260.816749 287.724624 270.562768 281.212542 278.771639 273.003671 
C 286.980511 264.794799 293.492592 255.048781 297.935201 244.323373 
C 302.37781 233.597966 304.664549 222.101753 304.664549 210.492656 
" clip-path="url(#pd662ccfc88)" style="fill: none; stroke: #ffffff; stroke-width: 0.8; stroke-linecap: square"/>
     </g>
     <g id="text_10">
      <text style="fill: #ffffff; font: 10px 'Arial'; text-anchor: start" x="297.935201" y="174.674439" transform="rotate(-0, 297.935201, 174.674439)">1.0</text>
     </g>
    </g>
    <g id="ytick_3">
     <g id="line2d_11">
      <path d="M 348.866512 210.492656 
C 348.866512 193.079011 345.436403 175.834691 338.772489 159.74658 
C 332.108576 143.65847 322.340453 129.039441 310.027147 116.726135 
C 297.71384 104.412828 283.094811 94.644705 267.006701 87.980792 
C 250.91859 81.316878 233.67427 77.88677 216.260625 77.88677 
C 198.84698 77.88677 181.60266 81.316878 165.514549 87.980792 
C 149.426439 94.644705 134.80741 104.412828 122.494103 116.726135 
C 110.180797 129.039441 100.412674 143.65847 93.748761 159.74658 
C 87.084847 175.834691 83.654738 193.079011 83.654738 210.492656 
C 83.654738 227.906302 87.084847 245.150621 93.748761 261.238732 
C 100.412674 277.326843 110.180797 291.945871 122.494103 304.259178 
C 134.80741 316.572485 149.426439 326.340607 165.514549 333.004521 
C 181.60266 339.668434 198.84698 343.098543 216.260625 343.098543 
C 233.67427 343.098543 250.91859 339.668434 267.006701 333.004521 
C 283.094811 326.340607 297.71384 316.572485 310.027147 304.259178 
C 322.340453 291.945871 332.108576 277.326843 338.772489 261.238732 
C 345.436403 245.150621 348.866512 227.906302 348.866512 210.492656 
" clip-path="url(#pd662ccfc88)" style="fill: none; stroke: #ffffff; stroke-width: 0.8; stroke-linecap: square"/>
     </g>
     <g id="text_11">
      <text style="fill: #ffffff; font: 10px 'Arial'; text-anchor: start" x="338.772489" y="157.75908" transform="rotate(-0, 338.772489, 157.75908)">1.5</text>
     </g>
    </g>
    <g id="ytick_4">
     <g id="line2d_12">
      <path d="M 393.068474 210.492656 
C 393.068474 187.274462 388.494996 164.282036 379.609778 142.831222 
C 370.72456 121.380408 357.700396 101.88837 341.282654 85.470627 
C 324.864911 69.052885 305.372874 56.028722 283.922059 47.143504 
C 262.471245 38.258285 239.478819 33.684807 216.260625 33.684807 
C 193.042431 33.684807 170.050005 38.258285 148.599191 47.143504 
C 127.148376 56.028722 107.656339 69.052885 91.238596 85.470627 
C 74.820854 101.88837 61.79669 121.380408 52.911472 142.831222 
C 44.026254 164.282036 39.452776 187.274462 39.452776 210.492656 
C 39.452776 233.71085 44.026254 256.703276 52.911472 278.154091 
C 61.79669 299.604905 74.820854 319.096943 91.238596 335.514685 
C 107.656339 351.932427 127.148376 364.956591 148.599191 373.841809 
C 170.050005 382.727027 193.042431 387.300505 216.260625 387.300505 
C 239.478819 387.300505 262.471245 382.727027 283.922059 373.841809 
C 305.372874 364.956591 324.864911 351.932427 341.282654 335.514685 
C 357.700396 319.096943 370.72456 299.604905 379.609778 278.154091 
C 388.494996 256.703276 393.068474 233.71085 393.068474 210.492656 
" clip-path="url(#pd662ccfc88)" style="fill: none; stroke: #ffffff; stroke-width: 0.8; stroke-linecap: square"/>
     </g>
     <g id="text_12">
      <text style="fill: #ffffff; font: 10px 'Arial'; text-anchor: start" x="379.609778" y="140.843722" transform="rotate(-0, 379.609778, 140.843722)">2.0</text>
     </g>
    </g>
   </g>
   <g id="line2d_13">
    <path d="M 216.260625 210.492656 
L 218.014762 210.271057 
L 218.865766 209.995699 
L 219.685687 209.61325 
L 220.464481 209.12674 
L 221.192378 208.540037 
L 221.859943 207.857817 
L 222.458141 207.085543 
L 222.978396 206.229429 
L 223.412653 205.296404 
L 223.753428 204.29407 
L 223.993867 203.230658 
L 224.12779 202.114977 
L 224.149735 200.956361 
L 224.055003 199.764615 
L 223.839696 198.549952 
L 223.500741 197.322935 
L 223.035926 196.094409 
L 222.443919 194.875437 
L 221.724288 193.677231 
L 220.877509 192.51108 
L 219.904979 191.388286 
L 218.809013 190.320085 
L 217.592848 189.317581 
L 216.260625 188.391675 
L 214.817384 187.552992 
L 213.269039 186.811811 
L 211.622357 186.178003 
L 209.884928 185.660956 
L 208.06513 185.269518 
L 206.172092 185.01193 
L 204.215646 184.895772 
L 202.206283 184.927903 
L 200.1551 185.11441 
L 198.073742 185.460559 
L 195.974343 185.970754 
L 193.869464 186.648492 
L 191.772024 187.496329 
L 189.695231 188.515851 
L 187.652514 189.707647 
L 185.657445 191.071288 
L 183.723666 192.605312 
L 181.864812 194.307215 
L 180.094433 196.173448 
L 178.425917 198.199414 
L 176.872411 200.379482 
L 175.446743 202.706992 
L 174.161345 205.17428 
L 173.02818 207.772701 
L 172.058663 210.492656 
L 171.26359 213.32363 
L 170.653072 216.25423 
L 170.23646 219.272235 
L 170.022287 222.364644 
L 170.018204 225.51773 
L 170.230927 228.717103 
L 170.666175 231.947776 
L 171.328634 235.194227 
L 172.221903 238.440479 
L 173.348459 241.67017 
L 174.709624 244.866633 
L 176.305539 248.01298 
L 178.135135 251.092179 
L 180.196124 254.087149 
L 182.484985 256.980836 
L 184.996959 259.756312 
L 187.726052 262.396852 
L 190.665044 264.886035 
L 193.805503 267.20782 
L 197.137804 269.346646 
L 200.65116 271.287509 
L 204.33365 273.016051 
L 208.172262 274.518644 
L 212.152938 275.782471 
L 216.260625 276.7956 
L 220.479331 277.547061 
L 224.792186 278.026918 
L 229.181515 278.226334 
L 233.628903 278.137633 
L 238.115277 277.754359 
L 242.620986 277.071327 
L 247.125884 276.084671 
L 251.609425 274.791884 
L 256.050746 273.191854 
L 260.42877 271.284892 
L 264.722298 269.072755 
L 268.910111 266.558664 
L 272.97107 263.747309 
L 276.884216 260.644852 
L 280.628874 257.258927 
L 284.184756 253.59862 
L 287.532059 249.674458 
L 290.651569 245.498377 
L 293.524762 241.083692 
L 296.133897 236.445056 
L 298.462115 231.598412 
L 300.493531 226.560943 
L 302.213321 221.351007 
L 303.60781 215.988075 
L 304.664549 210.492656 
L 305.372399 204.886219 
L 305.721595 199.191108 
L 305.703814 193.430455 
L 305.31224 187.628088 
L 304.54161 181.808425 
L 303.388269 175.996382 
L 301.850206 170.217257 
L 299.92709 164.496628 
L 297.620298 158.860238 
L 294.93293 153.333881 
L 291.869823 147.943288 
L 288.437555 142.714008 
L 284.64444 137.671289 
L 280.500517 132.839967 
L 276.017526 128.244337 
L 271.208887 123.90805 
L 266.089656 119.853985 
L 260.676486 116.104147 
L 254.987575 112.679547 
L 249.042603 109.600102 
L 242.862671 106.884528 
L 236.470222 104.550238 
L 229.888963 102.613252 
L 223.143776 101.088102 
L 216.260625 99.987751 
L 209.266455 99.323512 
L 202.189089 99.104978 
L 195.057113 99.339955 
L 187.899766 100.034403 
L 180.746815 101.192389 
L 173.628437 102.81604 
L 166.575085 104.90551 
L 159.617368 107.458953 
L 152.785908 110.472507 
L 146.111219 113.940282 
L 139.623561 117.85436 
L 133.352814 122.204804 
L 127.328336 126.979678 
L 121.578837 132.165069 
L 116.132237 137.745124 
L 111.015543 143.702096 
L 106.254717 150.016396 
L 101.87455 156.666655 
L 97.898543 163.629793 
L 94.348789 170.881099 
L 91.245858 178.39432 
L 88.608695 186.141748 
L 86.454512 194.094331 
L 84.798701 202.221773 
L 83.654738 210.492656 
L 83.034111 218.874558 
L 82.946239 227.33418 
L 83.398412 235.837479 
L 84.395734 244.349806 
L 85.941076 252.836045 
L 88.035036 261.260758 
L 90.675913 269.588336 
L 93.859685 277.783143 
L 97.580001 285.809671 
L 101.828181 293.632693 
L 106.59323 301.217416 
L 111.861851 308.52963 
L 117.618485 315.535867 
L 123.845342 322.203543 
L 130.522462 328.501114 
L 137.627767 334.398214 
L 145.137136 339.865802 
L 153.024484 344.876297 
L 161.261848 349.403711 
L 169.819489 353.423774 
L 178.665998 356.914061 
L 187.768406 359.854099 
L 197.092312 362.225477 
L 206.60201 364.01195 
L 216.260625 365.199524 
L 226.030259 365.77654 
L 235.872136 365.733751 
L 245.746759 365.064381 
L 255.614065 363.764185 
L 265.433592 361.831487 
L 275.164641 359.267217 
L 284.766445 356.074934 
L 294.19834 352.260834 
L 303.419937 347.833756 
L 312.391293 342.805169 
L 321.07308 337.18915 
L 329.426762 331.002352 
L 337.414757 324.263959 
L 345.000611 316.995635 
L 352.149152 309.22145 
L 358.826658 300.967812 
L 365.001008 292.263374 
L 370.641831 283.138938 
L 375.720652 273.627347 
L 380.211025 263.763371 
L 384.088668 253.583574 
L 387.331579 243.126186 
L 389.920154 232.430957 
L 391.837289 221.539004 
L 391.837289 221.539004 
" clip-path="url(#pd662ccfc88)" style="fill: none; stroke: #8dd3c7; stroke-width: 1.5; stroke-linecap: square"/>
   </g>
   <g id="patch_3">
    <path d="M 400.980625 210.492656 
C 400.980625 186.235448 396.202484 162.214111 386.919652 139.803373 
C 377.636821 117.392635 364.029826 97.028328 346.87739 79.875892 
C 329.724953 62.723455 309.360647 49.116461 286.949909 39.833629 
C 264.539171 30.550797 240.517833 25.772656 216.260625 25.772656 
C 192.003417 25.772656 167.982079 30.550797 145.571341 39.833629 
C 123.160603 49.116461 102.796297 62.723455 85.64386 79.875892 
C 68.491424 97.028328 54.884429 117.392635 45.601598 139.803373 
C 36.318766 162.214111 31.540625 186.235448 31.540625 210.492656 
C 31.540625 234.749864 36.318766 258.771202 45.601598 281.18194 
C 54.884429 303.592678 68.491424 323.956984 85.64386 341.109421 
C 102.796297 358.261857 123.160603 371.868852 145.571341 381.151683 
C 167.982079 390.434515 192.003417 395.212656 216.260625 395.212656 
C 240.517833 395.212656 264.539171 390.434515 286.949909 381.151683 
C 309.360647 371.868852 329.724953 358.261857 346.87739 341.109421 
C 364.029826 323.956984 377.636821 303.592678 386.919652 281.18194 
C 396.202484 258.771202 400.980625 234.749864 400.980625 210.492656 
" style="fill: none; stroke: #ffffff; stroke-width: 0.8; stroke-linejoin: miter; stroke-linecap: square"/>
   </g>
  </g>
 </g>
 <defs>
  <clipPath id="pd662ccfc88">
   <path d="M 400.980625 210.492656 
C 400.980625 186.235448 396.202484 162.214111 386.919652 139.803373 
C 377.636821 117.392635 364.029826 97.028328 346.87739 79.875892 
C 329.724953 62.723455 309.360647 49.116461 286.949909 39.833629 
C 264.539171 30.550797 240.517833 25.772656 216.260625 25.772656 
C 192.003417 25.772656 167.982079 30.550797 145.571341 39.833629 
C 123.160603 49.116461 102.796297 62.723455 85.64386 79.875892 
C 68.491424 97.028328 54.884429 117.392635 45.601598 139.803373 
C 36.318766 162.214111 31.540625 186.235448 31.540625 210.492656 
C 31.540625 234.749864 36.318766 258.771202 45.601598 281.18194 
C 54.884429 303.592678 68.491424 323.956984 85.64386 341.109421 
C 102.796297 358.261857 123.160603 371.868852 145.571341 381.151683 
C 167.982079 390.434515 192.003417 395.212656 216.260625 395.212656 
C 240.517833 395.212656 264.539171 390.434515 286.949909 381.151683 
C 309.360647 371.868852 329.724953 358.261857 346.87739 341.109421 
C 364.029826 323.956984 377.636821 303.592678 386.919652 281.18194 
C 396.202484 258.771202 400.980625 234.749864 400.980625 210.492656 
M 216.260625 210.492656 
C 216.260625 210.492656 216.260625 210.492656 216.260625 210.492656 
C 216.260625 210.492656 216.260625 210.492656 216.260625 210.492656 
C 216.260625 210.492656 216.260625 210.492656 216.260625 210.492656 
C 216.260625 210.492656 216.260625 210.492656 216.260625 210.492656 
C 216.260625 210.492656 216.260625 210.492656 216.260625 210.492656 
C 216.260625 210.492656 216.260625 210.492656 216.260625 210.492656 
C 216.260625 210.492656 216.260625 210.492656 216.260625 210.492656 
C 216.260625 210.492656 216.260625 210.492656 216.260625 210.492656 
C 216.260625 210.492656 216.260625 210.492656 216.260625 210.492656 
C 216.260625 210.492656 216.260625 210.492656 216.260625 210.492656 
C 216.260625 210.492656 216.260625 210.492656 216.260625 210.492656 
C 216.260625 210.492656 216.260625 210.492656 216.260625 210.492656 
C 216.260625 210.492656 216.260625 210.492656 216.260625 210.492656 
C 216.260625 210.492656 216.260625 210.492656 216.260625 210.492656 
C 216.260625 210.492656 216.260625 210.492656 216.260625 210.492656 
C 216.260625 210.492656 216.260625 210.492656 216.260625 210.492656 
M 400.980625 210.492656 
z
"/>
  </clipPath>
 </defs>
</svg>
