<?xml version="1.0" encoding="utf-8"?>
<svg width="9.654545454545461cm" height="5.254545454545458cm" viewBox="0 0 529 287" xmlns="http://www.w3.org/2000/svg">
  <title/>
  <g stroke-linejoin="miter" stroke-dashoffset="0.0000" stroke-dasharray="none" stroke-width="1.0000" stroke-miterlimit="10.000" stroke-linecap="square">
    <g id="misc"/>
    <g id="layer0">
      <g clip-path="url(#clip1)">
        <g stroke-linejoin="round" stroke-width="1.5000" stroke-linecap="round" fill="none" stroke-opacity="1.0000" stroke="#fff">
          <path d="M 238.87 117.73 L 230.86 137.37 L 250.50 145.38 L 258.51 125.74 L 238.87 117.73"/>
          <title>Winkel α</title>
          <desc>Winkel α: Winkel zwischen B, E, C</desc>
        </g>
      </g>
      <g clip-path="url(#clip2)">
        <g stroke-linejoin="round" stroke-width="1.5000" stroke-linecap="round" fill="none" stroke-opacity="1.0000" stroke="#fff">
          <path d="M 124.16 227.39 L 145.31 225.80 L 143.72 204.65 L 122.56 206.24 L 124.16 227.39"/>
          <title>Winkel β</title>
          <desc>Winkel β: Winkel zwischen C, D, P</desc>
        </g>
      </g>
      <g clip-path="url(#clip3)">
        <g stroke-linejoin="round" stroke-width="2.5000" stroke-linecap="round" fill="none" stroke-opacity="1.0000" stroke="#7d7dff">
          <path d="M -5.0000 18.295 L 536.00 238.88"/>
          <title>Gerade l</title>
          <desc>Gerade l: Gerade durch P, C</desc>
        </g>
      </g>
      <g clip-path="url(#clip4)">
        <g fill-opacity="1.0000" fill-rule="nonzero" stroke="none" fill="#7d7dff">
          <title>Gerade l</title>
          <desc>Gerade l: Gerade durch P, C</desc>
        </g>
      </g>
      <g clip-path="url(#clip5)">
        <g stroke-linejoin="round" stroke-width="2.5000" stroke-linecap="round" fill="none" stroke-opacity="1.0000" stroke="#00cc00">
          <path d="M -5.0000 237.12 L 536.00 196.37"/>
          <title>Gerade m</title>
          <desc>Gerade m: Gerade durch C, A</desc>
        </g>
      </g>
      <g clip-path="url(#clip6)">
        <g fill-opacity="1.0000" fill-rule="nonzero" stroke="none" fill="#00cc00">
          <path d="M 12.578 61 L 12.578 48.55 L 14.469 48.55 L 14.469 50.3 C 14.864 49.693 15.385 49.203 16.031 48.83 C 16.677 48.457 17.417 48.27 18.25 48.27 C 19.167 48.27 19.919 48.46 20.508 48.84 C 21.097 49.227 21.516 49.763 21.766 50.45 C 22.745 48.997 24.026 48.27 25.609 48.27 C 26.838 48.27 27.786 48.613 28.453 49.3 C 29.12 49.987 29.453 51.037 29.453 52.45 L 29.453 61 L 27.344 61 L 27.344 53.16 C 27.344 52.313 27.276 51.707 27.141 51.34 C 27.006 50.967 26.758 50.667 26.398 50.44 C 26.039 50.207 25.62 50.09 25.141 50.09 C 24.266 50.09 23.539 50.383 22.961 50.97 C 22.383 51.55 22.094 52.483 22.094 53.77 L 22.094 61 L 19.984 61 L 19.984 52.91 C 19.984 51.97 19.812 51.267 19.469 50.8 C 19.125 50.327 18.562 50.09 17.781 50.09 C 17.188 50.09 16.638 50.247 16.133 50.56 C 15.628 50.873 15.26 51.333 15.031 51.94 C 14.802 52.54 14.688 53.41 14.688 54.55 L 14.688 61 L 12.578 61 Z" style="fill: rgb(125, 125, 255);"/>
          <title>Gerade m</title>
          <desc>Gerade m: Gerade durch C, A</desc>
        </g>
      </g>
      <g clip-path="url(#clip7)">
        <g stroke-linejoin="round" stroke-dasharray="9.5000,8.0000" stroke-width="1.5000" stroke-linecap="butt" fill="none" stroke-opacity="1.0000" stroke="#fff">
          <path d="M 124.16 227.39 L 112.00 66.000"/>
          <title>Strecke j</title>
          <desc>Strecke j: Strecke [D, P]</desc>
        </g>
      </g>
      <g clip-path="url(#clip8)">
        <g stroke-linejoin="round" stroke-dasharray="9.5000,8.0000" stroke-width="1.5000" stroke-linecap="butt" fill="none" stroke-opacity="1.0000" stroke="#fff">
          <path d="M 196.37 221.95 L 238.87 117.73"/>
          <title>Strecke k</title>
          <desc>Strecke k: Strecke [B, E]</desc>
        </g>
      </g>
      <g clip-path="url(#clip9)">
        <g stroke-width="4.5000" fill="none" stroke-opacity="1.0000" stroke="#00cc00">
          <path d="M 112.00 57.000 L 103.00 66.000"/>
          <title>Punkt P</title>
          <desc>P = (-2.46, 4.96)</desc>
        </g>
      </g>
      <g clip-path="url(#clip10)">
        <g stroke-width="4.5000" fill="none" stroke-opacity="1.0000" stroke="#00cc00">
          <path d="M 103.00 66.000 L 112.00 75.000"/>
          <title>Punkt P</title>
          <desc>P = (-2.46, 4.96)</desc>
        </g>
      </g>
      <g clip-path="url(#clip11)">
        <g stroke-width="4.5000" fill="none" stroke-opacity="1.0000" stroke="#00cc00">
          <path d="M 112.00 75.000 L 121.00 66.000"/>
          <title>Punkt P</title>
          <desc>P = (-2.46, 4.96)</desc>
        </g>
      </g>
      <g clip-path="url(#clip12)">
        <g stroke-width="4.5000" fill="none" stroke-opacity="1.0000" stroke="#00cc00">
          <path d="M 121.00 66.000 L 112.00 57.000"/>
          <title>Punkt P</title>
          <desc>P = (-2.46, 4.96)</desc>
        </g>
      </g>
      <g clip-path="url(#clip13)">
        <g fill-opacity="1.0000" fill-rule="nonzero" stroke="none" fill="#00cc00">
          <path d="M 109.86 43.000 L 109.86 25.812 L 116.33 25.812 Q 118.05 25.812 118.95 25.984 Q 120.22 26.188 121.07 26.781 Q 121.92 27.375 122.45 28.445 Q 122.97 29.516 122.97 30.781 Q 122.97 32.984 121.57 34.500 Q 120.17 36.016 116.53 36.016 L 112.12 36.016 L 112.12 43.000 L 109.86 43.000 z M 112.12 33.984 L 116.56 33.984 Q 118.77 33.984 119.70 33.164 Q 120.62 32.344 120.62 30.859 Q 120.62 29.781 120.08 29.016 Q 119.53 28.250 118.64 28.000 Q 118.06 27.844 116.52 27.844 L 112.12 27.844 L 112.12 33.984 z"/>
          <title>Punkt P</title>
          <desc>P = (-2.46, 4.96)</desc>
        </g>
      </g>
      <g clip-path="url(#clip14)">
        <g stroke-width="4.5000" fill="none" stroke-opacity="1.0000" stroke="#fff">
          <path d="M 448.00 194.00 L 439.00 203.00"/>
          <title>Punkt C</title>
          <desc>C = (3.65, 2.47)</desc>
        </g>
      </g>
      <g clip-path="url(#clip15)">
        <g stroke-width="4.5000" fill="none" stroke-opacity="1.0000" stroke="#fff">
          <path d="M 439.00 203.00 L 448.00 212.00"/>
          <title>Punkt C</title>
          <desc>C = (3.65, 2.47)</desc>
        </g>
      </g>
      <g clip-path="url(#clip16)">
        <g stroke-width="4.5000" fill="none" stroke-opacity="1.0000" stroke="#fff">
          <path d="M 448.00 212.00 L 457.00 203.00"/>
          <title>Punkt C</title>
          <desc>C = (3.65, 2.47)</desc>
        </g>
      </g>
      <g clip-path="url(#clip17)">
        <g stroke-width="4.5000" fill="none" stroke-opacity="1.0000" stroke="#fff">
          <path d="M 457.00 203.00 L 448.00 194.00"/>
          <title>Punkt C</title>
          <desc>C = (3.65, 2.47)</desc>
        </g>
      </g>
      <g clip-path="url(#clip18)">
        <g fill-opacity="1.0000" fill-rule="nonzero" stroke="none" fill="#fff">
          <path d="M 453.11 235.97 L 455.39 236.55 Q 454.67 239.34 452.81 240.82 Q 450.95 242.30 448.27 242.30 Q 445.50 242.30 443.76 241.16 Q 442.02 240.03 441.11 237.88 Q 440.20 235.73 440.20 233.28 Q 440.20 230.59 441.23 228.59 Q 442.25 226.59 444.14 225.56 Q 446.03 224.53 448.31 224.53 Q 450.89 224.53 452.65 225.84 Q 454.41 227.16 455.09 229.53 L 452.86 230.06 Q 452.25 228.19 451.12 227.33 Q 449.98 226.47 448.27 226.47 Q 446.28 226.47 444.95 227.42 Q 443.62 228.38 443.09 229.97 Q 442.55 231.56 442.55 233.27 Q 442.55 235.45 443.18 237.09 Q 443.81 238.73 445.16 239.54 Q 446.52 240.34 448.08 240.34 Q 450.00 240.34 451.32 239.24 Q 452.64 238.14 453.11 235.97 z"/>
          <title>Punkt C</title>
          <desc>C = (3.65, 2.47)</desc>
        </g>
      </g>
      <g clip-path="url(#clip19)">
        <g stroke-width="4.5000" fill="none" stroke-opacity="1.0000" stroke="#fff">
          <path d="M 63.000 223.00 L 54.000 232.00"/>
          <title>Punkt A</title>
          <desc>A = (-3.35, 1.94)</desc>
        </g>
      </g>
      <g clip-path="url(#clip20)">
        <g stroke-width="4.5000" fill="none" stroke-opacity="1.0000" stroke="#fff">
          <path d="M 54.000 232.00 L 63.000 241.00"/>
          <title>Punkt A</title>
          <desc>A = (-3.35, 1.94)</desc>
        </g>
      </g>
      <g clip-path="url(#clip21)">
        <g stroke-width="4.5000" fill="none" stroke-opacity="1.0000" stroke="#fff">
          <path d="M 63.000 241.00 L 72.000 232.00"/>
          <title>Punkt A</title>
          <desc>A = (-3.35, 1.94)</desc>
        </g>
      </g>
      <g clip-path="url(#clip22)">
        <g stroke-width="4.5000" fill="none" stroke-opacity="1.0000" stroke="#fff">
          <path d="M 72.000 232.00 L 63.000 223.00"/>
          <title>Punkt A</title>
          <desc>A = (-3.35, 1.94)</desc>
        </g>
      </g>
      <g clip-path="url(#clip23)">
        <g fill-opacity="1.0000" fill-rule="nonzero" stroke="none" fill="#fff">
          <path d="M 53.969 270.00 L 60.562 252.81 L 63.016 252.81 L 70.047 270.00 L 67.453 270.00 L 65.453 264.80 L 58.266 264.80 L 56.375 270.00 L 53.969 270.00 z M 58.922 262.94 L 64.750 262.94 L 62.953 258.19 Q 62.141 256.02 61.734 254.62 Q 61.406 256.28 60.812 257.91 L 58.922 262.94 z"/>
          <title>Punkt A</title>
          <desc>A = (-3.35, 1.94)</desc>
        </g>
      </g>
      <g clip-path="url(#clip24)">
        <g stroke-width="4.5000" fill="none" stroke-opacity="1.0000" stroke="#7d7dff">
          <path d="M 196.37 212.95 L 187.37 221.95"/>
          <title>Punkt B</title>
          <desc>Punkt B: Punkt auf m</desc>
        </g>
      </g>
      <g clip-path="url(#clip25)">
        <g stroke-width="4.5000" fill="none" stroke-opacity="1.0000" stroke="#7d7dff">
          <path d="M 187.37 221.95 L 196.37 230.95"/>
          <title>Punkt B</title>
          <desc>Punkt B: Punkt auf m</desc>
        </g>
      </g>
      <g clip-path="url(#clip26)">
        <g stroke-width="4.5000" fill="none" stroke-opacity="1.0000" stroke="#7d7dff">
          <path d="M 196.37 230.95 L 205.37 221.95"/>
          <title>Punkt B</title>
          <desc>Punkt B: Punkt auf m</desc>
        </g>
      </g>
      <g clip-path="url(#clip27)">
        <g stroke-width="4.5000" fill="none" stroke-opacity="1.0000" stroke="#7d7dff">
          <path d="M 205.37 221.95 L 196.37 212.95"/>
          <title>Punkt B</title>
          <desc>Punkt B: Punkt auf m</desc>
        </g>
      </g>
      <g clip-path="url(#clip28)">
        <g fill-opacity="1.0000" fill-rule="nonzero" stroke="none" fill="#7d7dff">
          <path d="M 193.77 262.00 L 193.77 244.81 L 200.20 244.81 Q 202.17 244.81 203.36 245.34 Q 204.55 245.86 205.23 246.95 Q 205.91 248.03 205.91 249.22 Q 205.91 250.31 205.30 251.29 Q 204.70 252.27 203.50 252.86 Q 205.06 253.31 205.90 254.41 Q 206.73 255.52 206.73 257.02 Q 206.73 258.22 206.23 259.26 Q 205.72 260.30 204.97 260.86 Q 204.22 261.42 203.09 261.71 Q 201.95 262.00 200.31 262.00 L 193.77 262.00 z M 196.03 252.03 L 199.75 252.03 Q 201.27 252.03 201.92 251.84 Q 202.78 251.58 203.22 250.98 Q 203.66 250.39 203.66 249.48 Q 203.66 248.62 203.25 247.98 Q 202.84 247.33 202.08 247.09 Q 201.31 246.84 199.47 246.84 L 196.03 246.84 L 196.03 252.03 z M 196.03 259.97 L 200.31 259.97 Q 201.41 259.97 201.86 259.89 Q 202.64 259.75 203.17 259.42 Q 203.70 259.09 204.04 258.47 Q 204.38 257.84 204.38 257.02 Q 204.38 256.06 203.88 255.35 Q 203.39 254.64 202.52 254.35 Q 201.64 254.06 200.00 254.06 L 196.03 254.06 L 196.03 259.97 z"/>
          <title>Punkt B</title>
          <desc>Punkt B: Punkt auf m</desc>
        </g>
      </g>
      <g clip-path="url(#clip29)">
        <g stroke-width="1.5000" fill="none" stroke-opacity="1.0000" stroke="#444444">
          <path d="M 121.16 224.39 L 127.16 230.39"/>
          <title>Punkt D</title>
          <desc>Punkt D: Schnittpunkt von m, h</desc>
        </g>
      </g>
      <g clip-path="url(#clip30)">
        <g stroke-width="1.5000" fill="none" stroke-opacity="1.0000" stroke="#444444">
          <path d="M 121.16 230.39 L 127.16 224.39"/>
          <title>Punkt D</title>
          <desc>Punkt D: Schnittpunkt von m, h</desc>
        </g>
      </g>
      <g clip-path="url(#clip31)">
        <g stroke-width="1.5000" fill="none" stroke-opacity="1.0000" stroke="#444444">
          <path d="M 235.87 114.73 L 241.87 120.73"/>
          <title>Punkt E</title>
          <desc>Punkt E: Schnittpunkt von i, l</desc>
        </g>
      </g>
      <g clip-path="url(#clip32)">
        <g stroke-width="1.5000" fill="none" stroke-opacity="1.0000" stroke="#444444">
          <path d="M 235.87 120.73 L 241.87 114.73"/>
          <title>Punkt E</title>
          <desc>Punkt E: Schnittpunkt von i, l</desc>
        </g>
      </g>
    </g>
  </g>
  <path d="M 122.027 258.91 L 122.027 265.87 L 119.677 265.87 L 119.677 248.1 L 126.237 248.1 C 128.184 248.1 129.707 248.597 130.807 249.59 C 131.907 250.583 132.457 251.897 132.457 253.53 C 132.457 255.257 131.92 256.583 130.847 257.51 C 129.767 258.443 128.22 258.91 126.207 258.91 L 122.027 258.91 M 122.027 257 L 126.237 257 C 127.49 257 128.45 256.703 129.117 256.11 C 129.784 255.523 130.117 254.67 130.117 253.55 C 130.117 252.497 129.784 251.65 129.117 251.01 C 128.45 250.377 127.534 250.05 126.367 250.03 L 122.027 250.03 L 122.027 257 ZM 136.477 248.47 L 136.217 252.97 L 134.647 252.97 L 134.657 247.12 L 136.477 247.12 L 136.477 248.47 Z" transform="matrix(1, 0, 0, 1, 0, 0)" style="fill: #fff; white-space: pre;"/>
  <path d="M 256.504 152.446 L 256.504 134.676 L 262.314 134.676 C 264.247 134.676 265.701 135.073 266.674 135.866 C 267.641 136.666 268.124 137.846 268.124 139.406 C 268.124 140.239 267.891 140.976 267.424 141.616 C 266.951 142.249 266.307 142.743 265.494 143.096 C 266.454 143.363 267.211 143.873 267.764 144.626 C 268.324 145.379 268.604 146.276 268.604 147.316 C 268.604 148.916 268.087 150.169 267.054 151.076 C 266.021 151.989 264.561 152.446 262.674 152.446 L 256.504 152.446 M 258.854 144.136 L 258.854 150.526 L 262.724 150.526 C 263.811 150.526 264.671 150.246 265.304 149.686 C 265.931 149.119 266.244 148.339 266.244 147.346 C 266.244 145.206 265.081 144.136 262.754 144.136 L 258.854 144.136 M 258.854 142.256 L 262.394 142.256 C 263.414 142.256 264.234 141.999 264.854 141.486 C 265.467 140.973 265.774 140.276 265.774 139.396 C 265.774 138.423 265.487 137.713 264.914 137.266 C 264.347 136.826 263.481 136.606 262.314 136.606 L 258.854 136.606 L 258.854 142.256 ZM 273.096 135.046 L 272.836 139.546 L 271.266 139.546 L 271.276 133.696 L 273.096 133.696 L 273.096 135.046 Z" transform="matrix(0.9999989867210388, 0, 0, 1, -15.819868087768555, -51.587162017822266)" style="fill: #fff; white-space: pre;"/>
  <text x="14.378" y="220.225"/>
  <path d="M 22.25 219.83 C 20.863 219.777 19.75 219.323 18.91 218.47 C 18.07 217.617 17.577 216.47 17.43 215.03 C 17.343 214.137 17.367 213.247 17.5 212.36 L 17.61 211.63 C 16.417 212.05 15.05 212.283 13.51 212.33 L 13.75 210.45 C 15.097 210.43 16.463 210.16 17.85 209.64 L 19.46 200.14 C 19.613 198.893 19.92 197.76 20.38 196.74 C 20.84 195.72 21.407 194.973 22.08 194.5 C 22.753 194.02 23.517 193.797 24.37 193.83 C 25.443 193.863 26.267 194.35 26.84 195.29 C 27.407 196.237 27.63 197.49 27.51 199.05 L 27.42 199.79 C 27.147 201.983 26.317 204.06 24.93 206.02 C 23.55 207.98 21.813 209.547 19.72 210.72 L 19.39 212.89 L 19.32 214.3 C 19.32 215.453 19.58 216.36 20.1 217.02 C 20.613 217.68 21.367 218.043 22.36 218.11 L 22.25 219.83 M 19.99 208.48 C 21.517 207.36 22.77 206.003 23.75 204.41 C 24.73 202.817 25.307 201.183 25.48 199.51 L 25.53 199.06 L 25.6 198.07 C 25.62 197.337 25.51 196.737 25.27 196.27 C 25.023 195.81 24.663 195.567 24.19 195.54 C 23.51 195.5 22.937 195.81 22.47 196.47 C 21.997 197.137 21.647 198.357 21.42 200.13 L 19.99 208.48 Z" transform="matrix(1, 0, 0, 1, 0, 0)" style="fill: rgb(0, 204, 0); white-space: pre;"/>
</svg>