<?xml version="1.0" encoding="utf-8"?>
<!DOCTYPE svg PUBLIC "-//W3C//DTD SVG 1.1//EN" "http://www.w3.org/Graphics/SVG/1.1/DTD/svg11.dtd">
<svg version="1.1" id="Layer_1" xmlns="http://www.w3.org/2000/svg" xmlns:xlink="http://www.w3.org/1999/xlink" x="0px" y="0px"
	 width="270px" height="270px" viewBox="0 0 270 270" enable-background="new 0 0 270 270" xml:space="preserve">
<line fill="none" stroke="#0081CD" stroke-width="3" stroke-miterlimit="10" x1="0" y1="225" x2="112.333" y2="0.333"/>
<line fill="none" stroke="#0081CD" stroke-width="3" stroke-miterlimit="10" x1="0" y1="261" x2="270" y2="81"/>
<line fill="none" stroke="#0081CD" stroke-width="3" stroke-miterlimit="10" x1="144" y1="270" x2="270" y2="144"/>
<circle fill="#BC1E47" stroke="#000000" stroke-miterlimit="10" cx="27" cy="27" r="6"/>
<circle fill="#BC1E47" stroke="#000000" stroke-miterlimit="10" cx="99" cy="27" r="6"/>
<circle fill="#BC1E47" stroke="#000000" stroke-miterlimit="10" cx="171" cy="27" r="6"/>
<circle fill="#BC1E47" stroke="#000000" stroke-miterlimit="10" cx="243" cy="27" r="6"/>
<circle fill="#BC1E47" stroke="#000000" stroke-miterlimit="10" cx="27" cy="99" r="6"/>
<circle fill="#BC1E47" stroke="#000000" stroke-miterlimit="10" cx="99" cy="99" r="6"/>
<circle fill="#BC1E47" stroke="#000000" stroke-miterlimit="10" cx="171" cy="99" r="6"/>
<circle fill="#BC1E47" stroke="#000000" stroke-miterlimit="10" cx="243" cy="99" r="6"/>
<circle fill="#BC1E47" stroke="#000000" stroke-miterlimit="10" cx="27" cy="171" r="6"/>
<circle fill="#BC1E47" stroke="#000000" stroke-miterlimit="10" cx="99" cy="171" r="6"/>
<circle fill="#BC1E47" stroke="#000000" stroke-miterlimit="10" cx="171" cy="171" r="6"/>
<circle fill="#BC1E47" stroke="#000000" stroke-miterlimit="10" cx="243" cy="171" r="6"/>
<circle fill="#BC1E47" stroke="#000000" stroke-miterlimit="10" cx="27" cy="243" r="6"/>
<circle fill="#BC1E47" stroke="#000000" stroke-miterlimit="10" cx="99" cy="243" r="6"/>
<circle fill="#BC1E47" stroke="#000000" stroke-miterlimit="10" cx="171" cy="243" r="6"/>
<circle fill="#BC1E47" stroke="#000000" stroke-miterlimit="10" cx="243" cy="243" r="6"/>
</svg>
