<?xml version="1.0" encoding="utf-8" standalone="no"?>
<!DOCTYPE svg PUBLIC "-//W3C//DTD SVG 1.1//EN"
  "http://www.w3.org/Graphics/SVG/1.1/DTD/svg11.dtd">
<svg xmlns:xlink="http://www.w3.org/1999/xlink" width="347.04pt" height="347.04pt" viewBox="0 0 347.04 347.04" xmlns="http://www.w3.org/2000/svg" version="1.1">
 <metadata>
  <rdf:RDF xmlns:dc="http://purl.org/dc/elements/1.1/" xmlns:cc="http://creativecommons.org/ns#" xmlns:rdf="http://www.w3.org/1999/02/22-rdf-syntax-ns#">
   <cc:Work>
    <dc:type rdf:resource="http://purl.org/dc/dcmitype/StillImage"/>
    <dc:date>2026-04-10T02:40:59.940886</dc:date>
    <dc:format>image/svg+xml</dc:format>
    <dc:creator>
     <cc:Agent>
      <dc:title>Matplotlib v3.5.2, https://matplotlib.org/</dc:title>
     </cc:Agent>
    </dc:creator>
   </cc:Work>
  </rdf:RDF>
 </metadata>
 <defs>
  <style type="text/css">*{stroke-linejoin: round; stroke-linecap: butt}</style>
 </defs>
 <g id="figure_1">
  <g id="patch_1">
   <path d="M 0 347.04 
L 347.04 347.04 
L 347.04 -0 
L 0 -0 
L 0 347.04 
z
" style="fill: none; opacity: 0"/>
  </g>
  <g id="axes_1">
   <g id="line2d_1">
    <path d="M 324.72 173.52 
L 324.586929 167.177837 
L 324.187949 160.846838 
L 323.523764 154.538146 
L 322.595542 148.262865 
L 321.404917 142.032043 
L 319.953984 135.856645 
L 318.245298 129.747543 
L 316.281867 123.715489 
L 314.067146 117.771101 
L 311.605034 111.924842 
L 308.899864 106.187003 
L 305.956398 100.567684 
L 302.779818 95.076775 
L 299.375714 89.723943 
L 295.750079 84.518608 
L 291.909295 79.469934 
L 287.860121 74.586807 
L 283.609686 69.877822 
L 279.16547 65.351268 
L 274.535298 61.015113 
L 269.727318 56.876989 
L 264.749994 52.944181 
L 259.612087 49.22361 
L 254.32264 45.721826 
L 248.890964 42.444992 
L 243.326621 39.398877 
L 237.639403 36.588842 
L 231.839323 34.019833 
L 225.936589 31.696373 
L 219.941591 29.622551 
L 213.864881 27.802017 
L 207.717157 26.237976 
L 201.509239 24.933182 
L 195.252054 23.88993 
L 188.956616 23.110057 
L 182.634007 22.594936 
L 176.295355 22.345474 
L 169.951818 22.362109 
L 163.614561 22.644812 
L 157.294741 23.193086 
L 151.00348 24.005966 
L 144.751852 25.082021 
L 138.550863 26.419356 
L 132.411426 28.015618 
L 126.344348 29.867997 
L 120.360309 31.973233 
L 114.469842 34.327619 
L 108.683315 36.927012 
L 103.010914 39.766836 
L 97.462623 42.842093 
L 92.048208 46.147369 
L 86.7772 49.676847 
L 81.658876 53.424313 
L 76.702247 57.383172 
L 71.916037 61.546456 
L 67.30867 65.906835 
L 62.888256 70.456635 
L 58.662576 75.187848 
L 54.639069 80.092144 
L 50.824816 85.160893 
L 47.226531 90.385171 
L 43.850548 95.755784 
L 40.70281 101.263277 
L 37.788856 106.897957 
L 35.113817 112.649904 
L 32.682401 118.508996 
L 30.498887 124.464918 
L 28.567118 130.507186 
L 26.890497 136.625166 
L 25.471972 142.808088 
L 24.314042 149.04507 
L 23.418745 155.325132 
L 22.787656 161.637221 
L 22.421886 167.970226 
L 22.32208 174.312999 
L 22.488412 180.654377 
L 22.92059 186.983197 
L 23.617853 193.288319 
L 24.578975 199.558645 
L 25.802262 205.783137 
L 27.285563 211.95084 
L 29.026266 218.050897 
L 31.021306 224.07257 
L 33.267174 230.005261 
L 35.759914 235.838526 
L 38.49514 241.562098 
L 41.468037 247.165903 
L 44.673371 252.640075 
L 48.105502 257.974981 
L 51.758388 263.161228 
L 55.625599 268.189689 
L 59.700327 273.051513 
L 63.975401 277.738141 
L 68.443296 282.241324 
L 73.096146 286.553135 
L 77.925763 290.665986 
L 82.923645 294.572635 
L 88.080995 298.266208 
L 93.388735 301.740203 
L 98.837522 304.988504 
L 104.417765 308.005394 
L 110.119642 310.785562 
L 115.933116 313.324116 
L 121.847955 315.616586 
L 127.853747 317.658938 
L 133.939921 319.447576 
L 140.095764 320.979352 
L 146.31044 322.25157 
L 152.573011 323.26199 
L 158.872452 324.008835 
L 165.197676 324.490788 
L 171.537549 324.707003 
L 177.880912 324.657098 
L 184.216598 324.341162 
L 190.533456 323.759749 
L 196.820368 322.913885 
L 203.066265 321.805057 
L 209.260156 320.435218 
L 215.391136 318.806778 
L 221.448415 316.922605 
L 227.421331 314.786013 
L 233.299369 312.400766 
L 239.072183 309.77106 
L 244.729612 306.901525 
L 250.261698 303.797211 
L 255.658704 300.463583 
L 260.911128 296.906509 
L 266.009727 293.13225 
L 270.945525 289.14745 
L 275.709834 284.959121 
L 280.294269 280.574638 
L 284.69076 276.001717 
L 288.891567 271.248407 
L 292.889298 266.323075 
L 296.676914 261.234392 
L 300.24775 255.991313 
L 303.595519 250.603069 
L 306.714329 245.079142 
L 309.59869 239.429257 
L 312.243525 233.663359 
L 314.644179 227.791596 
L 316.796426 221.824304 
L 318.696477 215.771987 
L 320.340989 209.645298 
L 321.727066 203.455021 
L 322.852269 197.212052 
L 323.714617 190.927381 
L 324.312593 184.612069 
L 324.645143 178.277233 
L 324.72 173.52 
L 324.72 173.52 
" clip-path="url(#pc559138662)" style="fill: none; stroke: #ffffff; stroke-width: 2; stroke-linecap: square"/>
   </g>
   <g id="line2d_2">
    <path d="M 173.52 22.32 
L 220.24337 22.32 
L 220.24337 29.720255 
L 262.39313 29.720255 
L 262.39313 51.19663 
L 295.84337 51.19663 
L 295.84337 84.64687 
L 317.319745 84.64687 
L 317.319745 126.79663 
L 324.72 126.79663 
L 324.72 173.52 
L 324.72 220.24337 
L 317.319745 220.24337 
L 317.319745 262.39313 
L 295.84337 262.39313 
L 295.84337 295.84337 
L 262.39313 295.84337 
L 262.39313 317.319745 
L 220.24337 317.319745 
L 220.24337 324.72 
L 173.52 324.72 
L 126.79663 324.72 
L 126.79663 317.319745 
L 84.64687 317.319745 
L 84.64687 295.84337 
L 51.19663 295.84337 
L 51.19663 262.39313 
L 29.720255 262.39313 
L 29.720255 220.24337 
L 22.32 220.24337 
L 22.32 173.52 
L 22.32 126.79663 
L 29.720255 126.79663 
L 29.720255 84.64687 
L 51.19663 84.64687 
L 51.19663 51.19663 
L 84.64687 51.19663 
L 84.64687 29.720255 
L 126.79663 29.720255 
L 126.79663 22.32 
L 173.52 22.32 
L 173.52 22.32 
" clip-path="url(#pc559138662)" style="fill: none; stroke: #ffffff; stroke-width: 2; stroke-linecap: square"/>
   </g>
  </g>
 </g>
 <defs>
  <clipPath id="pc559138662">
   <rect x="7.2" y="7.2" width="332.64" height="332.64"/>
  </clipPath>
 </defs>
</svg>
