<?xml version="1.0" encoding="utf-8" standalone="no"?>
<!DOCTYPE svg PUBLIC "-//W3C//DTD SVG 1.1//EN"
  "http://www.w3.org/Graphics/SVG/1.1/DTD/svg11.dtd">
<svg xmlns:xlink="http://www.w3.org/1999/xlink" width="478.921875pt" height="266.259559pt" viewBox="0 0 478.921875 266.259559" xmlns="http://www.w3.org/2000/svg" version="1.1">
 <metadata>
  <rdf:RDF xmlns:dc="http://purl.org/dc/elements/1.1/" xmlns:cc="http://creativecommons.org/ns#" xmlns:rdf="http://www.w3.org/1999/02/22-rdf-syntax-ns#">
   <cc:Work>
    <dc:type rdf:resource="http://purl.org/dc/dcmitype/StillImage"/>
    <dc:date>2025-12-15T21:52:43.362397</dc:date>
    <dc:format>image/svg+xml</dc:format>
    <dc:creator>
     <cc:Agent>
      <dc:title>Matplotlib v3.5.2, https://matplotlib.org/</dc:title>
     </cc:Agent>
    </dc:creator>
   </cc:Work>
  </rdf:RDF>
 </metadata>
 <defs>
  <style type="text/css">*{stroke-linejoin: round; stroke-linecap: butt}</style>
 </defs>
 <g id="figure_1">
  <g id="patch_1">
   <path d="M 0 266.259559 
L 478.921875 266.259559 
L 478.921875 0 
L 0 0 
z
"/>
  </g>
  <g id="axes_1">
   <g id="patch_2">
    <path d="M 25.321875 242.914247 
L 471.721875 242.914247 
L 471.721875 7.2 
L 25.321875 7.2 
z
"/>
   </g>
   <g id="PatchCollection_1">
    <path d="M 308.162519 144.937799 
L 320.483375 145.082915 
L 321.71546 152.677242 
L 323.448078 163.851053 
L 324.256636 166.317999 
L 325.026684 167.720769 
L 324.718666 168.591457 
L 325.527224 169.123549 
L 324.333642 170.236088 
L 324.372145 171.348635 
L 323.756096 172.84815 
L 324.449144 175.508584 
L 323.948611 177.830414 
L 324.718666 180.248988 
L 321.253423 180.29736 
L 306.468397 180.29736 
L 306.237385 181.458271 
L 307.815991 183.151273 
L 307.546476 184.602425 
L 308.085513 185.327996 
L 307.045936 186.634023 
L 306.083373 186.924255 
L 304.312252 185.473103 
L 304.119736 183.296389 
L 303.5807 183.054529 
L 302.926154 184.69916 
L 302.695136 186.295419 
L 300.885512 185.860079 
L 300.346475 172.364438 
L 301.963584 155.579527 
L 302.964658 145.905231 
L 302.233106 144.986171 
L 308.162519 144.937799 
" clip-path="url(#pef8ad658c9)" style="fill: #ffffff; stroke: #000000"/>
    <path d="M 155.730434 127.282209 
L 155.691931 177.346703 
L 141.445941 177.346703 
L 133.206371 174.057441 
L 115.148617 167.091942 
L 115.803163 165.108716 
L 117.189253 164.770112 
L 117.574284 163.996169 
L 117.189253 162.351538 
L 116.22669 162.303166 
L 115.76466 159.013905 
L 117.189253 157.75625 
L 117.381768 156.450214 
L 117.112254 154.370244 
L 117.959308 152.822358 
L 119.075883 152.241894 
L 119.922944 151.080983 
L 118.536847 149.823319 
L 117.574284 147.501489 
L 116.419205 146.050347 
L 116.419205 144.937799 
L 116.842732 143.728517 
L 116.68872 142.083886 
L 116.11118 140.390883 
L 115.687653 135.215131 
L 118.267333 134.876536 
L 119.114387 135.940711 
L 119.807435 135.892339 
L 120.538987 134.392816 
L 120.538987 127.282209 
L 145.488724 127.233837 
L 155.730434 127.282209 
" clip-path="url(#pef8ad658c9)" style="fill: #ffffff; stroke: #000000"/>
    <path d="M 258.147543 131.684018 
L 288.526152 131.73239 
L 289.142195 133.425393 
L 288.064122 134.48956 
L 286.94754 136.13419 
L 291.490855 136.13419 
L 291.259844 137.778821 
L 290.220267 138.262541 
L 289.989256 139.61694 
L 288.680165 141.068083 
L 288.795674 143.196433 
L 288.102625 144.74432 
L 287.409577 144.986171 
L 287.833104 145.760115 
L 286.716528 146.437323 
L 286.215995 147.936838 
L 285.484443 148.323805 
L 285.599953 150.06518 
L 284.329365 150.5489 
L 284.367861 151.129355 
L 282.904764 152.580498 
L 283.328291 153.547929 
L 282.057703 154.9507 
L 280.941128 157.659506 
L 282.173212 158.820416 
L 281.55717 159.545988 
L 281.942194 161.384107 
L 281.403158 162.593398 
L 264.230968 162.448282 
L 261.189252 162.448282 
L 261.189252 157.75625 
L 260.188186 157.369274 
L 258.802088 157.804622 
L 258.070537 156.982307 
L 258.455567 141.455059 
L 257.146476 131.684018 
L 258.147543 131.684018 
" clip-path="url(#pef8ad658c9)" style="fill: #ffffff; stroke: #000000"/>
    <path d="M 55.970004 83.070677 
L 61.976423 83.022305 
L 71.409575 83.167421 
L 78.686582 83.167421 
L 78.725085 98.452809 
L 78.686582 109.62662 
L 87.734711 117.559541 
L 96.282306 125.347356 
L 103.02027 131.684018 
L 107.87161 136.37605 
L 116.419205 144.937799 
L 116.419205 146.050347 
L 117.574284 147.501489 
L 118.536847 149.823319 
L 119.922944 151.080983 
L 119.075883 152.241894 
L 117.959308 152.822358 
L 117.112254 154.370244 
L 117.381768 156.450214 
L 117.189253 157.75625 
L 115.76466 159.013905 
L 116.22669 162.303166 
L 117.189253 162.351538 
L 117.574284 163.996169 
L 117.189253 164.770112 
L 115.803163 165.108716 
L 106.485513 165.931031 
L 98.900488 166.704975 
L 98.053427 165.544055 
L 98.014924 163.705937 
L 97.475888 161.529223 
L 96.474814 159.981336 
L 94.280166 157.852994 
L 91.469468 155.869759 
L 90.930432 156.401842 
L 89.85236 156.063247 
L 90.006365 155.19256 
L 88.77428 153.402813 
L 87.118668 153.789789 
L 84.192461 152.483754 
L 83.768934 151.419578 
L 81.805298 150.113552 
L 79.572146 150.161924 
L 77.724019 149.581468 
L 75.375351 149.823319 
L 74.143266 148.662409 
L 74.412788 146.195463 
L 73.989254 145.808487 
L 74.258776 144.067121 
L 72.410648 142.761085 
L 72.333642 140.971339 
L 71.640594 140.874595 
L 70.485515 139.326708 
L 69.676957 138.988113 
L 69.330436 138.020681 
L 66.635248 134.392816 
L 65.36466 133.328649 
L 65.095138 130.474727 
L 65.634174 130.716587 
L 66.134708 129.023584 
L 65.133641 127.475698 
L 63.901556 127.669186 
L 62.28444 126.266406 
L 61.706901 125.153867 
L 61.82241 124.089692 
L 61.013852 122.686921 
L 61.013852 120.365091 
L 62.322944 120.365091 
L 61.783907 117.124202 
L 61.206368 117.462797 
L 61.090859 119.059056 
L 59.704761 119.39766 
L 58.049149 118.188368 
L 57.779628 116.108398 
L 56.701555 114.463768 
L 55.276955 113.447964 
L 54.5069 112.287054 
L 52.427761 110.013596 
L 52.774282 109.336388 
L 51.811719 106.38573 
L 52.235246 104.741099 
L 51.619203 102.274153 
L 49.809579 99.855579 
L 48.038451 98.501181 
L 47.69193 96.904922 
L 49.463051 93.035196 
L 49.809579 91.72917 
L 49.463051 90.713366 
L 50.117597 88.052941 
L 49.540057 85.634367 
L 48.770003 85.053903 
L 49.078027 83.119049 
L 55.970004 83.070677 
" clip-path="url(#pef8ad658c9)" style="fill: #ffffff; stroke: #000000"/>
    <path d="M 163.623477 91.922658 
L 179.024552 91.97103 
L 190.806365 91.922658 
L 204.859846 91.922658 
L 204.859846 100.774639 
L 204.936845 127.330581 
L 198.198881 127.282209 
L 188.804225 127.330581 
L 171.015993 127.330581 
L 167.127223 127.282209 
L 155.730434 127.282209 
L 155.730434 116.979086 
L 155.614925 116.011654 
L 155.653428 108.514072 
L 155.691931 91.97103 
L 163.623477 91.922658 
" clip-path="url(#pef8ad658c9)" style="fill: #ffffff; stroke: #000000"/>
    <path d="M 408.7315 82.780445 
L 417.54861 82.925561 
L 417.54861 83.070677 
L 417.54861 88.294792 
L 417.125083 89.117108 
L 416.50904 88.971992 
L 413.428828 89.6492 
L 409.77107 89.455712 
L 408.192464 90.664994 
L 406.498342 91.05197 
L 404.496202 92.067774 
L 403.995669 91.05197 
L 405.728287 90.084539 
L 405.227754 89.358968 
L 405.689791 82.683701 
L 408.7315 82.780445 
" clip-path="url(#pef8ad658c9)" style="fill: #ffffff; stroke: #000000"/>
    <path d="M 392.13685 102.516013 
L 391.482304 103.58018 
L 390.750753 104.160644 
L 390.904758 105.563415 
L 391.944335 106.869441 
L 392.213849 109.046164 
L 393.715456 111.319622 
L 394.408504 111.416366 
L 394.716529 114.463768 
L 390.173213 114.367024 
L 389.518668 103.241585 
L 390.71225 102.274153 
L 392.13685 102.516013 
" clip-path="url(#pef8ad658c9)" style="fill: #ffffff; stroke: #000000"/>
    <path d="M 380.740054 109.674992 
L 381.625618 110.545679 
L 380.701551 111.464738 
L 380.162515 110.207075 
L 380.740054 109.674992 
" clip-path="url(#pef8ad658c9)" style="fill: #ffffff; stroke: #000000"/>
    <path d="M 321.253423 180.29736 
L 324.718666 180.248988 
L 325.681229 182.812678 
L 335.306904 183.393133 
L 344.316529 184.070333 
L 344.66305 185.956823 
L 345.510111 185.908451 
L 345.818129 184.118705 
L 345.548614 182.474074 
L 346.20316 181.796875 
L 347.820268 182.522446 
L 349.745402 182.86105 
L 350.168936 186.682395 
L 351.054493 190.98746 
L 353.095136 196.646923 
L 356.213851 202.693354 
L 355.751821 203.128702 
L 355.905833 205.934243 
L 357.214925 209.078389 
L 359.25556 215.41506 
L 359.679094 217.398286 
L 359.640591 219.429893 
L 358.870536 226.733987 
L 358.215991 226.879095 
L 357.522942 229.152562 
L 357.753961 229.878133 
L 356.406367 231.522764 
L 355.86733 231.135787 
L 354.558239 231.812987 
L 352.325081 232.199963 
L 351.670535 231.280904 
L 351.97856 229.926505 
L 350.399947 226.008416 
L 349.167863 225.282836 
L 348.08979 225.814928 
L 347.242729 223.638205 
L 347.01171 221.848467 
L 345.548614 219.865232 
L 345.202086 218.559206 
L 345.433105 216.672715 
L 344.624547 216.334111 
L 344.817062 217.446658 
L 344.085511 217.73689 
L 341.852352 212.948114 
L 340.966795 211.738823 
L 343.084444 208.207701 
L 341.698347 208.401189 
L 340.77428 209.513737 
L 339.85022 207.772362 
L 341.082304 202.935214 
L 341.313316 198.920381 
L 340.466262 197.95295 
L 340.19674 196.646923 
L 338.849146 196.356691 
L 337.27054 194.228349 
L 335.999945 193.357662 
L 335.922946 192.051626 
L 335.037382 191.567915 
L 334.30583 190.116772 
L 331.610642 188.181909 
L 329.261982 188.617258 
L 329.377491 189.971656 
L 328.607436 189.729796 
L 325.681229 191.374427 
L 322.562514 191.761403 
L 322.63952 190.793972 
L 321.907968 189.633052 
L 318.250217 187.020999 
L 315.632034 185.908451 
L 313.283374 185.618219 
L 311.319737 185.811707 
L 307.045936 186.634023 
L 308.085513 185.327996 
L 307.546476 184.602425 
L 307.815991 183.151273 
L 306.237385 181.458271 
L 306.468397 180.29736 
L 321.253423 180.29736 
" clip-path="url(#pef8ad658c9)" style="fill: #ffffff; stroke: #000000"/>
    <path d="M 338.040588 144.937799 
L 336.538989 146.82429 
L 336.423479 147.743349 
L 338.77214 149.62984 
L 339.503692 149.484724 
L 340.581764 151.419578 
L 340.812783 152.435382 
L 341.929358 154.2735 
L 343.546474 155.386048 
L 344.470534 157.030679 
L 346.357165 158.530193 
L 346.280166 159.545988 
L 347.512251 161.190619 
L 349.398881 162.545026 
L 349.860911 163.996169 
L 349.937917 165.882659 
L 350.900481 166.511487 
L 352.017063 168.881689 
L 352.055566 170.381204 
L 353.672675 171.155147 
L 351.940057 174.154176 
L 351.632032 175.702072 
L 350.900481 177.05647 
L 350.823481 178.459241 
L 350.053427 179.088068 
L 349.745402 182.86105 
L 347.820268 182.522446 
L 346.20316 181.796875 
L 345.548614 182.474074 
L 345.818129 184.118705 
L 345.510111 185.908451 
L 344.66305 185.956823 
L 344.316529 184.070333 
L 335.306904 183.393133 
L 325.681229 182.812678 
L 324.718666 180.248988 
L 323.948611 177.830414 
L 324.449144 175.508584 
L 323.756096 172.84815 
L 324.372145 171.348635 
L 324.333642 170.236088 
L 325.527224 169.123549 
L 324.718666 168.591457 
L 325.026684 167.720769 
L 324.256636 166.317999 
L 323.448078 163.851053 
L 321.71546 152.677242 
L 320.483375 145.082915 
L 329.531503 145.034543 
L 334.459843 145.082915 
L 338.040588 144.937799 
" clip-path="url(#pef8ad658c9)" style="fill: #ffffff; stroke: #000000"/>
    <path d="M 106.485513 21.300289 
L 106.485513 30.345758 
L 108.757167 32.812704 
L 108.79567 35.231279 
L 110.143264 36.295445 
L 111.567865 36.682421 
L 111.721877 37.311249 
L 114.340059 39.681451 
L 114.648077 40.648882 
L 116.496204 41.567941 
L 116.573211 42.148397 
L 118.613853 42.100025 
L 117.612787 45.389286 
L 117.420272 47.469265 
L 118.151823 48.823664 
L 116.881235 49.791095 
L 117.381768 50.710154 
L 117.035248 51.677577 
L 118.536847 52.596636 
L 120.269472 51.387354 
L 120.962521 50.419922 
L 122.233109 51.29061 
L 122.040593 52.016181 
L 122.733642 53.709184 
L 123.888721 55.498931 
L 124.735782 56.127758 
L 124.697279 57.820761 
L 125.505837 58.546332 
L 126.968933 58.643076 
L 127.893 61.496989 
L 128.701558 61.980709 
L 129.433103 61.158394 
L 131.627758 61.206766 
L 133.244874 60.432823 
L 134.207437 60.868162 
L 135.863049 60.481195 
L 136.209577 60.964906 
L 137.634177 60.626302 
L 139.251286 58.788192 
L 140.367862 60.336079 
L 141.638457 61.255138 
L 141.638457 83.119049 
L 133.78391 83.167421 
L 120.57749 83.167421 
L 99.593537 83.119049 
L 99.593537 66.962974 
L 100.517597 64.060679 
L 99.940057 63.335108 
L 98.592463 63.189992 
L 98.09193 61.980709 
L 99.51653 58.836564 
L 100.248082 58.546332 
L 100.979627 57.240305 
L 100.864125 56.41799 
L 101.672675 55.353815 
L 102.096209 53.805928 
L 103.559306 51.193866 
L 102.981766 49.984583 
L 101.326155 49.355747 
L 100.363584 47.856232 
L 100.325088 46.308346 
L 99.401021 44.760459 
L 99.51653 44.034887 
L 99.478027 32.23224 
L 99.555033 21.300289 
L 106.485513 21.300289 
" clip-path="url(#pef8ad658c9)" style="fill: #ffffff; stroke: #000000"/>
    <path d="M 285.099412 78.620496 
L 298.113317 78.765612 
L 305.043796 78.765612 
L 304.812785 80.458615 
L 305.890857 82.441849 
L 307.007433 85.682739 
L 306.96893 106.530846 
L 306.198882 108.127105 
L 307.084439 110.013596 
L 307.199948 111.561482 
L 306.314384 112.819137 
L 306.083373 113.980056 
L 304.812785 115.866538 
L 304.004227 116.011654 
L 304.196742 117.124202 
L 303.657706 117.559541 
L 303.234172 119.63952 
L 303.465191 120.219975 
L 302.541123 121.47763 
L 303.195669 123.025517 
L 300.307972 123.847832 
L 300.038451 124.766891 
L 300.692996 125.927811 
L 299.807439 126.653382 
L 297.22776 125.298983 
L 296.419202 125.395728 
L 295.341122 126.943614 
L 295.68765 127.427325 
L 294.571075 127.330581 
L 292.992462 124.815263 
L 293.570001 124.234808 
L 292.992462 122.541805 
L 292.992462 121.187407 
L 290.720808 119.300916 
L 289.950753 119.494404 
L 289.180698 118.333485 
L 287.101552 116.543738 
L 287.140055 115.140967 
L 288.333637 112.867509 
L 288.141129 112.045194 
L 288.834177 110.981018 
L 287.833104 110.352191 
L 286.292994 109.965224 
L 285.484443 110.787539 
L 284.945407 110.255447 
L 284.48337 107.353162 
L 282.134709 105.466671 
L 279.978557 103.193213 
L 279.093 100.484407 
L 279.015994 98.69466 
L 279.632036 97.437005 
L 279.747546 95.840746 
L 281.711182 94.873315 
L 281.903691 93.518916 
L 282.827758 92.648229 
L 282.943267 91.100342 
L 281.788182 89.842679 
L 282.250219 88.294792 
L 284.98391 87.859453 
L 287.178558 86.746905 
L 287.409577 85.392507 
L 288.333637 84.812052 
L 288.603159 83.119049 
L 288.410643 82.006501 
L 286.832037 81.135814 
L 286.639522 80.216755 
L 285.099412 78.620496 
" clip-path="url(#pef8ad658c9)" style="fill: #ffffff; stroke: #000000"/>
    <path d="M 317.788186 85.247391 
L 326.104763 85.247391 
L 326.104763 85.827846 
L 326.143266 96.37283 
L 326.027757 108.70756 
L 325.488721 109.094536 
L 326.06626 111.51311 
L 324.834175 111.561482 
L 323.525084 112.383798 
L 321.71546 111.996822 
L 321.792459 113.738196 
L 320.598877 114.463768 
L 320.136847 115.576315 
L 318.904762 116.011654 
L 318.250217 118.23674 
L 317.441659 118.817205 
L 315.863053 117.994889 
L 315.593531 116.979086 
L 314.053422 118.091633 
L 314.168931 119.059056 
L 312.590325 119.39766 
L 312.128288 118.526973 
L 310.357167 119.39766 
L 309.779628 120.316719 
L 308.008506 119.010684 
L 307.084439 119.300916 
L 306.468397 118.672089 
L 305.890857 119.300916 
L 304.119736 119.39766 
L 303.465191 120.219975 
L 303.234172 119.63952 
L 303.657706 117.559541 
L 304.196742 117.124202 
L 304.004227 116.011654 
L 304.812785 115.866538 
L 306.083373 113.980056 
L 306.314384 112.819137 
L 307.199948 111.561482 
L 307.084439 110.013596 
L 306.198882 108.127105 
L 306.96893 106.530846 
L 307.007433 85.682739 
L 307.700482 86.263194 
L 309.856634 86.263194 
L 311.93578 85.247391 
L 317.788186 85.247391 
" clip-path="url(#pef8ad658c9)" style="fill: #ffffff; stroke: #000000"/>
    <path d="M 279.978557 69.865259 
L 281.056637 69.865259 
L 281.133636 71.171286 
L 282.173212 72.041973 
L 281.326151 73.106148 
L 281.55717 75.089383 
L 282.096206 76.492154 
L 284.598879 77.507957 
L 285.099412 78.620496 
L 286.639522 80.216755 
L 286.832037 81.135814 
L 288.410643 82.006501 
L 288.603159 83.119049 
L 288.333637 84.812052 
L 287.409577 85.392507 
L 287.178558 86.746905 
L 284.98391 87.859453 
L 282.250219 88.294792 
L 281.788182 89.842679 
L 282.943267 91.100342 
L 282.827758 92.648229 
L 281.903691 93.518916 
L 281.711182 94.873315 
L 279.747546 95.840746 
L 279.632036 97.437005 
L 278.861982 97.146773 
L 277.437381 95.357035 
L 276.70583 95.405407 
L 266.695138 95.647258 
L 257.030967 95.744002 
L 249.060911 95.598886 
L 248.252353 94.437976 
L 248.637384 92.164518 
L 247.944336 90.181283 
L 247.982839 87.956197 
L 246.750754 87.182254 
L 246.558238 85.972962 
L 246.981765 84.908787 
L 246.519735 83.3609 
L 245.557172 82.780445 
L 244.286584 78.813984 
L 242.977493 76.879121 
L 243.593535 75.573094 
L 243.824547 73.83172 
L 244.363583 73.202892 
L 243.478026 72.332205 
L 243.709038 70.784318 
L 243.324014 70.058747 
L 244.248081 69.865259 
L 279.978557 69.865259 
" clip-path="url(#pef8ad658c9)" style="fill: #ffffff; stroke: #000000"/>
    <path d="M 205.899415 100.774639 
L 252.295136 100.774639 
L 252.988185 101.596954 
L 255.259846 102.274153 
L 253.681233 104.837843 
L 254.566797 105.708531 
L 255.683373 107.788501 
L 257.184979 108.223849 
L 257.146476 127.282209 
L 218.682302 127.282209 
L 204.936845 127.330581 
L 204.859846 100.774639 
L 205.899415 100.774639 
" clip-path="url(#pef8ad658c9)" style="fill: #ffffff; stroke: #000000"/>
    <path d="M 332.457703 111.658218 
L 334.036316 112.867509 
L 335.152891 112.238682 
L 337.809577 112.915881 
L 338.579625 112.045194 
L 339.580698 111.754962 
L 339.888716 113.254485 
L 340.697274 113.496336 
L 341.659844 114.705628 
L 341.467328 117.366053 
L 342.314389 119.059056 
L 343.430965 120.365091 
L 343.777486 121.380895 
L 345.12508 122.396689 
L 346.049147 122.541805 
L 343.353959 124.912007 
L 340.77428 126.218043 
L 340.77428 126.895242 
L 339.73471 127.475698 
L 339.657704 128.249641 
L 338.31011 128.588245 
L 337.84808 129.555668 
L 334.074812 130.813331 
L 333.95931 130.958447 
L 327.95289 130.861703 
L 322.716526 130.571471 
L 321.330429 130.668215 
L 313.552888 130.329611 
L 304.697276 130.523099 
L 303.157166 130.136132 
L 303.272675 131.73239 
L 294.532572 131.635646 
L 293.685511 131.73239 
L 294.070534 130.619843 
L 295.110111 131.006819 
L 295.68765 127.427325 
L 295.341122 126.943614 
L 296.419202 125.395728 
L 297.22776 125.298983 
L 299.807439 126.653382 
L 300.692996 125.927811 
L 300.038451 124.766891 
L 300.307972 123.847832 
L 303.195669 123.025517 
L 302.541123 121.47763 
L 303.465191 120.219975 
L 304.119736 119.39766 
L 305.890857 119.300916 
L 306.468397 118.672089 
L 307.084439 119.300916 
L 308.008506 119.010684 
L 309.779628 120.316719 
L 310.357167 119.39766 
L 312.128288 118.526973 
L 312.590325 119.39766 
L 314.168931 119.059056 
L 314.053422 118.091633 
L 315.593531 116.979086 
L 315.863053 117.994889 
L 317.441659 118.817205 
L 318.250217 118.23674 
L 318.904762 116.011654 
L 320.136847 115.576315 
L 320.598877 114.463768 
L 321.792459 113.738196 
L 321.71546 111.996822 
L 323.525084 112.383798 
L 324.834175 111.561482 
L 326.06626 111.51311 
L 325.488721 109.094536 
L 326.027757 108.70756 
L 328.722945 108.70756 
L 330.147546 110.545679 
L 330.263048 111.319622 
L 332.457703 111.658218 
" clip-path="url(#pef8ad658c9)" style="fill: #ffffff; stroke: #000000"/>
    <path d="M 264.230968 162.448282 
L 281.403158 162.593398 
L 282.057703 163.609193 
L 281.55717 163.996169 
L 281.480164 165.785915 
L 282.519733 166.898454 
L 282.673746 169.510516 
L 281.826685 171.542123 
L 280.171073 172.799778 
L 279.747546 174.783012 
L 279.054497 174.589524 
L 278.938988 177.830414 
L 278.091927 177.927158 
L 278.59246 179.668533 
L 278.091927 180.29736 
L 291.375353 180.29736 
L 290.682305 183.199645 
L 291.837383 185.134508 
L 292.106898 186.585651 
L 292.953959 187.50471 
L 290.874813 188.713993 
L 290.720808 189.58468 
L 292.414923 190.165144 
L 293.146474 188.762365 
L 294.609578 190.165144 
L 294.494069 191.277683 
L 293.647007 191.761403 
L 292.068402 191.326055 
L 292.26091 192.14837 
L 291.721874 193.406034 
L 293.069468 194.518572 
L 295.22562 194.857176 
L 295.995668 196.163203 
L 296.61171 196.356691 
L 295.495135 197.856206 
L 294.26305 197.565983 
L 293.223481 196.018087 
L 290.643801 195.19578 
L 290.643801 193.696257 
L 289.373213 194.179977 
L 289.45022 195.437632 
L 288.872673 196.598551 
L 287.948613 196.792039 
L 287.255564 195.486004 
L 285.638449 195.437632 
L 285.060909 196.792039 
L 283.982837 197.179006 
L 282.827758 196.356691 
L 281.903691 196.259947 
L 281.018134 194.083233 
L 279.439521 193.115802 
L 278.823479 193.260918 
L 278.207436 191.422799 
L 276.359309 191.664659 
L 276.320806 190.552112 
L 274.511181 191.616287 
L 274.742193 192.438602 
L 273.356103 193.212546 
L 271.199951 192.82557 
L 268.697278 191.616287 
L 266.926149 191.084204 
L 263.114385 191.519543 
L 262.613852 191.858147 
L 261.99781 190.98746 
L 263.653429 187.843314 
L 263.114385 186.150311 
L 263.614926 185.231252 
L 263.383907 184.021961 
L 264.076956 183.102901 
L 264.808507 180.829443 
L 264.692998 178.942961 
L 262.767865 175.363468 
L 262.729362 173.428605 
L 261.189252 171.493751 
L 261.189252 162.448282 
L 264.230968 162.448282 
" clip-path="url(#pef8ad658c9)" style="fill: #ffffff; stroke: #000000"/>
    <path d="M 425.249144 73.783348 
L 424.40209 73.15452 
L 424.517592 72.283833 
L 423.401017 71.26803 
L 422.938987 59.658879 
L 422.592459 53.951044 
L 425.634175 52.741752 
L 425.133635 52.112925 
L 426.288721 50.758526 
L 427.482302 50.12969 
L 427.251284 49.597607 
L 428.367859 48.775292 
L 428.021339 47.227405 
L 428.714387 44.905575 
L 429.79246 44.131632 
L 430.215994 41.664685 
L 435.644867 34.892674 
L 436.915455 35.182907 
L 436.992461 36.827537 
L 437.916528 37.407993 
L 440.188182 36.440561 
L 441.612783 36.440561 
L 442.613849 35.811734 
L 444.577486 37.214505 
L 445.732571 38.375424 
L 445.809571 48.29158 
L 445.655565 50.661782 
L 448.081232 51.29061 
L 447.734704 52.306413 
L 448.350747 53.273836 
L 447.850213 54.144523 
L 448.851287 55.498931 
L 450.160378 55.208698 
L 451.430966 58.352844 
L 449.967862 59.755615 
L 449.120801 59.223531 
L 448.427753 60.190963 
L 447.426686 59.949103 
L 447.311177 60.771418 
L 446.002086 60.674674 
L 443.92294 62.561165 
L 443.422407 61.255138 
L 442.690855 61.158394 
L 443.037383 62.561165 
L 441.420267 63.238364 
L 441.035243 62.125825 
L 440.265189 62.706281 
L 438.455564 62.706281 
L 438.417061 61.400245 
L 437.338989 61.690477 
L 437.531497 62.609537 
L 436.530431 64.5444 
L 436.722939 65.076483 
L 435.413855 66.140658 
L 434.104764 65.753682 
L 433.334709 66.86623 
L 432.25663 67.011346 
L 431.371073 67.930396 
L 430.292993 67.736917 
L 429.984975 66.769486 
L 428.406363 68.317372 
L 428.829897 69.284804 
L 427.674818 69.623399 
L 427.597812 70.445714 
L 426.288721 71.461518 
L 425.249144 73.783348 
" clip-path="url(#pef8ad658c9)" style="fill: #ffffff; stroke: #000000"/>
    <path d="M 388.055564 118.865577 
L 387.901552 118.865577 
L 387.709036 118.865577 
L 388.055564 118.865577 
" clip-path="url(#pef8ad658c9)" style="fill: #ffffff; stroke: #000000"/>
    <path d="M 363.567865 103.241585 
L 389.518668 103.241585 
L 390.173213 114.367024 
L 394.716529 114.463768 
L 393.330432 118.188368 
L 392.252352 118.333485 
L 390.327219 118.865577 
L 388.825619 119.252544 
L 388.864122 117.801401 
L 388.286583 117.220946 
L 389.095134 116.59211 
L 388.017061 115.140967 
L 387.670533 115.769794 
L 386.207437 115.624687 
L 385.706904 114.028428 
L 386.168934 114.028428 
L 386.207437 111.94845 
L 386.669467 111.126134 
L 386.053425 108.320593 
L 386.823479 106.675962 
L 388.017061 106.38573 
L 388.209577 104.692727 
L 387.324013 104.886215 
L 387.28551 105.756903 
L 385.437382 106.869441 
L 384.898346 107.885245 
L 384.782837 110.448935 
L 384.089788 111.658218 
L 384.397813 113.689824 
L 385.321873 115.092595 
L 385.206364 116.15677 
L 385.783903 117.220946 
L 385.475885 117.946517 
L 383.858769 116.543738 
L 381.548612 115.866538 
L 380.855563 114.51214 
L 379.546472 115.286083 
L 379.045939 114.221908 
L 380.085509 112.867509 
L 380.701551 111.464738 
L 381.625618 110.545679 
L 380.740054 109.674992 
L 380.162515 110.207075 
L 379.238455 109.38476 
L 377.775351 108.94942 
L 377.775351 107.643385 
L 377.005296 106.917813 
L 375.927224 106.772706 
L 375.118666 104.30576 
L 373.925084 104.30576 
L 372.731502 103.483445 
L 372.076957 104.160644 
L 370.921871 104.112272 
L 370.652356 105.079704 
L 368.57321 104.450867 
L 367.187113 105.756903 
L 366.263053 105.466671 
L 364.876956 106.966185 
L 363.490858 107.788501 
L 363.567865 103.241585 
" clip-path="url(#pef8ad658c9)" style="fill: #ffffff; stroke: #000000"/>
    <path d="M 423.747545 75.282862 
L 424.440593 75.427978 
L 424.710108 76.975865 
L 424.40209 78.233529 
L 423.285507 79.394439 
L 423.247004 80.748847 
L 424.787114 80.942326 
L 425.711181 82.345105 
L 425.557169 83.457644 
L 426.327224 83.747876 
L 426.404223 84.76368 
L 428.367859 85.634367 
L 430.639521 84.812052 
L 430.138988 86.021334 
L 426.789254 87.08551 
L 425.557169 87.133882 
L 424.825617 86.311566 
L 423.670538 86.553417 
L 423.632035 87.182254 
L 422.322944 87.569221 
L 421.783908 85.972962 
L 421.591392 85.682739 
L 420.859841 85.053903 
L 420.474817 82.973933 
L 419.43524 82.973933 
L 417.54861 83.070677 
L 417.54861 82.925561 
L 408.7315 82.780445 
L 405.689791 82.683701 
L 405.535779 82.345105 
L 407.229894 76.540526 
L 412.928288 76.685642 
L 421.090859 76.975865 
L 421.860914 76.15355 
L 423.747545 75.282862 
" clip-path="url(#pef8ad658c9)" style="fill: #ffffff; stroke: #000000"/>
    <path d="M 335.614922 85.489251 
L 326.104763 85.827846 
L 326.104763 85.247391 
L 317.788186 85.247391 
L 311.93578 85.247391 
L 313.36038 84.086471 
L 314.322943 82.103245 
L 315.208507 80.893954 
L 315.863053 79.20096 
L 316.248077 76.782377 
L 316.094064 74.170324 
L 314.014926 69.042944 
L 314.669471 67.108081 
L 314.207434 64.786251 
L 315.82455 62.416049 
L 316.171071 60.432823 
L 315.940059 59.368647 
L 317.095138 58.933299 
L 317.24915 57.482157 
L 319.058774 57.095189 
L 320.444872 55.498931 
L 320.329362 58.691448 
L 321.060914 58.836564 
L 321.984974 57.240305 
L 322.023477 54.531499 
L 322.601017 53.8543 
L 324.52615 53.418952 
L 323.910108 51.53247 
L 325.180696 49.936211 
L 326.759309 49.839467 
L 328.53043 50.855262 
L 330.263048 51.000378 
L 331.110109 52.258041 
L 332.4192 52.354785 
L 334.613855 53.515696 
L 335.383903 53.467324 
L 336.577492 55.353815 
L 335.614922 56.369618 
L 336.538989 57.675645 
L 336.88551 59.175159 
L 336.461983 62.464421 
L 335.037382 63.286736 
L 334.690861 64.979739 
L 332.996739 65.560194 
L 332.072679 67.591801 
L 332.4192 68.365744 
L 334.113315 69.091316 
L 335.422406 67.978768 
L 336.962516 65.70531 
L 339.388182 64.834623 
L 340.581764 65.511822 
L 341.313316 66.769486 
L 342.044868 70.445714 
L 342.160377 72.283833 
L 342.930432 74.508919 
L 342.19888 77.701437 
L 341.043801 78.185157 
L 341.005298 77.024237 
L 340.235243 77.362841 
L 339.349679 80.023267 
L 337.925086 81.03907 
L 337.501552 83.070677 
L 335.730431 84.76368 
L 335.614922 85.489251 
" clip-path="url(#pef8ad658c9)" style="fill: #ffffff; stroke: #000000"/>
    <path d="M 321.176416 50.178062 
L 321.291926 51.242238 
L 320.367866 51.435726 
L 320.752889 49.936211 
L 321.176416 50.178062 
" clip-path="url(#pef8ad658c9)" style="fill: #ffffff; stroke: #000000"/>
    <path d="M 306.545403 55.789154 
L 305.46733 54.870094 
L 306.121876 53.61244 
L 304.466257 53.418952 
L 305.120803 52.209669 
L 305.197809 50.661782 
L 303.734705 49.597607 
L 302.926154 48.48506 
L 299.922941 47.614372 
L 298.998881 47.904604 
L 295.995668 46.598578 
L 288.757171 44.808831 
L 287.987116 43.309316 
L 286.678025 42.777224 
L 289.411717 41.858173 
L 290.643801 40.793998 
L 293.724014 40.35865 
L 295.726153 39.052623 
L 296.650214 39.004251 
L 297.420268 38.085192 
L 299.614924 36.779165 
L 300.731499 35.666618 
L 302.387118 34.941046 
L 303.965724 35.569874 
L 301.193529 38.27868 
L 300.538984 39.197739 
L 300.577487 40.84237 
L 301.925081 39.584707 
L 304.350755 39.778195 
L 306.237385 40.648882 
L 307.9315 43.067456 
L 308.855567 43.502804 
L 310.626689 43.115828 
L 311.050216 43.647911 
L 312.821337 43.938143 
L 316.594605 41.906537 
L 318.558241 41.713057 
L 321.176416 41.809801 
L 322.947545 41.132593 
L 324.295139 41.084221 
L 324.564653 43.551167 
L 325.950751 43.889771 
L 327.336848 43.502804 
L 327.914387 44.08326 
L 328.838455 43.357688 
L 330.87909 43.115828 
L 330.917593 46.211602 
L 331.841661 47.517637 
L 333.227758 47.856232 
L 333.38177 46.985545 
L 334.729357 46.985545 
L 335.460909 47.904604 
L 334.844867 48.581804 
L 330.9946 48.001348 
L 329.146472 48.388316 
L 327.144333 47.324149 
L 326.566793 48.29158 
L 326.836315 49.113896 
L 325.950751 48.920408 
L 324.64166 47.711116 
L 322.370005 46.985545 
L 321.21492 46.937173 
L 320.098344 48.098092 
L 318.250217 48.388316 
L 316.248077 48.146464 
L 315.439519 48.630176 
L 315.24701 49.597607 
L 313.052355 50.419922 
L 313.167865 49.259003 
L 312.205294 49.017152 
L 311.82027 50.226434 
L 310.203155 50.274806 
L 309.47161 50.806898 
L 308.39353 52.886868 
L 306.391391 55.547303 
L 306.545403 55.789154 
" clip-path="url(#pef8ad658c9)" style="fill: #ffffff; stroke: #000000"/>
    <path d="M 297.997808 30.345758 
L 296.226687 31.458297 
L 295.302626 31.603413 
L 295.379626 30.684354 
L 299.807439 28.604384 
L 298.960378 30.055526 
L 297.997808 30.345758 
" clip-path="url(#pef8ad658c9)" style="fill: #ffffff; stroke: #000000"/>
    <path d="M 275.435242 41.567941 
L 274.896205 41.180965 
L 273.471605 41.906537 
L 273.471605 47.130661 
L 273.048078 47.662744 
L 271.045938 48.388316 
L 269.428829 50.274806 
L 269.31332 51.53247 
L 270.121878 51.629205 
L 271.007435 52.741752 
L 270.198877 54.096151 
L 270.35289 55.595675 
L 269.852356 58.836564 
L 271.700484 60.432823 
L 273.163587 60.57793 
L 273.895139 61.545361 
L 276.051284 62.512793 
L 276.397812 63.673712 
L 278.399952 65.173227 
L 279.516527 65.511822 
L 280.864121 67.446685 
L 280.671606 68.849456 
L 281.056637 69.865259 
L 279.978557 69.865259 
L 244.248081 69.865259 
L 244.248081 53.999416 
L 242.630965 52.983612 
L 241.39888 51.29061 
L 243.324014 49.404119 
L 243.478026 48.388316 
L 243.208504 44.857203 
L 242.36145 43.938143 
L 241.783904 42.003281 
L 241.899413 39.633079 
L 241.629899 39.246111 
L 241.39888 33.586648 
L 240.012783 30.58761 
L 239.473747 28.894616 
L 239.242728 25.315122 
L 239.704765 24.105831 
L 238.780698 21.300289 
L 253.373208 21.300289 
L 253.373208 17.914284 
L 254.759306 18.011028 
L 255.683373 18.688227 
L 256.607433 23.283515 
L 257.338985 23.815608 
L 259.649149 23.960724 
L 259.918664 24.396063 
L 262.613852 24.589551 
L 262.921877 25.556982 
L 265.232034 25.315122 
L 265.232034 24.928146 
L 267.041659 24.444435 
L 268.620271 24.637923 
L 270.429896 25.363494 
L 270.930429 26.282554 
L 271.970005 26.18581 
L 272.932569 28.169036 
L 273.394599 27.34672 
L 275.165727 26.959753 
L 275.473745 27.782068 
L 277.552891 28.362524 
L 277.552891 29.136467 
L 278.59246 29.765294 
L 280.710109 29.426699 
L 281.980697 28.556012 
L 283.713315 28.023928 
L 284.329365 29.329955 
L 285.522946 29.039723 
L 286.94754 29.329955 
L 288.603159 29.136467 
L 290.489789 30.249014 
L 292.299413 30.055526 
L 292.145401 30.539238 
L 289.79674 31.651785 
L 286.524013 32.522472 
L 284.406364 33.441532 
L 281.364655 35.71499 
L 280.055563 37.117761 
L 278.053424 38.714019 
L 274.896205 40.84237 
L 275.435242 41.567941 
" clip-path="url(#pef8ad658c9)" style="fill: #ffffff; stroke: #000000"/>
    <path d="M 300.346475 144.986171 
L 302.233106 144.986171 
L 302.964658 145.905231 
L 301.963584 155.579527 
L 300.346475 172.364438 
L 300.885512 185.860079 
L 300.115457 186.247055 
L 298.421342 186.053567 
L 297.728293 185.473103 
L 296.034171 185.860079 
L 293.685511 186.875883 
L 292.953959 187.50471 
L 292.106898 186.585651 
L 291.837383 185.134508 
L 290.682305 183.199645 
L 291.375353 180.29736 
L 278.091927 180.29736 
L 278.59246 179.668533 
L 278.091927 177.927158 
L 278.938988 177.830414 
L 279.054497 174.589524 
L 279.747546 174.783012 
L 280.171073 172.799778 
L 281.826685 171.542123 
L 282.673746 169.510516 
L 282.519733 166.898454 
L 281.480164 165.785915 
L 281.55717 163.996169 
L 282.057703 163.609193 
L 281.403158 162.593398 
L 281.942194 161.384107 
L 281.55717 159.545988 
L 282.173212 158.820416 
L 280.941128 157.659506 
L 282.057703 154.9507 
L 283.328291 153.547929 
L 282.904764 152.580498 
L 284.367861 151.129355 
L 284.329365 150.5489 
L 285.599953 150.06518 
L 285.484443 148.323805 
L 286.215995 147.936838 
L 286.716528 146.437323 
L 287.833104 145.760115 
L 287.409577 144.986171 
L 300.346475 144.986171 
" clip-path="url(#pef8ad658c9)" style="fill: #ffffff; stroke: #000000"/>
    <path d="M 276.70583 95.405407 
L 277.437381 95.357035 
L 278.861982 97.146773 
L 279.632036 97.437005 
L 279.015994 98.69466 
L 279.093 100.484407 
L 279.978557 103.193213 
L 282.134709 105.466671 
L 284.48337 107.353162 
L 284.945407 110.255447 
L 285.484443 110.787539 
L 286.292994 109.965224 
L 287.833104 110.352191 
L 288.834177 110.981018 
L 288.141129 112.045194 
L 288.333637 112.867509 
L 287.140055 115.140967 
L 287.101552 116.543738 
L 289.180698 118.333485 
L 289.950753 119.494404 
L 290.720808 119.300916 
L 292.992462 121.187407 
L 292.992462 122.541805 
L 293.570001 124.234808 
L 292.992462 124.815263 
L 294.571075 127.330581 
L 295.68765 127.427325 
L 295.110111 131.006819 
L 294.070534 130.619843 
L 293.685511 131.73239 
L 293.223481 131.73239 
L 292.83845 131.73239 
L 292.876953 133.909104 
L 291.490855 136.13419 
L 286.94754 136.13419 
L 288.064122 134.48956 
L 289.142195 133.425393 
L 288.526152 131.73239 
L 258.147543 131.684018 
L 257.146476 131.684018 
L 257.146476 127.282209 
L 257.184979 108.223849 
L 255.683373 107.788501 
L 254.566797 105.708531 
L 253.681233 104.837843 
L 255.259846 102.274153 
L 252.988185 101.596954 
L 252.295136 100.774639 
L 250.562518 98.452809 
L 249.060911 95.598886 
L 257.030967 95.744002 
L 266.695138 95.647258 
L 276.70583 95.405407 
" clip-path="url(#pef8ad658c9)" style="fill: #ffffff; stroke: #000000"/>
    <path d="M 190.844868 21.300289 
L 190.883371 31.361553 
L 190.844868 48.29158 
L 190.883371 56.659841 
L 190.767862 56.659841 
L 177.715461 56.611469 
L 155.460912 56.611469 
L 141.599954 56.611469 
L 141.638457 61.255138 
L 140.367862 60.336079 
L 139.251286 58.788192 
L 137.634177 60.626302 
L 136.209577 60.964906 
L 135.863049 60.481195 
L 134.207437 60.868162 
L 133.244874 60.432823 
L 131.627758 61.206766 
L 129.433103 61.158394 
L 128.701558 61.980709 
L 127.893 61.496989 
L 126.968933 58.643076 
L 125.505837 58.546332 
L 124.697279 57.820761 
L 124.735782 56.127758 
L 123.888721 55.498931 
L 122.733642 53.709184 
L 122.040593 52.016181 
L 122.233109 51.29061 
L 120.962521 50.419922 
L 120.269472 51.387354 
L 118.536847 52.596636 
L 117.035248 51.677577 
L 117.381768 50.710154 
L 116.881235 49.791095 
L 118.151823 48.823664 
L 117.420272 47.469265 
L 117.612787 45.389286 
L 118.613853 42.100025 
L 116.573211 42.148397 
L 116.496204 41.567941 
L 114.648077 40.648882 
L 114.340059 39.681451 
L 111.721877 37.311249 
L 111.567865 36.682421 
L 110.143264 36.295445 
L 108.79567 35.231279 
L 108.757167 32.812704 
L 106.485513 30.345758 
L 106.485513 21.300289 
L 138.442728 21.348661 
L 152.84273 21.300289 
L 190.844868 21.300289 
" clip-path="url(#pef8ad658c9)" style="fill: #ffffff; stroke: #000000"/>
    <path d="M 195.92722 74.267068 
L 207.863052 74.31544 
L 229.848079 74.31544 
L 230.079097 74.750779 
L 233.698346 76.347038 
L 234.545407 75.47635 
L 235.546473 75.669839 
L 238.857704 75.669839 
L 242.553959 77.314469 
L 243.015996 78.572124 
L 244.286584 78.813984 
L 245.557172 82.780445 
L 246.519735 83.3609 
L 246.981765 84.908787 
L 246.558238 85.972962 
L 246.750754 87.182254 
L 247.982839 87.956197 
L 247.944336 90.181283 
L 248.637384 92.164518 
L 248.252353 94.437976 
L 249.060911 95.598886 
L 250.562518 98.452809 
L 252.295136 100.774639 
L 205.899415 100.774639 
L 204.859846 100.774639 
L 204.859846 91.922658 
L 190.806365 91.922658 
L 190.806365 74.267068 
L 195.92722 74.267068 
" clip-path="url(#pef8ad658c9)" style="fill: #ffffff; stroke: #000000"/>
    <path d="M 99.593537 83.119049 
L 120.57749 83.167421 
L 120.538987 127.282209 
L 120.538987 134.392816 
L 119.807435 135.892339 
L 119.114387 135.940711 
L 118.267333 134.876536 
L 115.687653 135.215131 
L 116.11118 140.390883 
L 116.68872 142.083886 
L 116.842732 143.728517 
L 116.419205 144.937799 
L 107.87161 136.37605 
L 103.02027 131.684018 
L 96.282306 125.347356 
L 87.734711 117.559541 
L 78.686582 109.62662 
L 78.725085 98.452809 
L 78.686582 83.167421 
L 87.85022 83.215793 
L 99.593537 83.119049 
" clip-path="url(#pef8ad658c9)" style="fill: #ffffff; stroke: #000000"/>
    <path d="M 422.592459 53.951044 
L 422.938987 59.658879 
L 423.401017 71.26803 
L 424.517592 72.283833 
L 424.40209 73.15452 
L 425.249144 73.783348 
L 424.440593 75.427978 
L 423.747545 75.282862 
L 421.860914 76.15355 
L 421.090859 76.975865 
L 412.928288 76.685642 
L 412.312246 76.008434 
L 412.389252 74.702407 
L 413.005294 74.218696 
L 412.928288 72.961032 
L 413.467331 69.236432 
L 414.699416 67.495057 
L 415.315459 65.511822 
L 415.931501 64.786251 
L 415.892998 62.609537 
L 418.241659 61.787221 
L 419.396737 60.287707 
L 418.742192 58.836564 
L 419.704762 57.385413 
L 419.627756 56.514725 
L 420.628822 54.241267 
L 422.245938 54.483127 
L 422.592459 53.951044 
" clip-path="url(#pef8ad658c9)" style="fill: #ffffff; stroke: #000000"/>
    <path d="M 400.414924 90.713366 
L 402.763584 91.97103 
L 401.916523 94.53472 
L 400.761444 95.115175 
L 400.145402 96.469574 
L 402.070535 97.146773 
L 402.224548 98.162577 
L 401.377487 102.902981 
L 399.182839 106.434102 
L 397.758238 107.449906 
L 396.48765 109.674992 
L 395.833105 108.223849 
L 393.792462 107.498278 
L 391.289789 105.563415 
L 391.135777 104.257388 
L 391.097273 104.0639 
L 391.482304 103.58018 
L 392.13685 102.516013 
L 394.02348 101.790442 
L 394.138983 101.113234 
L 396.295135 99.662091 
L 396.641663 98.888148 
L 394.639523 97.098401 
L 394.562517 95.985863 
L 393.676953 95.69563 
L 393.599946 94.679827 
L 394.678026 93.13194 
L 394.100487 92.212881 
L 395.871608 90.374771 
L 396.256632 89.40734 
L 397.180699 88.778512 
L 400.414924 90.713366 
" clip-path="url(#pef8ad658c9)" style="fill: #ffffff; stroke: #000000"/>
    <path d="M 167.127223 127.282209 
L 171.015993 127.330581 
L 188.804225 127.330581 
L 198.198881 127.282209 
L 198.198881 131.684018 
L 197.92936 131.684018 
L 197.890856 153.644673 
L 197.736851 162.593398 
L 197.736851 171.445379 
L 172.787114 171.445379 
L 172.594606 172.316066 
L 173.403157 173.331861 
L 161.582841 173.331861 
L 161.582841 177.346703 
L 155.691931 177.346703 
L 155.730434 127.282209 
L 167.127223 127.282209 
" clip-path="url(#pef8ad658c9)" style="fill: #ffffff; stroke: #000000"/>
    <path d="M 406.690857 56.514725 
L 406.767863 58.352844 
L 406.382833 59.997475 
L 407.037378 61.593733 
L 406.84487 63.286736 
L 406.036312 65.076483 
L 406.652354 67.495057 
L 406.26733 68.220628 
L 407.383906 69.671771 
L 407.152887 75.766583 
L 407.229894 76.540526 
L 405.535779 82.345105 
L 405.689791 82.683701 
L 405.227754 89.358968 
L 405.728287 90.084539 
L 403.995669 91.05197 
L 404.496202 92.067774 
L 407.499415 92.793345 
L 408.115458 92.261253 
L 410.695137 92.261253 
L 412.004228 91.97103 
L 414.160373 90.56825 
L 414.314385 91.584054 
L 415.430961 92.019402 
L 412.851282 93.325428 
L 407.422409 95.260291 
L 405.150748 95.647258 
L 403.649148 95.550514 
L 402.532565 95.985863 
L 401.916523 94.53472 
L 402.763584 91.97103 
L 400.414924 90.713366 
L 397.180699 88.778512 
L 396.872674 88.149676 
L 395.794602 88.101313 
L 394.524014 86.601789 
L 394.678026 85.295763 
L 393.830965 84.279959 
L 393.291929 84.328331 
L 392.521874 83.119049 
L 361.565725 83.119049 
L 361.565725 80.893954 
L 361.565725 80.748847 
L 365.878022 78.233529 
L 366.571071 77.024237 
L 367.957168 76.201922 
L 367.418132 74.702407 
L 366.840592 74.412175 
L 366.417058 71.993601 
L 370.536847 70.977806 
L 374.194599 71.026178 
L 375.657702 71.26803 
L 377.236315 72.235461 
L 378.237381 71.848494 
L 381.27909 71.896866 
L 383.127225 71.26803 
L 385.090854 69.671771 
L 386.361442 69.623399 
L 386.399945 67.204825 
L 387.054491 65.802054 
L 385.475885 64.834623 
L 385.822406 63.722084 
L 388.633104 62.222561 
L 389.672673 60.916534 
L 393.06091 57.965877 
L 396.256632 56.466362 
L 401.030966 56.708213 
L 406.690857 56.514725 
" clip-path="url(#pef8ad658c9)" style="fill: #ffffff; stroke: #000000"/>
    <path d="M 353.01813 131.151926 
L 357.830967 131.297042 
L 363.336846 131.345414 
L 388.941121 131.24867 
L 389.749679 134.779792 
L 387.786043 134.441188 
L 387.516528 134.876536 
L 385.129357 135.408619 
L 384.782837 135.892339 
L 383.204224 136.037446 
L 383.28123 136.666283 
L 385.206364 136.230934 
L 385.475885 136.617911 
L 387.593534 136.182562 
L 388.286583 137.004878 
L 389.557171 136.666283 
L 390.019201 138.794625 
L 389.595667 139.810428 
L 388.748613 139.907172 
L 386.977492 142.083886 
L 384.628824 142.18063 
L 384.2438 143.680145 
L 385.244867 145.179659 
L 386.053425 145.469891 
L 384.551818 147.936838 
L 383.28123 147.646605 
L 381.048079 147.888466 
L 379.507969 148.420549 
L 377.082302 150.113552 
L 375.157169 152.338638 
L 374.156096 155.144188 
L 372.692999 154.51536 
L 370.151823 155.095816 
L 362.181767 146.679174 
L 354.288718 146.534058 
L 354.404227 145.518263 
L 353.326154 144.018749 
L 352.594603 144.550832 
L 352.5561 143.631773 
L 343.892995 143.196433 
L 341.967862 143.535029 
L 340.466262 144.357344 
L 338.040588 144.937799 
L 334.459843 145.082915 
L 329.531503 145.034543 
L 329.724012 142.954573 
L 331.110109 142.761085 
L 331.649145 141.309943 
L 333.38177 140.003916 
L 335.306904 139.955544 
L 337.039522 138.601136 
L 338.849146 138.117425 
L 340.389256 136.13419 
L 341.351819 135.553735 
L 341.544335 136.424422 
L 344.316529 134.73142 
L 345.587117 135.070024 
L 346.472674 133.425393 
L 347.781765 132.990045 
L 348.08979 130.910075 
L 353.01813 131.151926 
" clip-path="url(#pef8ad658c9)" style="fill: #ffffff; stroke: #000000"/>
    <path d="M 238.780698 21.300289 
L 239.704765 24.105831 
L 239.242728 25.315122 
L 239.473747 28.894616 
L 240.012783 30.58761 
L 241.39888 33.586648 
L 241.629899 39.246111 
L 241.899413 39.633079 
L 241.783904 42.003281 
L 242.36145 43.938143 
L 243.208504 44.857203 
L 243.478026 48.388316 
L 190.844868 48.29158 
L 190.883371 31.361553 
L 190.844868 21.300289 
L 238.780698 21.300289 
" clip-path="url(#pef8ad658c9)" style="fill: #ffffff; stroke: #000000"/>
    <path d="M 356.252354 83.312528 
L 356.252354 95.163547 
L 355.212785 95.647258 
L 355.713318 96.61469 
L 355.674815 97.969088 
L 354.712252 100.097439 
L 354.057706 103.338329 
L 351.324015 106.192242 
L 350.438451 106.579218 
L 349.668396 105.998754 
L 348.859845 107.256418 
L 348.051287 107.208046 
L 347.165723 108.901048 
L 347.358238 109.916852 
L 346.626687 110.739167 
L 345.587117 109.38476 
L 344.278026 111.51311 
L 344.624547 112.867509 
L 343.777486 113.35122 
L 343.507971 114.51214 
L 341.659844 114.705628 
L 340.697274 113.496336 
L 339.888716 113.254485 
L 339.580698 111.754962 
L 338.579625 112.045194 
L 337.809577 112.915881 
L 335.152891 112.238682 
L 334.036316 112.867509 
L 332.457703 111.658218 
L 330.263048 111.319622 
L 330.147546 110.545679 
L 328.722945 108.70756 
L 326.027757 108.70756 
L 326.143266 96.37283 
L 326.104763 85.827846 
L 335.614922 85.489251 
L 338.348613 86.698533 
L 339.272673 87.424105 
L 339.965722 86.746905 
L 341.505831 88.149676 
L 342.468395 88.585024 
L 345.741122 87.424105 
L 347.666256 87.665965 
L 349.745402 86.021334 
L 352.787111 84.425075 
L 356.252354 83.312528 
L 356.252354 83.312528 
" clip-path="url(#pef8ad658c9)" style="fill: #ffffff; stroke: #000000"/>
    <path d="M 218.682302 127.282209 
L 257.146476 127.282209 
L 257.146476 131.684018 
L 258.455567 141.455059 
L 258.070537 156.982307 
L 255.375348 156.014875 
L 254.6823 154.999072 
L 252.872675 154.128384 
L 252.410645 154.902328 
L 250.601021 154.853956 
L 250.21599 154.370244 
L 248.560378 155.240932 
L 247.867329 154.757212 
L 246.365723 155.19256 
L 244.979626 156.546958 
L 244.440589 155.773015 
L 242.977493 155.144188 
L 241.437383 155.144188 
L 240.93685 154.128384 
L 239.165722 156.111619 
L 238.588183 154.999072 
L 237.779632 155.337676 
L 237.163589 154.612104 
L 235.50797 153.934896 
L 234.275885 155.095816 
L 233.736849 153.886524 
L 232.735776 153.741417 
L 232.158236 152.773986 
L 230.810642 152.38701 
L 229.925085 153.209325 
L 229.347546 152.483754 
L 227.961448 152.580498 
L 226.421339 151.806554 
L 224.996738 151.903298 
L 224.496205 150.210296 
L 222.263054 150.113552 
L 221.415993 150.403784 
L 219.83738 148.710781 
L 219.298344 148.807525 
L 219.298344 131.684018 
L 206.553961 131.684018 
L 198.198881 131.684018 
L 198.198881 127.282209 
L 204.936845 127.330581 
L 218.682302 127.282209 
" clip-path="url(#pef8ad658c9)" style="fill: #ffffff; stroke: #000000"/>
    <path d="M 56.124016 46.259974 
L 56.778561 46.16323 
L 58.280168 47.082289 
L 58.934714 48.146464 
L 59.281234 50.806898 
L 62.900483 51.774321 
L 65.980702 50.37155 
L 67.905836 50.226434 
L 70.138987 50.710154 
L 70.370006 51.29061 
L 74.220273 50.032946 
L 75.14434 50.468294 
L 77.223479 50.226434 
L 78.956104 49.355747 
L 82.036316 48.581804 
L 84.847007 48.388316 
L 85.809577 47.80786 
L 100.363584 47.856232 
L 101.326155 49.355747 
L 102.981766 49.984583 
L 103.559306 51.193866 
L 102.096209 53.805928 
L 101.672675 55.353815 
L 100.864125 56.41799 
L 100.979627 57.240305 
L 100.248082 58.546332 
L 99.51653 58.836564 
L 98.09193 61.980709 
L 98.592463 63.189992 
L 99.940057 63.335108 
L 100.517597 64.060679 
L 99.593537 66.962974 
L 99.593537 83.119049 
L 87.85022 83.215793 
L 78.686582 83.167421 
L 71.409575 83.167421 
L 61.976423 83.022305 
L 55.970004 83.070677 
L 49.078027 83.119049 
L 48.076954 82.103245 
L 47.537918 79.249323 
L 47.653427 77.266097 
L 46.690864 75.718211 
L 47.383912 74.267068 
L 47.884445 71.896866 
L 48.924015 69.381548 
L 49.386045 67.156453 
L 50.1561 59.658879 
L 50.040591 58.643076 
L 50.733639 55.353815 
L 51.003161 50.806898 
L 50.61813 48.29158 
L 50.964658 46.792057 
L 53.775355 45.48603 
L 55.00744 46.501834 
L 56.124016 46.259974 
" clip-path="url(#pef8ad658c9)" style="fill: #ffffff; stroke: #000000"/>
    <path d="M 361.565725 80.893954 
L 361.565725 83.119049 
L 392.521874 83.119049 
L 393.291929 84.328331 
L 393.830965 84.279959 
L 394.678026 85.295763 
L 394.524014 86.601789 
L 395.794602 88.101313 
L 396.872674 88.149676 
L 397.180699 88.778512 
L 396.256632 89.40734 
L 395.871608 90.374771 
L 394.100487 92.212881 
L 394.678026 93.13194 
L 393.599946 94.679827 
L 393.676953 95.69563 
L 394.562517 95.985863 
L 394.639523 97.098401 
L 396.641663 98.888148 
L 396.295135 99.662091 
L 394.138983 101.113234 
L 394.02348 101.790442 
L 392.13685 102.516013 
L 390.71225 102.274153 
L 389.518668 103.241585 
L 363.567865 103.241585 
L 356.252354 103.241585 
L 356.252354 95.163547 
L 356.252354 83.312528 
L 356.252354 83.312528 
L 357.561445 82.828817 
L 361.565725 80.748847 
L 361.565725 80.893954 
" clip-path="url(#pef8ad658c9)" style="fill: #ffffff; stroke: #000000"/>
    <path d="M 421.783908 85.972962 
L 422.322944 87.569221 
L 420.936847 87.762709 
L 421.783908 85.972962 
" clip-path="url(#pef8ad658c9)" style="fill: #ffffff; stroke: #000000"/>
    <path d="M 419.43524 82.973933 
L 420.474817 82.973933 
L 420.859841 85.053903 
L 421.591392 85.682739 
L 420.744331 85.537623 
L 420.01278 86.84365 
L 419.781768 88.681768 
L 417.125083 89.117108 
L 417.54861 88.294792 
L 417.54861 83.070677 
L 419.43524 82.973933 
" clip-path="url(#pef8ad658c9)" style="fill: #ffffff; stroke: #000000"/>
    <path d="M 340.466262 144.357344 
L 341.967862 143.535029 
L 343.892995 143.196433 
L 352.5561 143.631773 
L 352.594603 144.550832 
L 353.326154 144.018749 
L 354.404227 145.518263 
L 354.288718 146.534058 
L 362.181767 146.679174 
L 370.151823 155.095816 
L 368.919738 155.531155 
L 367.379629 156.982307 
L 365.878022 159.255765 
L 365.608507 161.093883 
L 364.414919 162.545026 
L 362.836313 162.545026 
L 362.489785 163.609193 
L 360.834173 164.770112 
L 359.910106 166.027767 
L 358.447009 166.559859 
L 356.868397 167.914257 
L 356.714384 168.543085 
L 355.251288 169.268656 
L 353.672675 171.155147 
L 352.055566 170.381204 
L 352.017063 168.881689 
L 350.900481 166.511487 
L 349.937917 165.882659 
L 349.860911 163.996169 
L 349.398881 162.545026 
L 347.512251 161.190619 
L 346.280166 159.545988 
L 346.357165 158.530193 
L 344.470534 157.030679 
L 343.546474 155.386048 
L 341.929358 154.2735 
L 340.812783 152.435382 
L 340.581764 151.419578 
L 339.503692 149.484724 
L 338.77214 149.62984 
L 336.423479 147.743349 
L 336.538989 146.82429 
L 338.040588 144.937799 
L 340.466262 144.357344 
" clip-path="url(#pef8ad658c9)" style="fill: #ffffff; stroke: #000000"/>
    <path d="M 190.844868 48.29158 
L 243.478026 48.388316 
L 243.324014 49.404119 
L 241.39888 51.29061 
L 242.630965 52.983612 
L 244.248081 53.999416 
L 244.248081 69.865259 
L 243.324014 70.058747 
L 243.709038 70.784318 
L 243.478026 72.332205 
L 244.363583 73.202892 
L 243.824547 73.83172 
L 243.593535 75.573094 
L 242.977493 76.879121 
L 244.286584 78.813984 
L 243.015996 78.572124 
L 242.553959 77.314469 
L 238.857704 75.669839 
L 235.546473 75.669839 
L 234.545407 75.47635 
L 233.698346 76.347038 
L 230.079097 74.750779 
L 229.848079 74.31544 
L 207.863052 74.31544 
L 195.92722 74.267068 
L 190.806365 74.267068 
L 190.767862 56.659841 
L 190.883371 56.659841 
L 190.844868 48.29158 
" clip-path="url(#pef8ad658c9)" style="fill: #ffffff; stroke: #000000"/>
    <path d="M 303.272675 131.73239 
L 303.157166 130.136132 
L 304.697276 130.523099 
L 313.552888 130.329611 
L 321.330429 130.668215 
L 322.716526 130.571471 
L 327.95289 130.861703 
L 333.95931 130.958447 
L 334.074812 130.813331 
L 348.08979 130.910075 
L 347.781765 132.990045 
L 346.472674 133.425393 
L 345.587117 135.070024 
L 344.316529 134.73142 
L 341.544335 136.424422 
L 341.351819 135.553735 
L 340.389256 136.13419 
L 338.849146 138.117425 
L 337.039522 138.601136 
L 335.306904 139.955544 
L 333.38177 140.003916 
L 331.649145 141.309943 
L 331.110109 142.761085 
L 329.724012 142.954573 
L 329.531503 145.034543 
L 320.483375 145.082915 
L 308.162519 144.937799 
L 302.233106 144.986171 
L 300.346475 144.986171 
L 287.409577 144.986171 
L 288.102625 144.74432 
L 288.795674 143.196433 
L 288.680165 141.068083 
L 289.989256 139.61694 
L 290.220267 138.262541 
L 291.259844 137.778821 
L 291.490855 136.13419 
L 292.876953 133.909104 
L 292.83845 131.73239 
L 293.223481 131.73239 
L 293.685511 131.73239 
L 294.532572 131.635646 
L 303.272675 131.73239 
" clip-path="url(#pef8ad658c9)" style="fill: #ffffff; stroke: #000000"/>
    <path d="M 206.553961 131.684018 
L 219.298344 131.684018 
L 219.298344 148.807525 
L 219.83738 148.710781 
L 221.415993 150.403784 
L 222.263054 150.113552 
L 224.496205 150.210296 
L 224.996738 151.903298 
L 226.421339 151.806554 
L 227.961448 152.580498 
L 229.347546 152.483754 
L 229.925085 153.209325 
L 230.810642 152.38701 
L 232.158236 152.773986 
L 232.735776 153.741417 
L 233.736849 153.886524 
L 234.275885 155.095816 
L 235.50797 153.934896 
L 237.163589 154.612104 
L 237.779632 155.337676 
L 238.588183 154.999072 
L 239.165722 156.111619 
L 240.93685 154.128384 
L 241.437383 155.144188 
L 242.977493 155.144188 
L 244.440589 155.773015 
L 244.979626 156.546958 
L 246.365723 155.19256 
L 247.867329 154.757212 
L 248.560378 155.240932 
L 250.21599 154.370244 
L 250.601021 154.853956 
L 252.410645 154.902328 
L 252.872675 154.128384 
L 254.6823 154.999072 
L 255.375348 156.014875 
L 258.070537 156.982307 
L 258.802088 157.804622 
L 260.188186 157.369274 
L 261.189252 157.75625 
L 261.189252 162.448282 
L 261.189252 171.493751 
L 262.729362 173.428605 
L 262.767865 175.363468 
L 264.692998 178.942961 
L 264.808507 180.829443 
L 264.076956 183.102901 
L 263.383907 184.021961 
L 263.614926 185.231252 
L 263.114385 186.150311 
L 263.653429 187.843314 
L 261.99781 190.98746 
L 262.613852 191.858147 
L 261.458774 191.906519 
L 257.801022 193.115802 
L 256.491931 192.438602 
L 256.260912 190.98746 
L 255.336845 192.003254 
L 254.6823 191.761403 
L 254.335779 193.019058 
L 255.06733 193.55115 
L 255.18284 195.19578 
L 253.873749 196.937146 
L 251.7561 199.113869 
L 247.520809 201.435699 
L 247.097275 201.048723 
L 245.826687 201.629187 
L 245.788184 201.097095 
L 244.055565 201.484071 
L 243.247008 200.371524 
L 242.746474 200.613384 
L 244.594602 202.886842 
L 243.247008 203.612413 
L 241.97642 203.177074 
L 241.783904 204.773333 
L 240.205298 206.417963 
L 238.588183 209.465365 
L 237.548613 212.657882 
L 236.778558 212.416022 
L 236.586043 213.576942 
L 237.394601 213.28671 
L 237.009577 215.60854 
L 236.470541 215.705284 
L 236.432037 217.011319 
L 237.086583 217.73689 
L 237.279091 220.397316 
L 238.049146 221.316375 
L 238.241662 223.009378 
L 238.857704 224.508893 
L 236.701552 225.427952 
L 235.815995 224.267041 
L 234.160376 223.831693 
L 231.965728 223.928437 
L 230.079097 222.477295 
L 228.654497 222.332179 
L 227.576418 221.171259 
L 226.113321 220.784292 
L 225.112248 219.671744 
L 224.457702 217.011319 
L 223.187114 215.41506 
L 223.341127 214.060653 
L 222.763587 212.60951 
L 222.956103 211.351856 
L 222.070539 209.949076 
L 221.338987 209.80396 
L 220.145405 208.546305 
L 219.760381 206.950047 
L 218.720805 205.498904 
L 217.219198 204.289613 
L 216.487653 201.629187 
L 215.794605 200.903607 
L 214.870538 198.775265 
L 214.56252 197.03389 
L 213.676956 195.776236 
L 212.175349 194.663688 
L 211.828828 193.889745 
L 210.442731 193.212546 
L 209.364659 191.277683 
L 206.284439 190.842344 
L 204.436312 190.939088 
L 202.857706 190.261888 
L 202.511178 191.180939 
L 200.817063 191.471171 
L 199.546475 193.30929 
L 198.776421 196.259947 
L 198.352894 196.308319 
L 197.390323 198.049694 
L 196.235245 198.098066 
L 194.502627 196.743667 
L 190.151819 194.566944 
L 189.304765 193.406034 
L 187.610643 192.293486 
L 186.417061 189.778168 
L 186.340055 187.50471 
L 185.146473 185.666591 
L 184.876959 184.070333 
L 184.106904 183.054529 
L 181.373213 181.555015 
L 179.910109 179.523417 
L 178.716527 178.797845 
L 177.445939 177.05647 
L 175.674818 176.137411 
L 174.442733 173.815581 
L 173.403157 173.331861 
L 172.594606 172.316066 
L 172.787114 171.445379 
L 197.736851 171.445379 
L 197.736851 162.593398 
L 197.890856 153.644673 
L 197.92936 131.684018 
L 198.198881 131.684018 
L 206.553961 131.684018 
" clip-path="url(#pef8ad658c9)" style="fill: #ffffff; stroke: #000000"/>
    <path d="M 133.78391 83.167421 
L 141.638457 83.119049 
L 141.638457 91.97103 
L 155.691931 91.97103 
L 155.653428 108.514072 
L 155.614925 116.011654 
L 155.730434 116.979086 
L 155.730434 127.282209 
L 145.488724 127.233837 
L 120.538987 127.282209 
L 120.57749 83.167421 
L 133.78391 83.167421 
" clip-path="url(#pef8ad658c9)" style="fill: #ffffff; stroke: #000000"/>
    <path d="M 419.627756 56.514725 
L 419.704762 57.385413 
L 418.742192 58.836564 
L 419.396737 60.287707 
L 418.241659 61.787221 
L 415.892998 62.609537 
L 415.931501 64.786251 
L 415.315459 65.511822 
L 414.699416 67.495057 
L 413.467331 69.236432 
L 412.928288 72.961032 
L 413.005294 74.218696 
L 412.389252 74.702407 
L 412.312246 76.008434 
L 412.928288 76.685642 
L 407.229894 76.540526 
L 407.152887 75.766583 
L 407.383906 69.671771 
L 406.26733 68.220628 
L 406.652354 67.495057 
L 406.036312 65.076483 
L 406.84487 63.286736 
L 407.037378 61.593733 
L 406.382833 59.997475 
L 406.767863 58.352844 
L 406.690857 56.514725 
L 413.967864 56.611469 
L 419.627756 56.514725 
" clip-path="url(#pef8ad658c9)" style="fill: #ffffff; stroke: #000000"/>
    <path d="M 392.252352 118.333485 
L 393.330432 118.188368 
L 392.406365 119.687892 
L 391.443801 120.219975 
L 390.866262 122.251573 
L 389.403159 125.540835 
L 388.209577 126.218043 
L 387.824546 125.008751 
L 388.440588 122.299945 
L 390.327219 118.865577 
L 392.252352 118.333485 
" clip-path="url(#pef8ad658c9)" style="fill: #ffffff; stroke: #000000"/>
    <path d="M 387.901552 118.865577 
L 388.055564 118.865577 
L 387.709036 118.865577 
L 387.901552 118.865577 
" clip-path="url(#pef8ad658c9)" style="fill: #ffffff; stroke: #000000"/>
    <path d="M 371.499417 105.515043 
L 375.157169 108.4657 
L 375.927224 106.772706 
L 377.005296 106.917813 
L 377.775351 107.643385 
L 377.775351 108.94942 
L 379.238455 109.38476 
L 380.162515 110.207075 
L 380.701551 111.464738 
L 380.085509 112.867509 
L 379.238455 113.254485 
L 378.699411 114.51214 
L 379.007436 115.431199 
L 380.894066 115.140967 
L 381.240587 116.543738 
L 383.704764 117.124202 
L 384.397813 118.23674 
L 386.361442 119.446032 
L 385.475885 121.912978 
L 386.284443 123.847832 
L 385.321873 124.766891 
L 385.206364 125.879439 
L 386.091928 126.556638 
L 385.129357 127.620814 
L 383.666261 126.218043 
L 383.319733 126.701754 
L 384.590321 127.717558 
L 388.055564 127.959409 
L 388.941121 131.24867 
L 363.336846 131.345414 
L 357.830967 131.297042 
L 353.01813 131.151926 
L 348.08979 130.910075 
L 334.074812 130.813331 
L 337.84808 129.555668 
L 338.31011 128.588245 
L 339.657704 128.249641 
L 339.73471 127.475698 
L 340.77428 126.895242 
L 340.77428 126.218043 
L 343.353959 124.912007 
L 346.049147 122.541805 
L 345.933638 123.267377 
L 346.896208 124.766891 
L 348.08979 125.492463 
L 348.975347 125.444091 
L 350.322941 124.28318 
L 351.285512 125.202239 
L 353.095136 124.718519 
L 356.290857 123.025517 
L 356.560379 123.557609 
L 357.792464 122.783665 
L 357.830967 121.187407 
L 358.601015 119.784627 
L 359.910106 118.478601 
L 360.449149 116.882342 
L 361.835239 115.237711 
L 362.374283 113.206113 
L 363.567865 114.415396 
L 364.722943 114.802372 
L 365.454495 114.0768 
L 366.956102 110.932646 
L 367.841659 111.70659 
L 371.114386 108.127105 
L 371.499417 105.515043 
" clip-path="url(#pef8ad658c9)" style="fill: #ffffff; stroke: #000000"/>
    <path d="M 99.555033 21.300289 
L 99.478027 32.23224 
L 99.51653 44.034887 
L 99.401021 44.760459 
L 100.325088 46.308346 
L 100.363584 47.856232 
L 85.809577 47.80786 
L 84.847007 48.388316 
L 82.036316 48.581804 
L 78.956104 49.355747 
L 77.223479 50.226434 
L 75.14434 50.468294 
L 74.220273 50.032946 
L 70.370006 51.29061 
L 70.138987 50.710154 
L 67.905836 50.226434 
L 65.980702 50.37155 
L 62.900483 51.774321 
L 59.281234 50.806898 
L 58.934714 48.146464 
L 58.280168 47.082289 
L 56.778561 46.16323 
L 56.124016 46.259974 
L 55.00744 46.501834 
L 53.775355 45.48603 
L 52.504767 45.147426 
L 51.465191 45.679518 
L 50.117597 44.905575 
L 50.387118 43.696283 
L 51.311179 43.067456 
L 49.886585 41.229337 
L 48.924015 36.440561 
L 48.346476 35.811734 
L 47.576421 32.425728 
L 46.190323 31.119702 
L 45.612784 28.50764 
L 46.382839 26.766265 
L 47.807439 27.58858 
L 50.695136 28.701128 
L 52.658773 28.652756 
L 54.622409 29.088095 
L 56.470537 28.652756 
L 57.356101 29.426699 
L 59.011713 29.378327 
L 60.166798 31.31319 
L 61.013852 31.168074 
L 61.167865 33.780127 
L 61.668398 36.150338 
L 62.361447 35.908478 
L 61.668398 33.876871 
L 61.860913 31.893645 
L 63.015992 29.862038 
L 62.091932 29.039723 
L 62.014926 27.58858 
L 61.321877 25.992322 
L 61.668398 24.831411 
L 61.206368 23.477003 
L 60.089792 23.283515 
L 59.050216 22.267721 
L 59.319737 21.300289 
L 99.555033 21.300289 
" clip-path="url(#pef8ad658c9)" style="fill: #ffffff; stroke: #000000"/>
    <path d="M 59.589259 27.395092 
L 60.513319 27.008125 
L 60.359307 28.797872 
L 59.242731 28.120664 
L 59.589259 27.395092 
" clip-path="url(#pef8ad658c9)" style="fill: #ffffff; stroke: #000000"/>
    <path d="M 57.433107 24.976518 
L 58.203162 23.815608 
L 59.242731 25.218378 
L 58.934714 26.42767 
L 57.317598 26.089066 
L 57.433107 24.976518 
" clip-path="url(#pef8ad658c9)" style="fill: #ffffff; stroke: #000000"/>
    <path d="M 356.252354 95.163547 
L 356.252354 103.241585 
L 363.567865 103.241585 
L 363.490858 107.788501 
L 364.876956 106.966185 
L 366.263053 105.466671 
L 367.187113 105.756903 
L 368.57321 104.450867 
L 370.652356 105.079704 
L 370.921871 104.112272 
L 372.076957 104.160644 
L 372.731502 103.483445 
L 373.925084 104.30576 
L 375.118666 104.30576 
L 375.927224 106.772706 
L 375.157169 108.4657 
L 371.499417 105.515043 
L 371.114386 108.127105 
L 367.841659 111.70659 
L 366.956102 110.932646 
L 365.454495 114.0768 
L 364.722943 114.802372 
L 363.567865 114.415396 
L 362.374283 113.206113 
L 361.835239 115.237711 
L 360.449149 116.882342 
L 359.910106 118.478601 
L 358.601015 119.784627 
L 357.830967 121.187407 
L 357.792464 122.783665 
L 356.560379 123.557609 
L 356.290857 123.025517 
L 353.095136 124.718519 
L 351.285512 125.202239 
L 350.322941 124.28318 
L 348.975347 125.444091 
L 348.08979 125.492463 
L 346.896208 124.766891 
L 345.933638 123.267377 
L 346.049147 122.541805 
L 345.12508 122.396689 
L 343.777486 121.380895 
L 343.430965 120.365091 
L 342.314389 119.059056 
L 341.467328 117.366053 
L 341.659844 114.705628 
L 343.507971 114.51214 
L 343.777486 113.35122 
L 344.624547 112.867509 
L 344.278026 111.51311 
L 345.587117 109.38476 
L 346.626687 110.739167 
L 347.358238 109.916852 
L 347.165723 108.901048 
L 348.051287 107.208046 
L 348.859845 107.256418 
L 349.668396 105.998754 
L 350.438451 106.579218 
L 351.324015 106.192242 
L 354.057706 103.338329 
L 354.712252 100.097439 
L 355.674815 97.969088 
L 355.713318 96.61469 
L 355.212785 95.647258 
L 356.252354 95.163547 
" clip-path="url(#pef8ad658c9)" style="fill: #ffffff; stroke: #000000"/>
    <path d="M 286.678025 42.777224 
L 287.987116 43.309316 
L 288.757171 44.808831 
L 295.995668 46.598578 
L 298.998881 47.904604 
L 299.922941 47.614372 
L 302.926154 48.48506 
L 303.734705 49.597607 
L 305.197809 50.661782 
L 305.120803 52.209669 
L 304.466257 53.418952 
L 306.121876 53.61244 
L 305.46733 54.870094 
L 306.545403 55.789154 
L 306.275888 56.853329 
L 304.928294 57.046817 
L 303.773208 59.078415 
L 303.349681 60.481195 
L 304.158239 60.723046 
L 305.236312 59.803987 
L 306.391391 58.062621 
L 307.854494 57.385413 
L 309.009573 55.160326 
L 310.472676 54.676615 
L 310.357167 55.837526 
L 309.356101 56.901701 
L 307.392464 60.57793 
L 306.853428 62.609537 
L 306.891931 64.060679 
L 306.160379 64.5444 
L 305.505833 66.527626 
L 305.736845 68.220628 
L 305.120803 69.333176 
L 304.273749 72.090345 
L 304.466257 74.267068 
L 305.313318 76.201922 
L 305.043796 78.765612 
L 298.113317 78.765612 
L 285.099412 78.620496 
L 284.598879 77.507957 
L 282.096206 76.492154 
L 281.55717 75.089383 
L 281.326151 73.106148 
L 282.173212 72.041973 
L 281.133636 71.171286 
L 281.056637 69.865259 
L 280.671606 68.849456 
L 280.864121 67.446685 
L 279.516527 65.511822 
L 278.399952 65.173227 
L 276.397812 63.673712 
L 276.051284 62.512793 
L 273.895139 61.545361 
L 273.163587 60.57793 
L 271.700484 60.432823 
L 269.852356 58.836564 
L 270.35289 55.595675 
L 270.198877 54.096151 
L 271.007435 52.741752 
L 270.121878 51.629205 
L 269.31332 51.53247 
L 269.428829 50.274806 
L 271.045938 48.388316 
L 273.048078 47.662744 
L 273.471605 47.130661 
L 273.471605 41.906537 
L 274.896205 41.180965 
L 275.435242 41.567941 
L 277.013854 41.664685 
L 281.903691 40.165171 
L 283.713315 39.342855 
L 284.329365 39.971683 
L 283.366794 41.132593 
L 285.676952 42.632117 
L 286.678025 42.777224 
" clip-path="url(#pef8ad658c9)" style="fill: #ffffff; stroke: #000000"/>
    <path d="M 155.460912 56.611469 
L 177.715461 56.611469 
L 190.767862 56.659841 
L 190.806365 74.267068 
L 190.806365 91.922658 
L 179.024552 91.97103 
L 163.623477 91.922658 
L 155.691931 91.97103 
L 141.638457 91.97103 
L 141.638457 83.119049 
L 141.638457 61.255138 
L 141.599954 56.611469 
L 155.460912 56.611469 
" clip-path="url(#pef8ad658c9)" style="fill: #ffffff; stroke: #000000"/>
   </g>
   <g id="matplotlib.axis_1">
    <g id="xtick_1">
     <g id="line2d_1">
      <defs>
       <path id="m2ca56da073" d="M 0 0 
L 0 3.5 
" style="stroke: #ffffff; stroke-width: 0.8"/>
      </defs>
      <g>
       <use xlink:href="#m2ca56da073" x="78.699665" y="242.914247" style="fill: #ffffff; stroke: #ffffff; stroke-width: 0.8"/>
      </g>
     </g>
     <g id="text_1">
      <text style="fill: #ffffff; font: 10px 'Arial'; text-anchor: middle" x="78.699665" y="257.072059" transform="rotate(-0, 78.699665, 257.072059)">120</text>
     </g>
    </g>
    <g id="xtick_2">
     <g id="line2d_2">
      <g>
       <use xlink:href="#m2ca56da073" x="148.999268" y="242.914247" style="fill: #ffffff; stroke: #ffffff; stroke-width: 0.8"/>
      </g>
     </g>
     <g id="text_2">
      <text style="fill: #ffffff; font: 10px 'Arial'; text-anchor: middle" x="148.999268" y="257.072059" transform="rotate(-0, 148.999268, 257.072059)">110</text>
     </g>
    </g>
    <g id="xtick_3">
     <g id="line2d_3">
      <g>
       <use xlink:href="#m2ca56da073" x="219.298871" y="242.914247" style="fill: #ffffff; stroke: #ffffff; stroke-width: 0.8"/>
      </g>
     </g>
     <g id="text_3">
      <text style="fill: #ffffff; font: 10px 'Arial'; text-anchor: middle" x="219.298871" y="257.072059" transform="rotate(-0, 219.298871, 257.072059)">100</text>
     </g>
    </g>
    <g id="xtick_4">
     <g id="line2d_4">
      <g>
       <use xlink:href="#m2ca56da073" x="289.598474" y="242.914247" style="fill: #ffffff; stroke: #ffffff; stroke-width: 0.8"/>
      </g>
     </g>
     <g id="text_4">
      <text style="fill: #ffffff; font: 10px 'Arial'; text-anchor: middle" x="289.598474" y="257.072059" transform="rotate(-0, 289.598474, 257.072059)">90</text>
     </g>
    </g>
    <g id="xtick_5">
     <g id="line2d_5">
      <g>
       <use xlink:href="#m2ca56da073" x="359.898078" y="242.914247" style="fill: #ffffff; stroke: #ffffff; stroke-width: 0.8"/>
      </g>
     </g>
     <g id="text_5">
      <text style="fill: #ffffff; font: 10px 'Arial'; text-anchor: middle" x="359.898078" y="257.072059" transform="rotate(-0, 359.898078, 257.072059)">80</text>
     </g>
    </g>
    <g id="xtick_6">
     <g id="line2d_6">
      <g>
       <use xlink:href="#m2ca56da073" x="430.197681" y="242.914247" style="fill: #ffffff; stroke: #ffffff; stroke-width: 0.8"/>
      </g>
     </g>
     <g id="text_6">
      <text style="fill: #ffffff; font: 10px 'Arial'; text-anchor: middle" x="430.197681" y="257.072059" transform="rotate(-0, 430.197681, 257.072059)">70</text>
     </g>
    </g>
   </g>
   <g id="matplotlib.axis_2">
    <g id="ytick_1">
     <g id="line2d_7">
      <defs>
       <path id="m849b7eb162" d="M 0 0 
L -3.5 0 
" style="stroke: #ffffff; stroke-width: 0.8"/>
      </defs>
      <g>
       <use xlink:href="#m849b7eb162" x="25.321875" y="233.266664" style="fill: #ffffff; stroke: #ffffff; stroke-width: 0.8"/>
      </g>
     </g>
     <g id="text_7">
      <text style="fill: #ffffff; font: 10px 'Arial'; text-anchor: end" x="18.321875" y="236.84557" transform="rotate(-0, 18.321875, 236.84557)">25</text>
     </g>
    </g>
    <g id="ytick_2">
     <g id="line2d_8">
      <g>
       <use xlink:href="#m849b7eb162" x="25.321875" y="189.107443" style="fill: #ffffff; stroke: #ffffff; stroke-width: 0.8"/>
      </g>
     </g>
     <g id="text_8">
      <text style="fill: #ffffff; font: 10px 'Arial'; text-anchor: end" x="18.321875" y="192.686349" transform="rotate(-0, 18.321875, 192.686349)">30</text>
     </g>
    </g>
    <g id="ytick_3">
     <g id="line2d_9">
      <g>
       <use xlink:href="#m849b7eb162" x="25.321875" y="144.948221" style="fill: #ffffff; stroke: #ffffff; stroke-width: 0.8"/>
      </g>
     </g>
     <g id="text_9">
      <text style="fill: #ffffff; font: 10px 'Arial'; text-anchor: end" x="18.321875" y="148.527127" transform="rotate(-0, 18.321875, 148.527127)">35</text>
     </g>
    </g>
    <g id="ytick_4">
     <g id="line2d_10">
      <g>
       <use xlink:href="#m849b7eb162" x="25.321875" y="100.788999" style="fill: #ffffff; stroke: #ffffff; stroke-width: 0.8"/>
      </g>
     </g>
     <g id="text_10">
      <text style="fill: #ffffff; font: 10px 'Arial'; text-anchor: end" x="18.321875" y="104.367905" transform="rotate(-0, 18.321875, 104.367905)">40</text>
     </g>
    </g>
    <g id="ytick_5">
     <g id="line2d_11">
      <g>
       <use xlink:href="#m849b7eb162" x="25.321875" y="56.629778" style="fill: #ffffff; stroke: #ffffff; stroke-width: 0.8"/>
      </g>
     </g>
     <g id="text_11">
      <text style="fill: #ffffff; font: 10px 'Arial'; text-anchor: end" x="18.321875" y="60.208684" transform="rotate(-0, 18.321875, 60.208684)">45</text>
     </g>
    </g>
    <g id="ytick_6">
     <g id="line2d_12">
      <g>
       <use xlink:href="#m849b7eb162" x="25.321875" y="12.470556" style="fill: #ffffff; stroke: #ffffff; stroke-width: 0.8"/>
      </g>
     </g>
     <g id="text_12">
      <text style="fill: #ffffff; font: 10px 'Arial'; text-anchor: end" x="18.321875" y="16.049462" transform="rotate(-0, 18.321875, 16.049462)">50</text>
     </g>
    </g>
   </g>
   <g id="patch_3">
    <path d="M 25.321875 242.914247 
L 25.321875 7.2 
" style="fill: none; stroke: #ffffff; stroke-width: 0.8; stroke-linejoin: miter; stroke-linecap: square"/>
   </g>
   <g id="patch_4">
    <path d="M 471.721875 242.914247 
L 471.721875 7.2 
" style="fill: none; stroke: #ffffff; stroke-width: 0.8; stroke-linejoin: miter; stroke-linecap: square"/>
   </g>
   <g id="patch_5">
    <path d="M 25.321875 242.914247 
L 471.721875 242.914247 
" style="fill: none; stroke: #ffffff; stroke-width: 0.8; stroke-linejoin: miter; stroke-linecap: square"/>
   </g>
   <g id="patch_6">
    <path d="M 25.321875 7.2 
L 471.721875 7.2 
" style="fill: none; stroke: #ffffff; stroke-width: 0.8; stroke-linejoin: miter; stroke-linecap: square"/>
   </g>
  </g>
 </g>
 <defs>
  <clipPath id="pef8ad658c9">
   <rect x="25.321875" y="7.2" width="446.4" height="235.714247"/>
  </clipPath>
 </defs>
</svg>
