<?xml version="1.0" encoding="utf-8" standalone="no"?>
<!DOCTYPE svg PUBLIC "-//W3C//DTD SVG 1.1//EN"
  "http://www.w3.org/Graphics/SVG/1.1/DTD/svg11.dtd">
<svg xmlns:xlink="http://www.w3.org/1999/xlink" width="496.742812pt" height="425.305313pt" viewBox="0 0 496.742812 425.305313" xmlns="http://www.w3.org/2000/svg" version="1.1">
 <metadata>
  <rdf:RDF xmlns:dc="http://purl.org/dc/elements/1.1/" xmlns:cc="http://creativecommons.org/ns#" xmlns:rdf="http://www.w3.org/1999/02/22-rdf-syntax-ns#">
   <cc:Work>
    <dc:type rdf:resource="http://purl.org/dc/dcmitype/StillImage"/>
    <dc:date>2025-12-27T10:21:10.009525</dc:date>
    <dc:format>image/svg+xml</dc:format>
    <dc:creator>
     <cc:Agent>
      <dc:title>Matplotlib v3.5.2, https://matplotlib.org/</dc:title>
     </cc:Agent>
    </dc:creator>
   </cc:Work>
  </rdf:RDF>
 </metadata>
 <defs>
  <style type="text/css">*{stroke-linejoin: round; stroke-linecap: butt}</style>
 </defs>
 <g id="figure_1">
  <g id="patch_1">
   <path d="M 0 425.305313 
L 496.742813 425.305313 
L 496.742813 0 
L 0 0 
L 0 425.305313 
z
" style="fill: none; opacity: 0"/>
  </g>
  <g id="axes_1">
   <g id="patch_2">
    <path d="M 30.882813 401.96 
L 489.542812 401.96 
L 489.542812 7.2 
L 30.882813 7.2 
L 30.882813 401.96 
z
" style="fill: none"/>
   </g>
   <g id="matplotlib.axis_1">
    <g id="xtick_1">
     <g id="line2d_1">
      <defs>
       <path id="mb7af80d9f3" d="M 0 0 
L 0 3.5 
" style="stroke: #ffffff; stroke-width: 0.8"/>
      </defs>
      <g>
       <use xlink:href="#mb7af80d9f3" x="51.730994" y="401.96" style="fill: #ffffff; stroke: #ffffff; stroke-width: 0.8"/>
      </g>
     </g>
     <g id="text_1">
      <text style="fill: #ffffff; font: 10px 'Arial'; text-anchor: middle" x="51.730994" y="416.117813" transform="rotate(-0, 51.730994, 416.117813)">1951</text>
     </g>
    </g>
    <g id="xtick_2">
     <g id="line2d_2">
      <g>
       <use xlink:href="#mb7af80d9f3" x="103.851449" y="401.96" style="fill: #ffffff; stroke: #ffffff; stroke-width: 0.8"/>
      </g>
     </g>
     <g id="text_2">
      <text style="fill: #ffffff; font: 10px 'Arial'; text-anchor: middle" x="103.851449" y="416.117813" transform="rotate(-0, 103.851449, 416.117813)">1952</text>
     </g>
    </g>
    <g id="xtick_3">
     <g id="line2d_3">
      <g>
       <use xlink:href="#mb7af80d9f3" x="155.971903" y="401.96" style="fill: #ffffff; stroke: #ffffff; stroke-width: 0.8"/>
      </g>
     </g>
     <g id="text_3">
      <text style="fill: #ffffff; font: 10px 'Arial'; text-anchor: middle" x="155.971903" y="416.117813" transform="rotate(-0, 155.971903, 416.117813)">1953</text>
     </g>
    </g>
    <g id="xtick_4">
     <g id="line2d_4">
      <g>
       <use xlink:href="#mb7af80d9f3" x="208.092358" y="401.96" style="fill: #ffffff; stroke: #ffffff; stroke-width: 0.8"/>
      </g>
     </g>
     <g id="text_4">
      <text style="fill: #ffffff; font: 10px 'Arial'; text-anchor: middle" x="208.092358" y="416.117813" transform="rotate(-0, 208.092358, 416.117813)">1954</text>
     </g>
    </g>
    <g id="xtick_5">
     <g id="line2d_5">
      <g>
       <use xlink:href="#mb7af80d9f3" x="260.212812" y="401.96" style="fill: #ffffff; stroke: #ffffff; stroke-width: 0.8"/>
      </g>
     </g>
     <g id="text_5">
      <text style="fill: #ffffff; font: 10px 'Arial'; text-anchor: middle" x="260.212812" y="416.117813" transform="rotate(-0, 260.212812, 416.117813)">1955</text>
     </g>
    </g>
    <g id="xtick_6">
     <g id="line2d_6">
      <g>
       <use xlink:href="#mb7af80d9f3" x="312.333267" y="401.96" style="fill: #ffffff; stroke: #ffffff; stroke-width: 0.8"/>
      </g>
     </g>
     <g id="text_6">
      <text style="fill: #ffffff; font: 10px 'Arial'; text-anchor: middle" x="312.333267" y="416.117813" transform="rotate(-0, 312.333267, 416.117813)">1956</text>
     </g>
    </g>
    <g id="xtick_7">
     <g id="line2d_7">
      <g>
       <use xlink:href="#mb7af80d9f3" x="364.453722" y="401.96" style="fill: #ffffff; stroke: #ffffff; stroke-width: 0.8"/>
      </g>
     </g>
     <g id="text_7">
      <text style="fill: #ffffff; font: 10px 'Arial'; text-anchor: middle" x="364.453722" y="416.117813" transform="rotate(-0, 364.453722, 416.117813)">1957</text>
     </g>
    </g>
    <g id="xtick_8">
     <g id="line2d_8">
      <g>
       <use xlink:href="#mb7af80d9f3" x="416.574176" y="401.96" style="fill: #ffffff; stroke: #ffffff; stroke-width: 0.8"/>
      </g>
     </g>
     <g id="text_8">
      <text style="fill: #ffffff; font: 10px 'Arial'; text-anchor: middle" x="416.574176" y="416.117813" transform="rotate(-0, 416.574176, 416.117813)">1958</text>
     </g>
    </g>
    <g id="xtick_9">
     <g id="line2d_9">
      <g>
       <use xlink:href="#mb7af80d9f3" x="468.694631" y="401.96" style="fill: #ffffff; stroke: #ffffff; stroke-width: 0.8"/>
      </g>
     </g>
     <g id="text_9">
      <text style="fill: #ffffff; font: 10px 'Arial'; text-anchor: middle" x="468.694631" y="416.117813" transform="rotate(-0, 468.694631, 416.117813)">1959</text>
     </g>
    </g>
   </g>
   <g id="matplotlib.axis_2">
    <g id="ytick_1">
     <g id="line2d_10">
      <defs>
       <path id="m8c7ad9a4de" d="M 0 0 
L -3.5 0 
" style="stroke: #ffffff; stroke-width: 0.8"/>
      </defs>
      <g>
       <use xlink:href="#m8c7ad9a4de" x="30.882813" y="346.240287" style="fill: #ffffff; stroke: #ffffff; stroke-width: 0.8"/>
      </g>
     </g>
     <g id="text_10">
      <text style="fill: #ffffff; font: 10px 'Arial'; text-anchor: end" x="23.882813" y="349.819193" transform="rotate(-0, 23.882813, 349.819193)">240</text>
     </g>
    </g>
    <g id="ytick_2">
     <g id="line2d_11">
      <g>
       <use xlink:href="#m8c7ad9a4de" x="30.882813" y="270.688134" style="fill: #ffffff; stroke: #ffffff; stroke-width: 0.8"/>
      </g>
     </g>
     <g id="text_11">
      <text style="fill: #ffffff; font: 10px 'Arial'; text-anchor: end" x="23.882813" y="274.26704" transform="rotate(-0, 23.882813, 274.26704)">260</text>
     </g>
    </g>
    <g id="ytick_3">
     <g id="line2d_12">
      <g>
       <use xlink:href="#m8c7ad9a4de" x="30.882813" y="195.135981" style="fill: #ffffff; stroke: #ffffff; stroke-width: 0.8"/>
      </g>
     </g>
     <g id="text_12">
      <text style="fill: #ffffff; font: 10px 'Arial'; text-anchor: end" x="23.882813" y="198.714887" transform="rotate(-0, 23.882813, 198.714887)">280</text>
     </g>
    </g>
    <g id="ytick_4">
     <g id="line2d_13">
      <g>
       <use xlink:href="#m8c7ad9a4de" x="30.882813" y="119.583828" style="fill: #ffffff; stroke: #ffffff; stroke-width: 0.8"/>
      </g>
     </g>
     <g id="text_13">
      <text style="fill: #ffffff; font: 10px 'Arial'; text-anchor: end" x="23.882813" y="123.162734" transform="rotate(-0, 23.882813, 123.162734)">300</text>
     </g>
    </g>
    <g id="ytick_5">
     <g id="line2d_14">
      <g>
       <use xlink:href="#m8c7ad9a4de" x="30.882813" y="44.031675" style="fill: #ffffff; stroke: #ffffff; stroke-width: 0.8"/>
      </g>
     </g>
     <g id="text_14">
      <text style="fill: #ffffff; font: 10px 'Arial'; text-anchor: end" x="23.882813" y="47.610581" transform="rotate(-0, 23.882813, 47.610581)">320</text>
     </g>
    </g>
   </g>
   <g id="line2d_15">
    <path d="M 51.730994 251.800096 
L 103.851449 384.016364 
L 155.971903 214.024019 
L 208.092358 346.240287 
L 260.212812 25.143636 
L 312.333267 195.135981 
L 364.453722 221.579234 
L 416.574176 316.019426 
L 468.694631 327.352249 
" clip-path="url(#pcf82b72e57)" style="fill: none; stroke: #ffffff; stroke-linecap: square"/>
   </g>
   <g id="PathCollection_1">
    <defs>
     <path id="m3989dc4c23" d="M 0 2.12132 
C 0.562581 2.12132 1.102195 1.897805 1.5 1.5 
C 1.897805 1.102195 2.12132 0.562581 2.12132 0 
C 2.12132 -0.562581 1.897805 -1.102195 1.5 -1.5 
C 1.102195 -1.897805 0.562581 -2.12132 0 -2.12132 
C -0.562581 -2.12132 -1.102195 -1.897805 -1.5 -1.5 
C -1.897805 -1.102195 -2.12132 -0.562581 -2.12132 0 
C -2.12132 0.562581 -1.897805 1.102195 -1.5 1.5 
C -1.102195 1.897805 -0.562581 2.12132 0 2.12132 
z
" style="stroke: #ffffff"/>
    </defs>
    <g clip-path="url(#pcf82b72e57)">
     <use xlink:href="#m3989dc4c23" x="51.730994" y="251.800096" style="fill: #ffffff; stroke: #ffffff"/>
     <use xlink:href="#m3989dc4c23" x="103.851449" y="384.016364" style="fill: #ffffff; stroke: #ffffff"/>
     <use xlink:href="#m3989dc4c23" x="155.971903" y="214.024019" style="fill: #ffffff; stroke: #ffffff"/>
     <use xlink:href="#m3989dc4c23" x="208.092358" y="346.240287" style="fill: #ffffff; stroke: #ffffff"/>
     <use xlink:href="#m3989dc4c23" x="260.212812" y="25.143636" style="fill: #ffffff; stroke: #ffffff"/>
     <use xlink:href="#m3989dc4c23" x="312.333267" y="195.135981" style="fill: #ffffff; stroke: #ffffff"/>
     <use xlink:href="#m3989dc4c23" x="364.453722" y="221.579234" style="fill: #ffffff; stroke: #ffffff"/>
     <use xlink:href="#m3989dc4c23" x="416.574176" y="316.019426" style="fill: #ffffff; stroke: #ffffff"/>
     <use xlink:href="#m3989dc4c23" x="468.694631" y="327.352249" style="fill: #ffffff; stroke: #ffffff"/>
    </g>
   </g>
   <g id="patch_3">
    <path d="M 30.882813 401.96 
L 30.882813 7.2 
" style="fill: none; stroke: #ffffff; stroke-width: 0.8; stroke-linejoin: miter; stroke-linecap: square"/>
   </g>
   <g id="patch_4">
    <path d="M 489.542812 401.96 
L 489.542812 7.2 
" style="fill: none; stroke: #ffffff; stroke-width: 0.8; stroke-linejoin: miter; stroke-linecap: square"/>
   </g>
   <g id="patch_5">
    <path d="M 30.882812 401.96 
L 489.542812 401.96 
" style="fill: none; stroke: #ffffff; stroke-width: 0.8; stroke-linejoin: miter; stroke-linecap: square"/>
   </g>
   <g id="patch_6">
    <path d="M 30.882812 7.2 
L 489.542812 7.2 
" style="fill: none; stroke: #ffffff; stroke-width: 0.8; stroke-linejoin: miter; stroke-linecap: square"/>
   </g>
   <g id="line2d_16">
    <path d="M 260.212812 25.143636 
L 312.333267 195.135981 
" clip-path="url(#pcf82b72e57)" style="fill: none; stroke: #ffffff; stroke-width: 3; stroke-linecap: square"/>
   </g>
   <g id="text_15">
    <text style="fill: #ffffff; font: 12px 'Arial'" transform="translate(283.145813 35.527375)">Connecticut Traffic Deaths,</text>
    <text style="fill: #ffffff; font: 12px 'Arial'" transform="translate(283.145813 48.219625)">1951–1959</text>
   </g>
   <g id="PathCollection_2">
    <defs>
     <path id="me6e37c8f05" d="M 0 3.162278 
C 0.838646 3.162278 1.643056 2.82908 2.236068 2.236068 
C 2.82908 1.643056 3.162278 0.838646 3.162278 0 
C 3.162278 -0.838646 2.82908 -1.643056 2.236068 -2.236068 
C 1.643056 -2.82908 0.838646 -3.162278 0 -3.162278 
C -0.838646 -3.162278 -1.643056 -2.82908 -2.236068 -2.236068 
C -2.82908 -1.643056 -3.162278 -0.838646 -3.162278 0 
C -3.162278 0.838646 -2.82908 1.643056 -2.236068 2.236068 
C -1.643056 2.82908 -0.838646 3.162278 0 3.162278 
z
" style="stroke: #ffffff"/>
    </defs>
    <g clip-path="url(#pcf82b72e57)">
     <use xlink:href="#me6e37c8f05" x="260.212812" y="25.143636" style="fill: #ffffff; stroke: #ffffff"/>
     <use xlink:href="#me6e37c8f05" x="312.333267" y="195.135981" style="fill: #ffffff; stroke: #ffffff"/>
    </g>
   </g>
  </g>
 </g>
 <defs>
  <clipPath id="pcf82b72e57">
   <rect x="30.882813" y="7.2" width="458.66" height="394.76"/>
  </clipPath>
 </defs>
</svg>
