<?xml version="1.0" encoding="utf-8" standalone="no"?>
<!DOCTYPE svg PUBLIC "-//W3C//DTD SVG 1.1//EN"
  "http://www.w3.org/Graphics/SVG/1.1/DTD/svg11.dtd">
<svg xmlns:xlink="http://www.w3.org/1999/xlink" width="281.276875pt" height="352.8pt" viewBox="0 0 281.276875 352.8" xmlns="http://www.w3.org/2000/svg" version="1.1">
 <metadata>
  <rdf:RDF xmlns:dc="http://purl.org/dc/elements/1.1/" xmlns:cc="http://creativecommons.org/ns#" xmlns:rdf="http://www.w3.org/1999/02/22-rdf-syntax-ns#">
   <cc:Work>
    <dc:type rdf:resource="http://purl.org/dc/dcmitype/StillImage"/>
    <dc:date>2025-12-15T15:45:54.716260</dc:date>
    <dc:format>image/svg+xml</dc:format>
    <dc:creator>
     <cc:Agent>
      <dc:title>Matplotlib v3.5.2, https://matplotlib.org/</dc:title>
     </cc:Agent>
    </dc:creator>
   </cc:Work>
  </rdf:RDF>
 </metadata>
 <defs>
  <style type="text/css">*{stroke-linejoin: round; stroke-linecap: butt}</style>
 </defs>
 <g id="figure_1">
  <g id="patch_1">
   <path d="M 0 352.8 
L 281.276875 352.8 
L 281.276875 0 
L 0 0 
L 0 352.8 
z
" style="fill: none; opacity: 0"/>
  </g>
  <g id="axes_1">
   <g id="patch_2">
    <path d="M 39.246875 341.6 
L 274.076875 341.6 
L 274.076875 7.2 
L 39.246875 7.2 
L 39.246875 341.6 
z
" style="fill: none"/>
   </g>
   <g id="matplotlib.axis_1"/>
   <g id="matplotlib.axis_2">
    <g id="ytick_1">
     <g id="line2d_1">
      <defs>
       <path id="m1a1db4e970" d="M 0 0 
L -4 0 
" style="stroke: #ffffff"/>
      </defs>
      <g>
       <use xlink:href="#m1a1db4e970" x="39.246875" y="284.270856" style="fill: #ffffff; stroke: #ffffff"/>
      </g>
     </g>
     <g id="text_1">
      <text style="fill: #ffffff; font: 10px 'Arial'; text-anchor: end" x="31.746875" y="287.849763" transform="rotate(-0, 31.746875, 287.849763)">−2</text>
     </g>
    </g>
    <g id="ytick_2">
     <g id="line2d_2">
      <g>
       <use xlink:href="#m1a1db4e970" x="39.246875" y="216.292677" style="fill: #ffffff; stroke: #ffffff"/>
      </g>
     </g>
     <g id="text_2">
      <text style="fill: #ffffff; font: 10px 'Arial'; text-anchor: end" x="31.746875" y="219.871583" transform="rotate(-0, 31.746875, 219.871583)">−1</text>
     </g>
    </g>
    <g id="ytick_3">
     <g id="line2d_3">
      <g>
       <use xlink:href="#m1a1db4e970" x="39.246875" y="148.314498" style="fill: #ffffff; stroke: #ffffff"/>
      </g>
     </g>
     <g id="text_3">
      <text style="fill: #ffffff; font: 10px 'Arial'; text-anchor: end" x="31.746875" y="151.893404" transform="rotate(-0, 31.746875, 151.893404)">0</text>
     </g>
    </g>
    <g id="ytick_4">
     <g id="line2d_4">
      <g>
       <use xlink:href="#m1a1db4e970" x="39.246875" y="80.336319" style="fill: #ffffff; stroke: #ffffff"/>
      </g>
     </g>
     <g id="text_4">
      <text style="fill: #ffffff; font: 10px 'Arial'; text-anchor: end" x="31.746875" y="83.915225" transform="rotate(-0, 31.746875, 83.915225)">1</text>
     </g>
    </g>
    <g id="ytick_5">
     <g id="line2d_5">
      <g>
       <use xlink:href="#m1a1db4e970" x="39.246875" y="12.35814" style="fill: #ffffff; stroke: #ffffff"/>
      </g>
     </g>
     <g id="text_5">
      <text style="fill: #ffffff; font: 10px 'Arial'; text-anchor: end" x="31.746875" y="15.937046" transform="rotate(-0, 31.746875, 15.937046)">2</text>
     </g>
    </g>
    <g id="text_6">
     <text style="fill: #ffffff; font: 10px 'Arial'; text-anchor: middle" x="14.357813" y="174.4" transform="rotate(-90, 14.357813, 174.4)">Value</text>
    </g>
   </g>
   <g id="patch_3">
    <path d="M 109.695875 189.162971 
L 203.627875 189.162971 
L 203.627875 120.718617 
L 109.695875 120.718617 
L 109.695875 189.162971 
z
" clip-path="url(#p4a6501a7e2)" style="fill: #ffffff; stroke: #ffffff; stroke-width: 1.2; stroke-linejoin: miter"/>
   </g>
   <g id="line2d_6">
    <path d="M 156.661875 189.162971 
L 156.661875 283.425814 
" clip-path="url(#p4a6501a7e2)" style="fill: none; stroke: #ffffff; stroke-width: 1.2; stroke-linecap: square"/>
   </g>
   <g id="line2d_7">
    <path d="M 156.661875 120.718617 
L 156.661875 22.4 
" clip-path="url(#p4a6501a7e2)" style="fill: none; stroke: #ffffff; stroke-width: 1.2; stroke-linecap: square"/>
   </g>
   <g id="line2d_8">
    <path d="M 133.178875 283.425814 
L 180.144875 283.425814 
" clip-path="url(#p4a6501a7e2)" style="fill: none; stroke: #ffffff; stroke-width: 1.2; stroke-linecap: square"/>
   </g>
   <g id="line2d_9">
    <path d="M 133.178875 22.4 
L 180.144875 22.4 
" clip-path="url(#p4a6501a7e2)" style="fill: none; stroke: #ffffff; stroke-width: 1.2; stroke-linecap: square"/>
   </g>
   <g id="line2d_10">
    <defs>
     <path id="m4d0e9ffabc" d="M 0 2 
C 0.530406 2 1.03916 1.789267 1.414214 1.414214 
C 1.789267 1.03916 2 0.530406 2 0 
C 2 -0.530406 1.789267 -1.03916 1.414214 -1.414214 
C 1.03916 -1.789267 0.530406 -2 0 -2 
C -0.530406 -2 -1.03916 -1.789267 -1.414214 -1.414214 
C -1.789267 -1.03916 -2 -0.530406 -2 0 
C -2 0.530406 -1.789267 1.03916 -1.414214 1.414214 
C -1.03916 1.789267 -0.530406 2 0 2 
z
" style="stroke: #ffffff"/>
    </defs>
    <g clip-path="url(#p4a6501a7e2)">
     <use xlink:href="#m4d0e9ffabc" x="156.661875" y="326.4" style="fill: #ffffff; stroke: #ffffff"/>
    </g>
   </g>
   <g id="line2d_11">
    <path d="M 109.695875 156.944756 
L 203.627875 156.944756 
" clip-path="url(#p4a6501a7e2)" style="fill: none; stroke: #000000; stroke-width: 1.5; stroke-linecap: square"/>
   </g>
   <g id="patch_4">
    <path d="M 39.246875 341.6 
L 39.246875 7.2 
" style="fill: none; stroke: #ffffff; stroke-width: 0.8; stroke-linejoin: miter; stroke-linecap: square"/>
   </g>
   <g id="patch_5">
    <path d="M 274.076875 341.6 
L 274.076875 7.2 
" style="fill: none; stroke: #ffffff; stroke-width: 0.8; stroke-linejoin: miter; stroke-linecap: square"/>
   </g>
   <g id="patch_6">
    <path d="M 39.246875 341.6 
L 274.076875 341.6 
" style="fill: none; stroke: #ffffff; stroke-width: 0.8; stroke-linejoin: miter; stroke-linecap: square"/>
   </g>
   <g id="patch_7">
    <path d="M 39.246875 7.2 
L 274.076875 7.2 
" style="fill: none; stroke: #ffffff; stroke-width: 0.8; stroke-linejoin: miter; stroke-linecap: square"/>
   </g>
  </g>
 </g>
 <defs>
  <clipPath id="p4a6501a7e2">
   <rect x="39.246875" y="7.2" width="234.83" height="334.4"/>
  </clipPath>
 </defs>
</svg>
