<?xml version="1.0" encoding="UTF-8" standalone="no"?>
<svg
   xmlns="http://www.w3.org/2000/svg"
   version="1.0"
   width="500"
   height="400">

  <g transform="translate(7.232021,9.389123)">

    <!-- C -->
    <path
       d="M 531 215.5 A 146 83.5 0 1 1 239,215.5 A 146 83.5 0 1 1 531 215.5 z"
       transform="matrix(1.04574,-0.280293,0.381889,1.425524,-237.6189,-63.08857)"
       fill="#00ff88"
       fill-opacity="0.25"
       stroke="#00ff88"
       stroke-width="2.2"/>

    <!-- A -->
    <path
       d="M 531 215.5 A 146 83.5 0 1 1 239,215.5 A 146 83.5 0 1 1 531 215.5 z"
       transform="matrix(1.04574,-0.280293,0.381889,1.425524,-165.9075,43.67319)"
       fill="#ff4d4d"
       fill-opacity="0.25"
       stroke="#ff4d4d"
       stroke-width="2.2"/>

    <!-- B -->
    <path
       d="M 531 215.5 A 146 83.5 0 1 1 239,215.5 A 146 83.5 0 1 1 531 215.5 z"
       transform="matrix(1.04574,-0.280293,0.381889,1.425524,-318.3705,45.73509)"
       fill="#4da3ff"
       fill-opacity="0.25"
       stroke="#4da3ff"
       stroke-width="2.2"/>

    <!-- Labels -->
    <text x="259.7" y="70.8"
          font-size="32"
          text-anchor="middle"
          fill="#ffffff"
          font-family="Arial">C</text>

    <text x="403.4" y="270.8"
          font-size="32"
          text-anchor="middle"
          fill="#ffffff"
          font-family="Arial">A</text>

    <text x="86.38" y="303.1"
          font-size="32"
          text-anchor="middle"
          fill="#ffffff"
          font-family="Arial">B</text>

  </g>
</svg>