<svg xmlns="http://www.w3.org/2000/svg" width="1024" height="1024" viewBox="0 0 1024 1024">
  <path fill="#2a4a59" d="M391 855.99c-47.33 2.66-100.66-.72-142-8.99-25.35-5.07-45.42-11.66-64.04-21.02-37.93-19.07-65.7-53.84-74.16-92.84-2.75-12.67-2.95-37.32-.42-50.64 12.54-65.85 64.2-107.38 133.69-107.48 14.72-.02 27.77 1.98 40.43 6.21 39.96 13.34 70.5 46.14 70.5 75.72 0 7.28-1.7 12.34-5.72 17.03-6.26 7.32-14.97 7.65-22.42.86-11.44-10.43-21.13-14.55-31.93-13.57-14.58 1.32-25.71 18.19-20.6 31.23 2.35 6.02 6.04 11.08 10.55 14.47 13.07 9.82 39.59 16.48 74.25 18.65l10.62.66 2.02-5.39c2.6-6.97 8.65-26.57 10.77-34.89 7.04-27.7 15.24-69.73 17-87.12l.67-6.62-6.86-.72c-18.17-1.89-44.86-8.74-55.98-14.36-5.56-2.81-18.21-11.5-19.44-13.35-.31-.47-4.14-.35-8.5.27-28.92 4.1-67.87-8.16-88.76-27.96-7.24-6.86-10.65-13.55-10.66-20.92-.02-10.32 2.87-13.72 24.37-28.67 7.64-5.3 18.2-13.11 23.48-17.35 9.39-7.53 43.14-40.66 43.14-42.35 0-.47-1.08-.85-2.39-.85-1.32 0-6.61-1.1-11.76-2.43-22.84-5.94-40.92-18.15-47.48-32.07-2.82-6-3.17-15.01-.78-20.04 1.79-3.78 7.97-9.58 18.04-16.96 16.2-11.86 41.63-36.1 62.17-59.28l6.25-7.04-5.45-3.12c-8.19-4.69-14.82-11.16-18.14-17.71-2.5-4.94-2.96-7.02-2.96-13.35 0-10.19 2.86-15.56 15.8-29.68 5.61-6.12 19.41-21.18 30.66-33.47 11.26-12.29 20.73-22.58 21.04-22.85.32-.27 12.01-13.28 25.98-28.9 40.47-45.23 41.97-46.53 54.02-46.53 4.71 0 7.6.59 10.5 2.13 5.2 2.77 20.72 18.74 43.03 44.3 9.84 11.27 22.38 25.45 27.86 31.5s13.82 15.27 18.53 20.5 11.71 12.79 15.57 16.81 11.4 11.9 16.76 17.5c10.45 10.92 14.21 17.13 15.29 25.25.82 6.25-1.41 15.21-5.15 20.59-3.09 4.47-12.01 11.91-17.61 14.71l-3.72 1.86 6.69 7.89c16.34 19.25 35.12 38.08 47.79 47.9 4.93 3.81 9.18 7.2 9.46 7.52s3.88 2.79 8 5.48 8.57 6.04 9.88 7.44c5.79 6.21 7.68 16.38 4.64 24.99-3.23 9.15-14.64 20.08-28.7 27.49-8.58 4.52-25.94 10.57-30.33 10.57-1.37 0-2.49.38-2.49.85 0 1.37 33.7 34.37 42.5 41.62 4.4 3.63 14.33 10.82 22.07 15.99 16.38 10.94 20.72 15.27 22.95 22.95 1.85 6.36 1.31 10.92-2.08 17.59-5.78 11.39-27.94 27.22-48.22 34.46-27.16 9.7-55.99 12.71-77.48 8.09l-6.77-1.45-6.49 4.92c-10.02 7.58-25.65 14.5-37.11 16.42l-4.12.69-.65 7.69c-2.66 31.61-3.36 77.13-1.59 103.1.55 7.92 1.17 14.59 1.38 14.81.78.77 38.44-6.9 60.11-12.25 76.13-18.78 136.12-43.21 177-72.07 14.37-10.14 30.85-26.58 35.85-35.77 8.03-14.75 8.65-27.15 1.72-34.56-2.39-2.57-3.63-3.08-7.41-3.08-5.72 0-9.85 2.41-15.55 9.07-7.85 9.17-13.98 10.98-23.11 6.85-5.88-2.67-8.65-5.35-11.67-11.28-9.44-18.54-.26-45.85 19.69-58.65 12.85-8.25 31.44-12.18 47.46-10.05 30.83 4.1 50.8 24.26 57.06 57.62 2.05 10.9 1.53 33.86-1.03 45.44-5.41 24.49-18.48 52.39-34.45 73.5-17.87 23.64-45.99 50.52-74.06 70.81-3.58 2.58-7.01 5.11-7.63 5.62-1.9 1.55-29.38 19.39-37.37 24.26-57.22 34.85-133.93 63.14-205.41 75.76-33.27 5.87-52.9 8.15-86.59 10.04M327.18 840c38.89 1.83 91.67-.88 127.32-6.53 20.32-3.23 23.61-3.8 37.5-6.6 83.72-16.85 164-52.42 231.01-102.38 5.77-4.3 11.87-8.98 13.56-10.41 1.68-1.42 5.28-4.34 8-6.49 7.64-6.07 33.36-32.21 40.23-40.88 27.88-35.25 42.05-74.37 38.37-105.94-2.04-17.41-6.24-27.57-15.52-37.48-14.89-15.93-41.31-19.99-62.07-9.56-6.07 3.06-14.61 11.45-17.63 17.35-3.17 6.19-3.87 17.54-1.42 22.98 2.89 6.42 5.26 6.23 12.31-.98 21.52-21.99 50.38-11.83 51.96 18.3.54 10.23-1.43 18.41-6.85 28.44-15.36 28.49-50.22 54.21-108.95 80.41-43.25 19.3-98.95 35.5-169 49.15-57.12 11.14-77.64 13.18-123.45 12.3-42.55-.82-65.85-3.84-86.56-11.22-22.14-7.89-36.65-23.57-38.45-41.53-1.63-16.24 7.43-31.85 22.93-39.51 9.68-4.79 18.03-5.5 29.04-2.49 9.02 2.47 13.71 4.96 21.85 11.59 3.11 2.53 6.09 4.32 6.64 3.98 3.3-2.04-.75-18.67-6.75-27.77-4.84-7.34-15.95-18.62-23.97-24.34-19.44-13.89-47.31-21.61-71.78-19.9-51.68 3.63-89.29 30.96-105.29 76.52-4.67 13.31-6.26 25.01-5.82 42.99.44 18.53 2.55 27.61 10.5 45.28 8.76 19.47 25.99 38.08 47.65 51.48 31.39 19.43 77.83 30.1 144.64 33.24M416 578.42c7.71.89 54.05-.46 64.26-1.88 26.57-3.68 39.43-8.95 53.35-21.84l6.11-5.65 11.39 2.58c10.51 2.39 12.63 2.55 27.39 2.04 22.53-.79 38.73-4.79 57.63-14.25 13.03-6.52 26.71-17.46 28.45-22.74 1.6-4.85-1.09-7.43-24.08-23.14-5.5-3.76-13.38-9.56-17.5-12.89-9.77-7.89-38.21-36.3-44.8-44.75l-5.15-6.61-8.89-.67c-4.89-.37-11.96-1.52-15.72-2.57l-6.83-1.89-5.13 4.69c-12.46 11.38-34.38 19.04-64.98 22.71-10.94 1.31-19.03 1.56-37 1.14-45.54-1.06-72.04-8.8-91.42-26.7l-4.43-4.09-7.41 1.75-7.41 1.75-11.62 12.54c-25.54 27.59-41.32 41.86-63.52 57.42-20.72 14.53-23.73 16.38-23.75 18.25 0 .32.08.63.17 1 .07.27.15.58.21.93.67 4.18 2.56 6.72 9.05 12.2 9.51 8.03 28.15 16.28 44.61 19.75 9.4 1.97 25.09 1.91 34.43-.14l7.47-1.64 6.78 6.2c14.15 12.97 39.63 21.6 73.84 25 6.05.61 12.58 1.28 14.5 1.5m10.5-142.11c33.92 1.75 64.55-2.24 85-11.08 6.65-2.87 17.95-11.39 22.23-16.75 1.52-1.92 3.28-3.48 3.9-3.48s3.67 1.17 6.78 2.59c11.11 5.09 28.97 6.69 44.09 3.97 11.34-2.05 17.74-4.16 27.52-9.07 13.48-6.77 22.98-16.65 22.98-23.9v-.1c0-.4 0-.73-.06-1.06-.32-1.74-2.37-3.17-15.44-12.43-4.95-3.51-13.05-9.85-18-14.1-14.91-12.79-42.44-41.78-50.02-52.68-2.47-3.54-3.41-4.19-5.48-3.77-27.17 5.51-48.72 4.28-61.33-3.49l-4.82-2.97-4.3 3.53c-10.59 8.67-27.23 12.02-55.52 11.18-23.98-.7-37.96-4.2-48.28-12.08l-3.29-2.5-5.98 2.01c-3.47 1.17-10.08 2.25-15.74 2.59l-9.77.57-6.62 7.61c-23.45 26.91-50.62 52.97-70.08 67.19-5.37 3.93-10.33 7.86-11.02 8.72-4.9 6.16 5.68 18.45 22.85 26.55 18.34 8.65 43.22 8.86 63.67.52 3.25-1.33 3.3-1.31 8.5 4.17 10.47 11.03 17.64 15.54 32.23 20.26 12.52 4.06 30.64 7.21 46 8m-11.75-150.36c16 1.86 36.24.49 46.16-3.14 4.29-1.57 7.29-3.77 12.92-9.44 4.42-4.45 7.8-7.11 8.5-6.68.64.39 3.87 2.69 7.17 5.12 9.41 6.91 12.49 8.11 23.72 9.26 25.34 2.6 55.62-7.2 62.33-20.17.8-1.54 1.45-5.02 1.45-7.74 0-5.64-.81-6.72-19.99-26.66-12.37-12.86-42.69-46.24-69.19-76.17-33.31-37.62-38.05-42.33-42.64-42.33-2.64 0-16.98 13.92-33.49 32.5-4.4 4.95-10.3 11.48-13.12 14.5-2.81 3.02-13.21 14.49-23.09 25.48-9.89 10.99-26.31 28.99-36.48 40-24.53 26.54-25 27.16-25 33.05 0 5.97 2.58 10.29 8.8 14.73 9.04 6.45 18.9 9.33 28.48 8.3 5.23-.56 17.67-4.18 23.72-6.9.99-.44 3.38 1.03 7 4.31 7.54 6.83 16.42 10.08 32.75 11.98M386.79 726.5c.39.42 9.94.48 21.21.15 18.99-.56 44.49-3.28 65.5-6.98l7-1.23-.5-10.97c-.76-16.64-.6-85.06.24-101.36l.74-14.4-6.74.77c-3.71.43-18.44 1.05-32.73 1.4l-26 .62-1.17 9c-3.31 25.49-7.48 46.93-14.94 76.79-4.77 19.1-11.02 41.08-12.48 43.83-.47.89-.53 1.96-.13 2.38M862 514.27c-9.93 5.31-13.39 6.16-17.52 4.35-4.17-1.83-5.48-5.36-5.48-14.71 0-19.32 6.85-37.05 18.89-48.9 9.12-8.98 13.54-11.13 24.11-11.71 7.86-.43 8.91-.25 13.99 2.37 3.56 1.83 6.55 4.35 8.48 7.13 2.66 3.85 2.98 5.1 3 12 .03 6.71-.36 8.4-2.97 13.16-6.27 11.41-23.6 26.22-42.5 36.31m-7.99-15.55c-.01 2.19.07 2.18 5.22-.86 21.59-12.73 36.51-29.72 32-36.46-1.21-1.82-4.92-3.4-7.91-3.38-7.47.06-16.92 8.12-23.09 19.71-3.05 5.71-6.18 16.31-6.22 20.99"/>
  <path fill="#75b8de" d="M327.18 840c-66.81-3.14-113.25-13.81-144.64-33.24-21.66-13.4-38.89-32.01-47.65-51.48-7.95-17.67-10.06-26.75-10.5-45.28-.44-17.98 1.15-29.68 5.82-42.99 16-45.56 53.61-72.89 105.29-76.52 24.47-1.71 52.34 6.01 71.78 19.9 8.02 5.72 19.13 17 23.97 24.34 6 9.1 10.05 25.73 6.75 27.77-.55.34-3.53-1.45-6.64-3.98-8.14-6.63-12.83-9.12-21.85-11.59-11.01-3.01-19.36-2.3-29.04 2.49-15.5 7.66-24.56 23.27-22.93 39.51 1.8 17.96 16.31 33.64 38.45 41.53 20.71 7.38 44.01 10.4 86.56 11.22 45.81.88 66.33-1.16 123.45-12.3 70.05-13.65 125.75-29.85 169-49.15 58.73-26.2 93.59-51.92 108.95-80.41 5.42-10.03 7.39-18.21 6.85-28.44-1.58-30.13-30.44-40.29-51.96-18.3-7.05 7.21-9.42 7.4-12.31.98-2.45-5.44-1.75-16.79 1.42-22.98 3.02-5.9 11.56-14.29 17.63-17.35 20.76-10.43 47.18-6.37 62.07 9.56 9.28 9.91 13.48 20.07 15.52 37.48 3.68 31.57-10.49 70.69-38.37 105.94-6.87 8.67-32.59 34.81-40.23 40.88-2.72 2.15-6.32 5.07-8 6.49-1.69 1.43-7.79 6.11-13.56 10.41C656 774.45 575.72 810.02 492 826.87c-13.89 2.8-17.18 3.37-37.5 6.6-35.65 5.65-88.43 8.36-127.32 6.53m526.83-341.28c.04-4.68 3.17-15.28 6.22-20.99 6.17-11.59 15.62-19.65 23.09-19.71 2.99-.02 6.7 1.56 7.91 3.38 4.51 6.74-10.41 23.73-32 36.46-5.15 3.04-5.23 3.05-5.22.86"/>
  <path fill="#92b064" d="M416 578.42c-1.92-.22-8.45-.89-14.5-1.5-34.21-3.4-59.69-12.03-73.84-25l-6.78-6.2-7.47 1.64c-9.34 2.05-25.03 2.11-34.43.14-16.46-3.47-35.1-11.72-44.61-19.75-6.49-5.48-8.38-8.02-9.05-12.2-.06-.35-.14-.66-.21-.93-.09-.37-.17-.68-.17-1 .02-1.87 3.03-3.72 23.75-18.25 22.2-15.56 37.98-29.83 63.52-57.42l11.62-12.54 7.41-1.75 7.41-1.75 4.43 4.09c19.38 17.9 45.88 25.64 91.42 26.7 17.97.42 26.06.17 37-1.14 30.6-3.67 52.52-11.33 64.98-22.71l5.13-4.69 6.83 1.89c3.76 1.05 10.83 2.2 15.72 2.57l8.89.67 5.15 6.61c6.59 8.45 35.03 36.86 44.8 44.75 4.12 3.33 12 9.13 17.5 12.89 22.99 15.71 25.68 18.29 24.08 23.14-1.74 5.28-15.42 16.22-28.45 22.74-18.9 9.46-35.1 13.46-57.63 14.25-14.76.51-16.88.35-27.39-2.04l-11.39-2.58-6.11 5.65c-13.92 12.89-26.78 18.16-53.35 21.84-10.21 1.42-56.55 2.77-64.26 1.88m10.5-142.11c-15.36-.79-33.48-3.94-46-8-14.59-4.72-21.76-9.23-32.23-20.26-5.2-5.48-5.25-5.5-8.5-4.17-20.45 8.34-45.33 8.13-63.67-.52-17.17-8.1-27.75-20.39-22.85-26.55.69-.86 5.65-4.79 11.02-8.72 19.46-14.22 46.63-40.28 70.08-67.19l6.62-7.61 9.77-.57c5.66-.34 12.27-1.42 15.74-2.59l5.98-2.01 3.29 2.5c10.32 7.88 24.3 11.38 48.28 12.08 28.29.84 44.93-2.51 55.52-11.18l4.3-3.53 4.82 2.97c12.61 7.77 34.16 9 61.33 3.49 2.07-.42 3.01.23 5.48 3.77 7.58 10.9 35.11 39.89 50.02 52.68 4.95 4.25 13.05 10.59 18 14.1 13.07 9.26 15.12 10.69 15.44 12.43.06.33.06.66.06 1.06v.1c0 7.25-9.5 17.13-22.98 23.9-9.78 4.91-16.18 7.02-27.52 9.07-15.12 2.72-32.98 1.12-44.09-3.97-3.11-1.42-6.16-2.59-6.78-2.59s-2.38 1.56-3.9 3.48c-4.28 5.36-15.58 13.88-22.23 16.75-20.45 8.84-51.08 12.83-85 11.08m-11.75-150.36c-16.33-1.9-25.21-5.15-32.75-11.98-3.62-3.28-6.01-4.75-7-4.31-6.05 2.72-18.49 6.34-23.72 6.9-9.58 1.03-19.44-1.85-28.48-8.3-6.22-4.44-8.8-8.76-8.8-14.73 0-5.89.47-6.51 25-33.05 10.17-11.01 26.59-29.01 36.48-40 9.88-10.99 20.28-22.46 23.09-25.48 2.82-3.02 8.72-9.55 13.12-14.5 16.51-18.58 30.85-32.5 33.49-32.5 4.59 0 9.33 4.71 42.64 42.33 26.5 29.93 56.82 63.31 69.19 76.17 19.18 19.94 19.99 21.02 19.99 26.66 0 2.72-.65 6.2-1.45 7.74-6.71 12.97-36.99 22.77-62.33 20.17-11.23-1.15-14.31-2.35-23.72-9.26-3.3-2.43-6.53-4.73-7.17-5.12-.7-.43-4.08 2.23-8.5 6.68-5.63 5.67-8.63 7.87-12.92 9.44-9.92 3.63-30.16 5-46.16 3.14M386.79 726.5c-.4-.42-.34-1.49.13-2.38 1.46-2.75 7.71-24.73 12.48-43.83 7.46-29.86 11.63-51.3 14.94-76.79l1.17-9 26-.62c14.29-.35 29.02-.97 32.73-1.4l6.74-.77-.74 14.4c-.84 16.3-1 84.72-.24 101.36l.5 10.97-7 1.23c-21.01 3.7-46.51 6.42-65.5 6.98-11.27.33-20.82.27-21.21-.15"/>
</svg>
