<?xml version="1.0" encoding="utf-8" standalone="no"?>
<!DOCTYPE svg PUBLIC "-//W3C//DTD SVG 1.1//EN"
  "http://www.w3.org/Graphics/SVG/1.1/DTD/svg11.dtd">
<svg xmlns:xlink="http://www.w3.org/1999/xlink" width="829.953688pt" height="429.937719pt" viewBox="0 0 829.953688 429.937719" xmlns="http://www.w3.org/2000/svg" version="1.1">
 <metadata>
  <rdf:RDF xmlns:dc="http://purl.org/dc/elements/1.1/" xmlns:cc="http://creativecommons.org/ns#" xmlns:rdf="http://www.w3.org/1999/02/22-rdf-syntax-ns#">
   <cc:Work>
    <dc:type rdf:resource="http://purl.org/dc/dcmitype/StillImage"/>
    <dc:date>2025-12-15T15:14:01.489830</dc:date>
    <dc:format>image/svg+xml</dc:format>
    <dc:creator>
     <cc:Agent>
      <dc:title>Matplotlib v3.5.2, https://matplotlib.org/</dc:title>
     </cc:Agent>
    </dc:creator>
   </cc:Work>
  </rdf:RDF>
 </metadata>
 <defs>
  <style type="text/css">*{stroke-linejoin: round; stroke-linecap: butt}</style>
 </defs>
 <g id="figure_1">
  <g id="patch_1">
   <path d="M 0 429.937719 
L 829.953688 429.937719 
L 829.953688 0 
L 0 0 
L 0 429.937719 
z
" style="fill: none"/>
  </g>
  <g id="axes_1">
   <g id="patch_2">
    <path d="M 41.553688 395.28 
L 822.753688 395.28 
L 822.753688 7.2 
L 41.553688 7.2 
L 41.553688 395.28 
z
" style="fill: none; stroke: #ffffff; stroke-linejoin: miter"/>
   </g>
   <g id="matplotlib.axis_1">
    <g id="xtick_1">
     <g id="line2d_1">
      <path d="M 70.487021 395.28 
L 70.487021 7.2 
" clip-path="url(#pa11e7945ae)" style="fill: none; stroke: #ffffff"/>
     </g>
     <g id="line2d_2">
      <path d="M 70.487021 395.28 
" style="fill: none; stroke: #000000; stroke-width: 1.5"/>
      <defs>
       <path id="m0ec2295b6a" d="M 0 0 
L 0 2.75 
" style="stroke: #000000; stroke-opacity: 0"/>
      </defs>
      <g>
       <use xlink:href="#m0ec2295b6a" x="70.487021" y="395.28" style="stroke: #000000; stroke-opacity: 0"/>
      </g>
     </g>
     <g id="text_1">
      <!-- 2010 -->
      <g style="fill: #ffffff" transform="translate(60.699771 406.528875)scale(0.088 -0.088)">
       <defs>
        <path id="ArialMT-32" d="M 3222 541 
L 3222 0 
L 194 0 
Q 188 203 259 391 
Q 375 700 629 1000 
Q 884 1300 1366 1694 
Q 2113 2306 2375 2664 
Q 2638 3022 2638 3341 
Q 2638 3675 2398 3904 
Q 2159 4134 1775 4134 
Q 1369 4134 1125 3890 
Q 881 3647 878 3216 
L 300 3275 
Q 359 3922 746 4261 
Q 1134 4600 1788 4600 
Q 2447 4600 2831 4234 
Q 3216 3869 3216 3328 
Q 3216 3053 3103 2787 
Q 2991 2522 2730 2228 
Q 2469 1934 1863 1422 
Q 1356 997 1212 845 
Q 1069 694 975 541 
L 3222 541 
z
" transform="scale(0.015625)"/>
        <path id="ArialMT-30" d="M 266 2259 
Q 266 3072 433 3567 
Q 600 4063 929 4331 
Q 1259 4600 1759 4600 
Q 2128 4600 2406 4451 
Q 2684 4303 2865 4023 
Q 3047 3744 3150 3342 
Q 3253 2941 3253 2259 
Q 3253 1453 3087 958 
Q 2922 463 2592 192 
Q 2263 -78 1759 -78 
Q 1097 -78 719 397 
Q 266 969 266 2259 
z
M 844 2259 
Q 844 1131 1108 757 
Q 1372 384 1759 384 
Q 2147 384 2411 759 
Q 2675 1134 2675 2259 
Q 2675 3391 2411 3762 
Q 2147 4134 1753 4134 
Q 1366 4134 1134 3806 
Q 844 3388 844 2259 
z
" transform="scale(0.015625)"/>
        <path id="ArialMT-31" d="M 2384 0 
L 1822 0 
L 1822 3584 
Q 1619 3391 1289 3197 
Q 959 3003 697 2906 
L 697 3450 
Q 1169 3672 1522 3987 
Q 1875 4303 2022 4600 
L 2384 4600 
L 2384 0 
z
" transform="scale(0.015625)"/>
       </defs>
       <use xlink:href="#ArialMT-32"/>
       <use xlink:href="#ArialMT-30" x="55.615234"/>
       <use xlink:href="#ArialMT-31" x="111.230469"/>
       <use xlink:href="#ArialMT-30" x="166.845703"/>
      </g>
     </g>
    </g>
    <g id="xtick_2">
     <g id="line2d_3">
      <path d="M 118.709243 395.28 
L 118.709243 7.2 
" clip-path="url(#pa11e7945ae)" style="fill: none; stroke: #ffffff"/>
     </g>
     <g id="line2d_4">
      <path d="M 118.709243 395.28 
" style="fill: none; stroke: #000000; stroke-width: 1.5"/>
      <g>
       <use xlink:href="#m0ec2295b6a" x="118.709243" y="395.28" style="stroke: #000000; stroke-opacity: 0"/>
      </g>
     </g>
     <g id="text_2">
      <!-- 2011 -->
      <g style="fill: #ffffff" transform="translate(109.246493 406.528875)scale(0.088 -0.088)">
       <use xlink:href="#ArialMT-32"/>
       <use xlink:href="#ArialMT-30" x="55.615234"/>
       <use xlink:href="#ArialMT-31" x="111.230469"/>
       <use xlink:href="#ArialMT-31" x="159.470703"/>
      </g>
     </g>
    </g>
    <g id="xtick_3">
     <g id="line2d_5">
      <path d="M 166.931465 395.28 
L 166.931465 7.2 
" clip-path="url(#pa11e7945ae)" style="fill: none; stroke: #ffffff"/>
     </g>
     <g id="line2d_6">
      <path d="M 166.931465 395.28 
" style="fill: none; stroke: #000000; stroke-width: 1.5"/>
      <g>
       <use xlink:href="#m0ec2295b6a" x="166.931465" y="395.28" style="stroke: #000000; stroke-opacity: 0"/>
      </g>
     </g>
     <g id="text_3">
      <!-- 2012 -->
      <g style="fill: #ffffff" transform="translate(157.144215 406.528875)scale(0.088 -0.088)">
       <use xlink:href="#ArialMT-32"/>
       <use xlink:href="#ArialMT-30" x="55.615234"/>
       <use xlink:href="#ArialMT-31" x="111.230469"/>
       <use xlink:href="#ArialMT-32" x="166.845703"/>
      </g>
     </g>
    </g>
    <g id="xtick_4">
     <g id="line2d_7">
      <path d="M 215.153687 395.28 
L 215.153687 7.2 
" clip-path="url(#pa11e7945ae)" style="fill: none; stroke: #ffffff"/>
     </g>
     <g id="line2d_8">
      <path d="M 215.153687 395.28 
" style="fill: none; stroke: #000000; stroke-width: 1.5"/>
      <g>
       <use xlink:href="#m0ec2295b6a" x="215.153687" y="395.28" style="stroke: #000000; stroke-opacity: 0"/>
      </g>
     </g>
     <g id="text_4">
      <!-- 2013 -->
      <g style="fill: #ffffff" transform="translate(205.366437 406.528875)scale(0.088 -0.088)">
       <defs>
        <path id="ArialMT-33" d="M 269 1209 
L 831 1284 
Q 928 806 1161 595 
Q 1394 384 1728 384 
Q 2125 384 2398 659 
Q 2672 934 2672 1341 
Q 2672 1728 2419 1979 
Q 2166 2231 1775 2231 
Q 1616 2231 1378 2169 
L 1441 2663 
Q 1497 2656 1531 2656 
Q 1891 2656 2178 2843 
Q 2466 3031 2466 3422 
Q 2466 3731 2256 3934 
Q 2047 4138 1716 4138 
Q 1388 4138 1169 3931 
Q 950 3725 888 3313 
L 325 3413 
Q 428 3978 793 4289 
Q 1159 4600 1703 4600 
Q 2078 4600 2393 4439 
Q 2709 4278 2876 4000 
Q 3044 3722 3044 3409 
Q 3044 3113 2884 2869 
Q 2725 2625 2413 2481 
Q 2819 2388 3044 2092 
Q 3269 1797 3269 1353 
Q 3269 753 2831 336 
Q 2394 -81 1725 -81 
Q 1122 -81 723 278 
Q 325 638 269 1209 
z
" transform="scale(0.015625)"/>
       </defs>
       <use xlink:href="#ArialMT-32"/>
       <use xlink:href="#ArialMT-30" x="55.615234"/>
       <use xlink:href="#ArialMT-31" x="111.230469"/>
       <use xlink:href="#ArialMT-33" x="166.845703"/>
      </g>
     </g>
    </g>
    <g id="xtick_5">
     <g id="line2d_9">
      <path d="M 263.37591 395.28 
L 263.37591 7.2 
" clip-path="url(#pa11e7945ae)" style="fill: none; stroke: #ffffff"/>
     </g>
     <g id="line2d_10">
      <path d="M 263.37591 395.28 
" style="fill: none; stroke: #000000; stroke-width: 1.5"/>
      <g>
       <use xlink:href="#m0ec2295b6a" x="263.37591" y="395.28" style="stroke: #000000; stroke-opacity: 0"/>
      </g>
     </g>
     <g id="text_5">
      <!-- 2014 -->
      <g style="fill: #ffffff" transform="translate(253.58866 406.528875)scale(0.088 -0.088)">
       <defs>
        <path id="ArialMT-34" d="M 2069 0 
L 2069 1097 
L 81 1097 
L 81 1613 
L 2172 4581 
L 2631 4581 
L 2631 1613 
L 3250 1613 
L 3250 1097 
L 2631 1097 
L 2631 0 
L 2069 0 
z
M 2069 1613 
L 2069 3678 
L 634 1613 
L 2069 1613 
z
" transform="scale(0.015625)"/>
       </defs>
       <use xlink:href="#ArialMT-32"/>
       <use xlink:href="#ArialMT-30" x="55.615234"/>
       <use xlink:href="#ArialMT-31" x="111.230469"/>
       <use xlink:href="#ArialMT-34" x="166.845703"/>
      </g>
     </g>
    </g>
    <g id="xtick_6">
     <g id="line2d_11">
      <path d="M 311.598132 395.28 
L 311.598132 7.2 
" clip-path="url(#pa11e7945ae)" style="fill: none; stroke: #ffffff"/>
     </g>
     <g id="line2d_12">
      <path d="M 311.598132 395.28 
" style="fill: none; stroke: #000000; stroke-width: 1.5"/>
      <g>
       <use xlink:href="#m0ec2295b6a" x="311.598132" y="395.28" style="stroke: #000000; stroke-opacity: 0"/>
      </g>
     </g>
     <g id="text_6">
      <!-- 2015 -->
      <g style="fill: #ffffff" transform="translate(301.810882 406.528875)scale(0.088 -0.088)">
       <defs>
        <path id="ArialMT-35" d="M 266 1200 
L 856 1250 
Q 922 819 1161 601 
Q 1400 384 1738 384 
Q 2144 384 2425 690 
Q 2706 997 2706 1503 
Q 2706 1984 2436 2262 
Q 2166 2541 1728 2541 
Q 1456 2541 1237 2417 
Q 1019 2294 894 2097 
L 366 2166 
L 809 4519 
L 3088 4519 
L 3088 3981 
L 1259 3981 
L 1013 2750 
Q 1425 3038 1878 3038 
Q 2478 3038 2890 2622 
Q 3303 2206 3303 1553 
Q 3303 931 2941 478 
Q 2500 -78 1738 -78 
Q 1113 -78 717 272 
Q 322 622 266 1200 
z
" transform="scale(0.015625)"/>
       </defs>
       <use xlink:href="#ArialMT-32"/>
       <use xlink:href="#ArialMT-30" x="55.615234"/>
       <use xlink:href="#ArialMT-31" x="111.230469"/>
       <use xlink:href="#ArialMT-35" x="166.845703"/>
      </g>
     </g>
    </g>
    <g id="xtick_7">
     <g id="line2d_13">
      <path d="M 359.820354 395.28 
L 359.820354 7.2 
" clip-path="url(#pa11e7945ae)" style="fill: none; stroke: #ffffff"/>
     </g>
     <g id="line2d_14">
      <path d="M 359.820354 395.28 
" style="fill: none; stroke: #000000; stroke-width: 1.5"/>
      <g>
       <use xlink:href="#m0ec2295b6a" x="359.820354" y="395.28" style="stroke: #000000; stroke-opacity: 0"/>
      </g>
     </g>
     <g id="text_7">
      <!-- 2016 -->
      <g style="fill: #ffffff" transform="translate(350.033104 406.528875)scale(0.088 -0.088)">
       <defs>
        <path id="ArialMT-36" d="M 3184 3459 
L 2625 3416 
Q 2550 3747 2413 3897 
Q 2184 4138 1850 4138 
Q 1581 4138 1378 3988 
Q 1113 3794 959 3422 
Q 806 3050 800 2363 
Q 1003 2672 1297 2822 
Q 1591 2972 1913 2972 
Q 2475 2972 2870 2558 
Q 3266 2144 3266 1488 
Q 3266 1056 3080 686 
Q 2894 316 2569 119 
Q 2244 -78 1831 -78 
Q 1128 -78 684 439 
Q 241 956 241 2144 
Q 241 3472 731 4075 
Q 1159 4600 1884 4600 
Q 2425 4600 2770 4297 
Q 3116 3994 3184 3459 
z
M 888 1484 
Q 888 1194 1011 928 
Q 1134 663 1356 523 
Q 1578 384 1822 384 
Q 2178 384 2434 671 
Q 2691 959 2691 1453 
Q 2691 1928 2437 2201 
Q 2184 2475 1800 2475 
Q 1419 2475 1153 2201 
Q 888 1928 888 1484 
z
" transform="scale(0.015625)"/>
       </defs>
       <use xlink:href="#ArialMT-32"/>
       <use xlink:href="#ArialMT-30" x="55.615234"/>
       <use xlink:href="#ArialMT-31" x="111.230469"/>
       <use xlink:href="#ArialMT-36" x="166.845703"/>
      </g>
     </g>
    </g>
    <g id="xtick_8">
     <g id="line2d_15">
      <path d="M 408.042576 395.28 
L 408.042576 7.2 
" clip-path="url(#pa11e7945ae)" style="fill: none; stroke: #ffffff"/>
     </g>
     <g id="line2d_16">
      <path d="M 408.042576 395.28 
" style="fill: none; stroke: #000000; stroke-width: 1.5"/>
      <g>
       <use xlink:href="#m0ec2295b6a" x="408.042576" y="395.28" style="stroke: #000000; stroke-opacity: 0"/>
      </g>
     </g>
     <g id="text_8">
      <!-- 2017 -->
      <g style="fill: #ffffff" transform="translate(398.255326 406.528875)scale(0.088 -0.088)">
       <defs>
        <path id="ArialMT-37" d="M 303 3981 
L 303 4522 
L 3269 4522 
L 3269 4084 
Q 2831 3619 2401 2847 
Q 1972 2075 1738 1259 
Q 1569 684 1522 0 
L 944 0 
Q 953 541 1156 1306 
Q 1359 2072 1739 2783 
Q 2119 3494 2547 3981 
L 303 3981 
z
" transform="scale(0.015625)"/>
       </defs>
       <use xlink:href="#ArialMT-32"/>
       <use xlink:href="#ArialMT-30" x="55.615234"/>
       <use xlink:href="#ArialMT-31" x="111.230469"/>
       <use xlink:href="#ArialMT-37" x="166.845703"/>
      </g>
     </g>
    </g>
    <g id="xtick_9">
     <g id="line2d_17">
      <path d="M 456.264799 395.28 
L 456.264799 7.2 
" clip-path="url(#pa11e7945ae)" style="fill: none; stroke: #ffffff"/>
     </g>
     <g id="line2d_18">
      <path d="M 456.264799 395.28 
" style="fill: none; stroke: #000000; stroke-width: 1.5"/>
      <g>
       <use xlink:href="#m0ec2295b6a" x="456.264799" y="395.28" style="stroke: #000000; stroke-opacity: 0"/>
      </g>
     </g>
     <g id="text_9">
      <!-- 2018* -->
      <g style="fill: #ffffff" transform="translate(444.764986 406.528875)scale(0.088 -0.088)">
       <defs>
        <path id="ArialMT-38" d="M 1131 2484 
Q 781 2613 612 2850 
Q 444 3088 444 3419 
Q 444 3919 803 4259 
Q 1163 4600 1759 4600 
Q 2359 4600 2725 4251 
Q 3091 3903 3091 3403 
Q 3091 3084 2923 2848 
Q 2756 2613 2416 2484 
Q 2838 2347 3058 2040 
Q 3278 1734 3278 1309 
Q 3278 722 2862 322 
Q 2447 -78 1769 -78 
Q 1091 -78 675 323 
Q 259 725 259 1325 
Q 259 1772 486 2073 
Q 713 2375 1131 2484 
z
M 1019 3438 
Q 1019 3113 1228 2906 
Q 1438 2700 1772 2700 
Q 2097 2700 2305 2904 
Q 2513 3109 2513 3406 
Q 2513 3716 2298 3927 
Q 2084 4138 1766 4138 
Q 1444 4138 1231 3931 
Q 1019 3725 1019 3438 
z
M 838 1322 
Q 838 1081 952 856 
Q 1066 631 1291 507 
Q 1516 384 1775 384 
Q 2178 384 2440 643 
Q 2703 903 2703 1303 
Q 2703 1709 2433 1975 
Q 2163 2241 1756 2241 
Q 1359 2241 1098 1978 
Q 838 1716 838 1322 
z
" transform="scale(0.015625)"/>
        <path id="ArialMT-2a" d="M 200 3741 
L 344 4184 
Q 841 4009 1066 3881 
Q 1006 4447 1003 4659 
L 1456 4659 
Q 1447 4350 1384 3884 
Q 1706 4047 2122 4184 
L 2266 3741 
Q 1869 3609 1488 3566 
Q 1678 3400 2025 2975 
L 1650 2709 
Q 1469 2956 1222 3381 
Q 991 2941 816 2709 
L 447 2975 
Q 809 3422 966 3566 
Q 563 3644 200 3741 
z
" transform="scale(0.015625)"/>
       </defs>
       <use xlink:href="#ArialMT-32"/>
       <use xlink:href="#ArialMT-30" x="55.615234"/>
       <use xlink:href="#ArialMT-31" x="111.230469"/>
       <use xlink:href="#ArialMT-38" x="166.845703"/>
       <use xlink:href="#ArialMT-2a" x="222.460938"/>
      </g>
     </g>
    </g>
    <g id="xtick_10">
     <g id="line2d_19">
      <path d="M 504.487021 395.28 
L 504.487021 7.2 
" clip-path="url(#pa11e7945ae)" style="fill: none; stroke: #ffffff"/>
     </g>
     <g id="line2d_20">
      <path d="M 504.487021 395.28 
" style="fill: none; stroke: #000000; stroke-width: 1.5"/>
      <g>
       <use xlink:href="#m0ec2295b6a" x="504.487021" y="395.28" style="stroke: #000000; stroke-opacity: 0"/>
      </g>
     </g>
     <g id="text_10">
      <!-- 2019* -->
      <g style="fill: #ffffff" transform="translate(492.987208 406.528875)scale(0.088 -0.088)">
       <defs>
        <path id="ArialMT-39" d="M 350 1059 
L 891 1109 
Q 959 728 1153 556 
Q 1347 384 1650 384 
Q 1909 384 2104 503 
Q 2300 622 2425 820 
Q 2550 1019 2634 1356 
Q 2719 1694 2719 2044 
Q 2719 2081 2716 2156 
Q 2547 1888 2255 1720 
Q 1963 1553 1622 1553 
Q 1053 1553 659 1965 
Q 266 2378 266 3053 
Q 266 3750 677 4175 
Q 1088 4600 1706 4600 
Q 2153 4600 2523 4359 
Q 2894 4119 3086 3673 
Q 3278 3228 3278 2384 
Q 3278 1506 3087 986 
Q 2897 466 2520 194 
Q 2144 -78 1638 -78 
Q 1100 -78 759 220 
Q 419 519 350 1059 
z
M 2653 3081 
Q 2653 3566 2395 3850 
Q 2138 4134 1775 4134 
Q 1400 4134 1122 3828 
Q 844 3522 844 3034 
Q 844 2597 1108 2323 
Q 1372 2050 1759 2050 
Q 2150 2050 2401 2323 
Q 2653 2597 2653 3081 
z
" transform="scale(0.015625)"/>
       </defs>
       <use xlink:href="#ArialMT-32"/>
       <use xlink:href="#ArialMT-30" x="55.615234"/>
       <use xlink:href="#ArialMT-31" x="111.230469"/>
       <use xlink:href="#ArialMT-39" x="166.845703"/>
       <use xlink:href="#ArialMT-2a" x="222.460938"/>
      </g>
     </g>
    </g>
    <g id="xtick_11">
     <g id="line2d_21">
      <path d="M 552.709243 395.28 
L 552.709243 7.2 
" clip-path="url(#pa11e7945ae)" style="fill: none; stroke: #ffffff"/>
     </g>
     <g id="line2d_22">
      <path d="M 552.709243 395.28 
" style="fill: none; stroke: #000000; stroke-width: 1.5"/>
      <g>
       <use xlink:href="#m0ec2295b6a" x="552.709243" y="395.28" style="stroke: #000000; stroke-opacity: 0"/>
      </g>
     </g>
     <g id="text_11">
      <!-- 2020* -->
      <g style="fill: #ffffff" transform="translate(541.209431 406.528875)scale(0.088 -0.088)">
       <use xlink:href="#ArialMT-32"/>
       <use xlink:href="#ArialMT-30" x="55.615234"/>
       <use xlink:href="#ArialMT-32" x="111.230469"/>
       <use xlink:href="#ArialMT-30" x="166.845703"/>
       <use xlink:href="#ArialMT-2a" x="222.460938"/>
      </g>
     </g>
    </g>
    <g id="xtick_12">
     <g id="line2d_23">
      <path d="M 600.931465 395.28 
L 600.931465 7.2 
" clip-path="url(#pa11e7945ae)" style="fill: none; stroke: #ffffff"/>
     </g>
     <g id="line2d_24">
      <path d="M 600.931465 395.28 
" style="fill: none; stroke: #000000; stroke-width: 1.5"/>
      <g>
       <use xlink:href="#m0ec2295b6a" x="600.931465" y="395.28" style="stroke: #000000; stroke-opacity: 0"/>
      </g>
     </g>
     <g id="text_12">
      <!-- 2021* -->
      <g style="fill: #ffffff" transform="translate(589.431653 406.528875)scale(0.088 -0.088)">
       <use xlink:href="#ArialMT-32"/>
       <use xlink:href="#ArialMT-30" x="55.615234"/>
       <use xlink:href="#ArialMT-32" x="111.230469"/>
       <use xlink:href="#ArialMT-31" x="166.845703"/>
       <use xlink:href="#ArialMT-2a" x="222.460938"/>
      </g>
     </g>
    </g>
    <g id="xtick_13">
     <g id="line2d_25">
      <path d="M 649.153687 395.28 
L 649.153687 7.2 
" clip-path="url(#pa11e7945ae)" style="fill: none; stroke: #ffffff"/>
     </g>
     <g id="line2d_26">
      <path d="M 649.153687 395.28 
" style="fill: none; stroke: #000000; stroke-width: 1.5"/>
      <g>
       <use xlink:href="#m0ec2295b6a" x="649.153687" y="395.28" style="stroke: #000000; stroke-opacity: 0"/>
      </g>
     </g>
     <g id="text_13">
      <!-- 2022* -->
      <g style="fill: #ffffff" transform="translate(637.653875 406.528875)scale(0.088 -0.088)">
       <use xlink:href="#ArialMT-32"/>
       <use xlink:href="#ArialMT-30" x="55.615234"/>
       <use xlink:href="#ArialMT-32" x="111.230469"/>
       <use xlink:href="#ArialMT-32" x="166.845703"/>
       <use xlink:href="#ArialMT-2a" x="222.460938"/>
      </g>
     </g>
    </g>
    <g id="xtick_14">
     <g id="line2d_27">
      <path d="M 697.37591 395.28 
L 697.37591 7.2 
" clip-path="url(#pa11e7945ae)" style="fill: none; stroke: #ffffff"/>
     </g>
     <g id="line2d_28">
      <path d="M 697.37591 395.28 
" style="fill: none; stroke: #000000; stroke-width: 1.5"/>
      <g>
       <use xlink:href="#m0ec2295b6a" x="697.37591" y="395.28" style="stroke: #000000; stroke-opacity: 0"/>
      </g>
     </g>
     <g id="text_14">
      <!-- 2023* -->
      <g style="fill: #ffffff" transform="translate(685.876097 406.528875)scale(0.088 -0.088)">
       <use xlink:href="#ArialMT-32"/>
       <use xlink:href="#ArialMT-30" x="55.615234"/>
       <use xlink:href="#ArialMT-32" x="111.230469"/>
       <use xlink:href="#ArialMT-33" x="166.845703"/>
       <use xlink:href="#ArialMT-2a" x="222.460938"/>
      </g>
     </g>
    </g>
    <g id="xtick_15">
     <g id="line2d_29">
      <path d="M 745.598132 395.28 
L 745.598132 7.2 
" clip-path="url(#pa11e7945ae)" style="fill: none; stroke: #ffffff"/>
     </g>
     <g id="line2d_30">
      <path d="M 745.598132 395.28 
" style="fill: none; stroke: #000000; stroke-width: 1.5"/>
      <g>
       <use xlink:href="#m0ec2295b6a" x="745.598132" y="395.28" style="stroke: #000000; stroke-opacity: 0"/>
      </g>
     </g>
     <g id="text_15">
      <!-- 2024* -->
      <g style="fill: #ffffff" transform="translate(734.098319 406.528875)scale(0.088 -0.088)">
       <use xlink:href="#ArialMT-32"/>
       <use xlink:href="#ArialMT-30" x="55.615234"/>
       <use xlink:href="#ArialMT-32" x="111.230469"/>
       <use xlink:href="#ArialMT-34" x="166.845703"/>
       <use xlink:href="#ArialMT-2a" x="222.460938"/>
      </g>
     </g>
    </g>
    <g id="xtick_16">
     <g id="line2d_31">
      <path d="M 793.820354 395.28 
L 793.820354 7.2 
" clip-path="url(#pa11e7945ae)" style="fill: none; stroke: #ffffff"/>
     </g>
     <g id="line2d_32">
      <path d="M 793.820354 395.28 
" style="fill: none; stroke: #000000; stroke-width: 1.5"/>
      <g>
       <use xlink:href="#m0ec2295b6a" x="793.820354" y="395.28" style="stroke: #000000; stroke-opacity: 0"/>
      </g>
     </g>
     <g id="text_16">
      <!-- 2025* -->
      <g style="fill: #ffffff" transform="translate(782.320542 406.528875)scale(0.088 -0.088)">
       <use xlink:href="#ArialMT-32"/>
       <use xlink:href="#ArialMT-30" x="55.615234"/>
       <use xlink:href="#ArialMT-32" x="111.230469"/>
       <use xlink:href="#ArialMT-35" x="166.845703"/>
       <use xlink:href="#ArialMT-2a" x="222.460938"/>
      </g>
     </g>
    </g>
    <g id="text_17">
     <!-- Year -->
     <g style="fill: #ffffff" transform="translate(408.438531 420.551469)scale(0.11 -0.11)">
      <defs>
       <path id="ArialMT-59" d="M 1784 0 
L 1784 1941 
L 19 4581 
L 756 4581 
L 1659 3200 
Q 1909 2813 2125 2425 
Q 2331 2784 2625 3234 
L 3513 4581 
L 4219 4581 
L 2391 1941 
L 2391 0 
L 1784 0 
z
" transform="scale(0.015625)"/>
       <path id="ArialMT-65" d="M 2694 1069 
L 3275 997 
Q 3138 488 2766 206 
Q 2394 -75 1816 -75 
Q 1088 -75 661 373 
Q 234 822 234 1631 
Q 234 2469 665 2931 
Q 1097 3394 1784 3394 
Q 2450 3394 2872 2941 
Q 3294 2488 3294 1666 
Q 3294 1616 3291 1516 
L 816 1516 
Q 847 969 1125 678 
Q 1403 388 1819 388 
Q 2128 388 2347 550 
Q 2566 713 2694 1069 
z
M 847 1978 
L 2700 1978 
Q 2663 2397 2488 2606 
Q 2219 2931 1791 2931 
Q 1403 2931 1139 2672 
Q 875 2413 847 1978 
z
" transform="scale(0.015625)"/>
       <path id="ArialMT-61" d="M 2588 409 
Q 2275 144 1986 34 
Q 1697 -75 1366 -75 
Q 819 -75 525 192 
Q 231 459 231 875 
Q 231 1119 342 1320 
Q 453 1522 633 1644 
Q 813 1766 1038 1828 
Q 1203 1872 1538 1913 
Q 2219 1994 2541 2106 
Q 2544 2222 2544 2253 
Q 2544 2597 2384 2738 
Q 2169 2928 1744 2928 
Q 1347 2928 1158 2789 
Q 969 2650 878 2297 
L 328 2372 
Q 403 2725 575 2942 
Q 747 3159 1072 3276 
Q 1397 3394 1825 3394 
Q 2250 3394 2515 3294 
Q 2781 3194 2906 3042 
Q 3031 2891 3081 2659 
Q 3109 2516 3109 2141 
L 3109 1391 
Q 3109 606 3145 398 
Q 3181 191 3288 0 
L 2700 0 
Q 2613 175 2588 409 
z
M 2541 1666 
Q 2234 1541 1622 1453 
Q 1275 1403 1131 1340 
Q 988 1278 909 1158 
Q 831 1038 831 891 
Q 831 666 1001 516 
Q 1172 366 1500 366 
Q 1825 366 2078 508 
Q 2331 650 2450 897 
Q 2541 1088 2541 1459 
L 2541 1666 
z
" transform="scale(0.015625)"/>
       <path id="ArialMT-72" d="M 416 0 
L 416 3319 
L 922 3319 
L 922 2816 
Q 1116 3169 1280 3281 
Q 1444 3394 1641 3394 
Q 1925 3394 2219 3213 
L 2025 2691 
Q 1819 2813 1613 2813 
Q 1428 2813 1281 2702 
Q 1134 2591 1072 2394 
Q 978 2094 978 1738 
L 978 0 
L 416 0 
z
" transform="scale(0.015625)"/>
      </defs>
      <use xlink:href="#ArialMT-59"/>
      <use xlink:href="#ArialMT-65" x="57.574219"/>
      <use xlink:href="#ArialMT-61" x="113.189453"/>
      <use xlink:href="#ArialMT-72" x="168.804688"/>
     </g>
    </g>
   </g>
   <g id="matplotlib.axis_2">
    <g id="ytick_1">
     <g id="line2d_33">
      <path d="M 41.553688 377.64 
L 822.753688 377.64 
" clip-path="url(#pa11e7945ae)" style="fill: none; stroke: #ffffff"/>
     </g>
     <g id="line2d_34">
      <path d="M 41.553688 377.64 
" style="fill: none; stroke: #000000; stroke-width: 1.5"/>
      <defs>
       <path id="m390b0a27c2" d="M 0 0 
L -2.75 0 
" style="stroke: #000000; stroke-opacity: 0"/>
      </defs>
      <g>
       <use xlink:href="#m390b0a27c2" x="41.553688" y="377.64" style="stroke: #000000; stroke-opacity: 0"/>
      </g>
     </g>
     <g id="text_18">
      <!-- 0 -->
      <g style="fill: #ffffff" transform="translate(31.710063 379.914937)scale(0.088 -0.088)">
       <use xlink:href="#ArialMT-30"/>
      </g>
     </g>
    </g>
    <g id="ytick_2">
     <g id="line2d_35">
      <path d="M 41.553688 280.181436 
L 822.753688 280.181436 
" clip-path="url(#pa11e7945ae)" style="fill: none; stroke: #ffffff"/>
     </g>
     <g id="line2d_36">
      <path d="M 41.553688 280.181436 
" style="fill: none; stroke: #000000; stroke-width: 1.5"/>
      <g>
       <use xlink:href="#m390b0a27c2" x="41.553688" y="280.181436" style="stroke: #000000; stroke-opacity: 0"/>
      </g>
     </g>
     <g id="text_19">
      <!-- 50 -->
      <g style="fill: #ffffff" transform="translate(26.816438 282.456374)scale(0.088 -0.088)">
       <use xlink:href="#ArialMT-35"/>
       <use xlink:href="#ArialMT-30" x="55.615234"/>
      </g>
     </g>
    </g>
    <g id="ytick_3">
     <g id="line2d_37">
      <path d="M 41.553688 182.722873 
L 822.753688 182.722873 
" clip-path="url(#pa11e7945ae)" style="fill: none; stroke: #ffffff"/>
     </g>
     <g id="line2d_38">
      <path d="M 41.553688 182.722873 
" style="fill: none; stroke: #000000; stroke-width: 1.5"/>
      <g>
       <use xlink:href="#m390b0a27c2" x="41.553688" y="182.722873" style="stroke: #000000; stroke-opacity: 0"/>
      </g>
     </g>
     <g id="text_20">
      <!-- 100 -->
      <g style="fill: #ffffff" transform="translate(21.922813 184.99781)scale(0.088 -0.088)">
       <use xlink:href="#ArialMT-31"/>
       <use xlink:href="#ArialMT-30" x="55.615234"/>
       <use xlink:href="#ArialMT-30" x="111.230469"/>
      </g>
     </g>
    </g>
    <g id="ytick_4">
     <g id="line2d_39">
      <path d="M 41.553688 85.264309 
L 822.753688 85.264309 
" clip-path="url(#pa11e7945ae)" style="fill: none; stroke: #ffffff"/>
     </g>
     <g id="line2d_40">
      <path d="M 41.553688 85.264309 
" style="fill: none; stroke: #000000; stroke-width: 1.5"/>
      <g>
       <use xlink:href="#m390b0a27c2" x="41.553688" y="85.264309" style="stroke: #000000; stroke-opacity: 0"/>
      </g>
     </g>
     <g id="text_21">
      <!-- 150 -->
      <g style="fill: #ffffff" transform="translate(21.922813 87.539247)scale(0.088 -0.088)">
       <use xlink:href="#ArialMT-31"/>
       <use xlink:href="#ArialMT-35" x="55.615234"/>
       <use xlink:href="#ArialMT-30" x="111.230469"/>
      </g>
     </g>
    </g>
    <g id="ytick_5">
     <g id="line2d_41">
      <path d="M 41.553688 328.910718 
L 822.753688 328.910718 
" clip-path="url(#pa11e7945ae)" style="fill: none; stroke-dasharray: 0.5,0.825; stroke-dashoffset: 0; stroke: #000000; stroke-opacity: 0; stroke-width: 0.5"/>
     </g>
     <g id="line2d_42">
      <path d="M 41.553688 328.910718 
" style="fill: none; stroke: #000000; stroke-width: 1.5"/>
      <defs>
       <path id="m513713f4bc" d="M 0 0 
L -1.375 0 
" style="stroke: #000000; stroke-opacity: 0"/>
      </defs>
      <g>
       <use xlink:href="#m513713f4bc" x="41.553688" y="328.910718" style="stroke: #000000; stroke-opacity: 0"/>
      </g>
     </g>
    </g>
    <g id="ytick_6">
     <g id="line2d_43">
      <path d="M 41.553688 231.452155 
L 822.753688 231.452155 
" clip-path="url(#pa11e7945ae)" style="fill: none; stroke-dasharray: 0.5,0.825; stroke-dashoffset: 0; stroke: #000000; stroke-opacity: 0; stroke-width: 0.5"/>
     </g>
     <g id="line2d_44">
      <path d="M 41.553688 231.452155 
" style="fill: none; stroke: #000000; stroke-width: 1.5"/>
      <g>
       <use xlink:href="#m513713f4bc" x="41.553688" y="231.452155" style="stroke: #000000; stroke-opacity: 0"/>
      </g>
     </g>
    </g>
    <g id="ytick_7">
     <g id="line2d_45">
      <path d="M 41.553688 133.993591 
L 822.753688 133.993591 
" clip-path="url(#pa11e7945ae)" style="fill: none; stroke-dasharray: 0.5,0.825; stroke-dashoffset: 0; stroke: #000000; stroke-opacity: 0; stroke-width: 0.5"/>
     </g>
     <g id="line2d_46">
      <path d="M 41.553688 133.993591 
" style="fill: none; stroke: #000000; stroke-width: 1.5"/>
      <g>
       <use xlink:href="#m513713f4bc" x="41.553688" y="133.993591" style="stroke: #000000; stroke-opacity: 0"/>
      </g>
     </g>
    </g>
    <g id="ytick_8">
     <g id="line2d_47">
      <path d="M 41.553688 36.535028 
L 822.753688 36.535028 
" clip-path="url(#pa11e7945ae)" style="fill: none; stroke-dasharray: 0.5,0.825; stroke-dashoffset: 0; stroke: #000000; stroke-opacity: 0; stroke-width: 0.5"/>
     </g>
     <g id="line2d_48">
      <path d="M 41.553688 36.535028 
" style="fill: none; stroke: #000000; stroke-width: 1.5"/>
      <g>
       <use xlink:href="#m513713f4bc" x="41.553688" y="36.535028" style="stroke: #000000; stroke-opacity: 0"/>
      </g>
     </g>
    </g>
    <g id="text_22">
     <!-- Data (Zettabytes) -->
     <g style="fill: #ffffff" transform="translate(15.207656 241.204922)rotate(-90)scale(0.11 -0.11)">
      <defs>
       <path id="ArialMT-44" d="M 494 0 
L 494 4581 
L 2072 4581 
Q 2606 4581 2888 4516 
Q 3281 4425 3559 4188 
Q 3922 3881 4101 3404 
Q 4281 2928 4281 2316 
Q 4281 1794 4159 1391 
Q 4038 988 3847 723 
Q 3656 459 3429 307 
Q 3203 156 2883 78 
Q 2563 0 2147 0 
L 494 0 
z
M 1100 541 
L 2078 541 
Q 2531 541 2789 625 
Q 3047 709 3200 863 
Q 3416 1078 3536 1442 
Q 3656 1806 3656 2325 
Q 3656 3044 3420 3430 
Q 3184 3816 2847 3947 
Q 2603 4041 2063 4041 
L 1100 4041 
L 1100 541 
z
" transform="scale(0.015625)"/>
       <path id="ArialMT-74" d="M 1650 503 
L 1731 6 
Q 1494 -44 1306 -44 
Q 1000 -44 831 53 
Q 663 150 594 308 
Q 525 466 525 972 
L 525 2881 
L 113 2881 
L 113 3319 
L 525 3319 
L 525 4141 
L 1084 4478 
L 1084 3319 
L 1650 3319 
L 1650 2881 
L 1084 2881 
L 1084 941 
Q 1084 700 1114 631 
Q 1144 563 1211 522 
Q 1278 481 1403 481 
Q 1497 481 1650 503 
z
" transform="scale(0.015625)"/>
       <path id="ArialMT-20" transform="scale(0.015625)"/>
       <path id="ArialMT-28" d="M 1497 -1347 
Q 1031 -759 709 28 
Q 388 816 388 1659 
Q 388 2403 628 3084 
Q 909 3875 1497 4659 
L 1900 4659 
Q 1522 4009 1400 3731 
Q 1209 3300 1100 2831 
Q 966 2247 966 1656 
Q 966 153 1900 -1347 
L 1497 -1347 
z
" transform="scale(0.015625)"/>
       <path id="ArialMT-5a" d="M 128 0 
L 128 563 
L 2475 3497 
Q 2725 3809 2950 4041 
L 394 4041 
L 394 4581 
L 3675 4581 
L 3675 4041 
L 1103 863 
L 825 541 
L 3750 541 
L 3750 0 
L 128 0 
z
" transform="scale(0.015625)"/>
       <path id="ArialMT-62" d="M 941 0 
L 419 0 
L 419 4581 
L 981 4581 
L 981 2947 
Q 1338 3394 1891 3394 
Q 2197 3394 2470 3270 
Q 2744 3147 2920 2923 
Q 3097 2700 3197 2384 
Q 3297 2069 3297 1709 
Q 3297 856 2875 390 
Q 2453 -75 1863 -75 
Q 1275 -75 941 416 
L 941 0 
z
M 934 1684 
Q 934 1088 1097 822 
Q 1363 388 1816 388 
Q 2184 388 2453 708 
Q 2722 1028 2722 1663 
Q 2722 2313 2464 2622 
Q 2206 2931 1841 2931 
Q 1472 2931 1203 2611 
Q 934 2291 934 1684 
z
" transform="scale(0.015625)"/>
       <path id="ArialMT-79" d="M 397 -1278 
L 334 -750 
Q 519 -800 656 -800 
Q 844 -800 956 -737 
Q 1069 -675 1141 -563 
Q 1194 -478 1313 -144 
Q 1328 -97 1363 -6 
L 103 3319 
L 709 3319 
L 1400 1397 
Q 1534 1031 1641 628 
Q 1738 1016 1872 1384 
L 2581 3319 
L 3144 3319 
L 1881 -56 
Q 1678 -603 1566 -809 
Q 1416 -1088 1222 -1217 
Q 1028 -1347 759 -1347 
Q 597 -1347 397 -1278 
z
" transform="scale(0.015625)"/>
       <path id="ArialMT-73" d="M 197 991 
L 753 1078 
Q 800 744 1014 566 
Q 1228 388 1613 388 
Q 2000 388 2187 545 
Q 2375 703 2375 916 
Q 2375 1106 2209 1216 
Q 2094 1291 1634 1406 
Q 1016 1563 777 1677 
Q 538 1791 414 1992 
Q 291 2194 291 2438 
Q 291 2659 392 2848 
Q 494 3038 669 3163 
Q 800 3259 1026 3326 
Q 1253 3394 1513 3394 
Q 1903 3394 2198 3281 
Q 2494 3169 2634 2976 
Q 2775 2784 2828 2463 
L 2278 2388 
Q 2241 2644 2061 2787 
Q 1881 2931 1553 2931 
Q 1166 2931 1000 2803 
Q 834 2675 834 2503 
Q 834 2394 903 2306 
Q 972 2216 1119 2156 
Q 1203 2125 1616 2013 
Q 2213 1853 2448 1751 
Q 2684 1650 2818 1456 
Q 2953 1263 2953 975 
Q 2953 694 2789 445 
Q 2625 197 2315 61 
Q 2006 -75 1616 -75 
Q 969 -75 630 194 
Q 291 463 197 991 
z
" transform="scale(0.015625)"/>
       <path id="ArialMT-29" d="M 791 -1347 
L 388 -1347 
Q 1322 153 1322 1656 
Q 1322 2244 1188 2822 
Q 1081 3291 891 3722 
Q 769 4003 388 4659 
L 791 4659 
Q 1378 3875 1659 3084 
Q 1900 2403 1900 1659 
Q 1900 816 1576 28 
Q 1253 -759 791 -1347 
z
" transform="scale(0.015625)"/>
      </defs>
      <use xlink:href="#ArialMT-44"/>
      <use xlink:href="#ArialMT-61" x="72.216797"/>
      <use xlink:href="#ArialMT-74" x="127.832031"/>
      <use xlink:href="#ArialMT-61" x="155.615234"/>
      <use xlink:href="#ArialMT-20" x="211.230469"/>
      <use xlink:href="#ArialMT-28" x="239.013672"/>
      <use xlink:href="#ArialMT-5a" x="272.314453"/>
      <use xlink:href="#ArialMT-65" x="333.398438"/>
      <use xlink:href="#ArialMT-74" x="389.013672"/>
      <use xlink:href="#ArialMT-74" x="416.796875"/>
      <use xlink:href="#ArialMT-61" x="444.580078"/>
      <use xlink:href="#ArialMT-62" x="500.195312"/>
      <use xlink:href="#ArialMT-79" x="555.810547"/>
      <use xlink:href="#ArialMT-74" x="605.810547"/>
      <use xlink:href="#ArialMT-65" x="633.59375"/>
      <use xlink:href="#ArialMT-73" x="689.208984"/>
      <use xlink:href="#ArialMT-29" x="739.208984"/>
     </g>
    </g>
   </g>
   <g id="PolyCollection_1">
    <path d="M 48.787021 377.64 
L 48.787021 373.741657 
L 92.187021 373.741657 
L 92.187021 377.64 
z
" clip-path="url(#pa11e7945ae)" style="fill: #ffffff; fill-opacity: 0.501961; stroke: #ffffff; stroke-width: 0.886227"/>
    <path d="M 97.009243 377.64 
L 97.009243 367.894144 
L 140.409243 367.894144 
L 140.409243 377.64 
z
" clip-path="url(#pa11e7945ae)" style="fill: #ffffff; fill-opacity: 0.501961; stroke: #ffffff; stroke-width: 0.886227"/>
    <path d="M 145.231465 377.64 
L 145.231465 364.970387 
L 188.631465 364.970387 
L 188.631465 377.64 
z
" clip-path="url(#pa11e7945ae)" style="fill: #ffffff; fill-opacity: 0.501961; stroke: #ffffff; stroke-width: 0.886227"/>
    <path d="M 193.453687 377.64 
L 193.453687 360.097459 
L 236.853688 360.097459 
L 236.853688 377.64 
z
" clip-path="url(#pa11e7945ae)" style="fill: #ffffff; fill-opacity: 0.501961; stroke: #ffffff; stroke-width: 0.886227"/>
    <path d="M 241.67591 377.64 
L 241.67591 353.275359 
L 285.07591 353.275359 
L 285.07591 377.64 
z
" clip-path="url(#pa11e7945ae)" style="fill: #ffffff; fill-opacity: 0.501961; stroke: #ffffff; stroke-width: 0.886227"/>
    <path d="M 289.898132 377.64 
L 289.898132 347.427845 
L 333.298132 347.427845 
L 333.298132 377.64 
z
" clip-path="url(#pa11e7945ae)" style="fill: #ffffff; fill-opacity: 0.501961; stroke: #ffffff; stroke-width: 0.886227"/>
    <path d="M 338.120354 377.64 
L 338.120354 342.554917 
L 381.520354 342.554917 
L 381.520354 377.64 
z
" clip-path="url(#pa11e7945ae)" style="fill: #ffffff; fill-opacity: 0.501961; stroke: #ffffff; stroke-width: 0.886227"/>
    <path d="M 386.342576 377.64 
L 386.342576 326.961547 
L 429.742576 326.961547 
L 429.742576 377.64 
z
" clip-path="url(#pa11e7945ae)" style="fill: #ffffff; fill-opacity: 0.501961; stroke: #ffffff; stroke-width: 0.886227"/>
    <path d="M 434.564799 377.64 
L 434.564799 313.317348 
L 477.964799 313.317348 
L 477.964799 377.64 
z
" clip-path="url(#pa11e7945ae)" style="fill: #ffffff; fill-opacity: 0.501961; stroke: #ffffff; stroke-width: 0.886227"/>
    <path d="M 482.787021 377.64 
L 482.787021 297.723978 
L 526.187021 297.723978 
L 526.187021 377.64 
z
" clip-path="url(#pa11e7945ae)" style="fill: #ffffff; fill-opacity: 0.501961; stroke: #ffffff; stroke-width: 0.886227"/>
    <path d="M 531.009243 377.64 
L 531.009243 252.503204 
L 574.409243 252.503204 
L 574.409243 377.64 
z
" clip-path="url(#pa11e7945ae)" style="fill: #ffffff; fill-opacity: 0.501961; stroke: #ffffff; stroke-width: 0.886227"/>
    <path d="M 579.231465 377.64 
L 579.231465 223.65547 
L 622.631465 223.65547 
L 622.631465 377.64 
z
" clip-path="url(#pa11e7945ae)" style="fill: #ffffff; fill-opacity: 0.501961; stroke: #ffffff; stroke-width: 0.886227"/>
    <path d="M 627.453688 377.64 
L 627.453688 188.570387 
L 670.853687 188.570387 
L 670.853687 377.64 
z
" clip-path="url(#pa11e7945ae)" style="fill: #ffffff; fill-opacity: 0.501961; stroke: #ffffff; stroke-width: 0.886227"/>
    <path d="M 675.67591 377.64 
L 675.67591 143.739448 
L 719.07591 143.739448 
L 719.07591 377.64 
z
" clip-path="url(#pa11e7945ae)" style="fill: #ffffff; fill-opacity: 0.501961; stroke: #ffffff; stroke-width: 0.886227"/>
    <path d="M 723.898132 377.64 
L 723.898132 91.111823 
L 767.298132 91.111823 
L 767.298132 377.64 
z
" clip-path="url(#pa11e7945ae)" style="fill: #ffffff; fill-opacity: 0.501961; stroke: #ffffff; stroke-width: 0.886227"/>
    <path d="M 772.120354 377.64 
L 772.120354 24.84 
L 815.520354 24.84 
L 815.520354 377.64 
z
" clip-path="url(#pa11e7945ae)" style="fill: #ffffff; fill-opacity: 0.501961; stroke: #ffffff; stroke-width: 0.886227"/>
   </g>
  </g>
 </g>
 <defs>
  <clipPath id="pa11e7945ae">
   <rect x="41.553688" y="7.2" width="781.2" height="388.08"/>
  </clipPath>
 </defs>
</svg>
